SplineFontDB: 3.0
FontName: cpp_roboto
FullName: cpp_roboto
FamilyName: cpp_roboto
Weight: Regular
Copyright: Copyright 2011 Google Inc. All Rights Reserved.\nmodiphaid phor cpp & mAThs simbAls
Version: 2.137; 2017
ItalicAngle: 0
UnderlinePosition: -200
UnderlineWidth: 100
Ascent: 1536
Descent: 512
InvalidEm: 0
sfntRevision: 0x00022312
LayerCount: 2
Layer: 0 1 "Back" 1
Layer: 1 1 "Fore" 0
NeedsXUIDChange: 1
XUID: [1021 467 -1121320856 8520477]
UniqueID: 8281311
UseXUID: 1
UseUniqueID: 1
StyleMap: 0x0040
FSType: 0
OS2Version: 3
OS2_WeightWidthSlopeOnly: 0
OS2_UseTypoMetrics: 0
CreationTime: 1221222574
ModificationTime: 1578809493
PfmFamily: 17
TTFWeight: 400
TTFWidth: 5
LineGap: 0
VLineGap: 0
Panose: 2 0 0 0 0 0 0 0 0 0
OS2TypoAscent: 1536
OS2TypoAOffset: 0
OS2TypoDescent: -512
OS2TypoDOffset: 0
OS2TypoLinegap: 102
OS2WinAscent: 1946
OS2WinAOffset: 0
OS2WinDescent: 512
OS2WinDOffset: 0
HheadAscent: 1900
HheadAOffset: 0
HheadDescent: -500
HheadDOffset: 0
OS2SubXSize: 1434
OS2SubYSize: 1331
OS2SubXOff: 0
OS2SubYOff: 287
OS2SupXSize: 1434
OS2SupYSize: 1331
OS2SupXOff: 0
OS2SupYOff: 977
OS2StrikeYSize: 102
OS2StrikeYPos: 512
OS2CapHeight: 1456
OS2XHeight: 1082
OS2Vendor: 'GOOG'
OS2CodePages: 2000019f.00000000
OS2UnicodeRanges: e00002ff.5000205b.00000020.00000000
Lookup: 1 0 0 "'c2sc' Capitals to Small Capitals lookup 0" { "'c2sc' Capitals to Small Capitals lookup 0 subtable"  } ['c2sc' ('DFLT' <'dflt' > 'cyrl' <'dflt' > 'grek' <'dflt' > 'latn' <'AZE ' 'CRT ' 'FRA ' 'MOL ' 'NAV ' 'ROM ' 'TRK ' 'dflt' > ) ]
Lookup: 1 0 0 "'smcp' Lowercase to Small Capitals lookup 1" { "'smcp' Lowercase to Small Capitals lookup 1 subtable"  } ['smcp' ('DFLT' <'dflt' > 'cyrl' <'dflt' > 'grek' <'dflt' > 'latn' <'AZE ' 'CRT ' 'FRA ' 'MOL ' 'NAV ' 'ROM ' 'TRK ' 'dflt' > ) ]

StartChar: .notdef
Encoding: 1114112 -1 0
Width: 908
Flags: W
LayerCount: 2
Fore
SplineSet
808 0 m 1,0,-1
 100 0 l 1,1,-1
 100 1456 l 1,2,-1
 808 1456 l 1,3,-1
 808 0 l 1,0,-1
754 84 m 1,4,-1
 754 1371 l 1,5,-1
 480 728 l 1,6,-1
 754 84 l 1,4,-1
154 1359 m 1,7,-1
 154 96 l 1,8,-1
 422 728 l 1,9,-1
 154 1359 l 1,7,-1
194 54 m 1,10,-1
 709 54 l 1,11,-1
 451 660 l 1,12,-1
 194 54 l 1,10,-1
451 796 m 1,13,-1
 709 1402 l 1,14,-1
 194 1402 l 1,15,-1
 451 796 l 1,13,-1
EndSplineSet
EndChar

StartChar: exclam
Encoding: 33 33 5
Width: 527
Flags: W
LayerCount: 2
Fore
SplineSet
347 411 m 1,0,-1
 180 411 l 1,1,-1
 167 1456 l 1,2,-1
 361 1456 l 1,3,-1
 347 411 l 1,0,-1
160 93 m 256,4,5
 160 138 160 138 187.5 168.5 c 128,-1,6
 215 199 215 199 269 199 c 128,-1,7
 323 199 323 199 351 168.5 c 128,-1,8
 379 138 379 138 379 93 c 128,-1,9
 379 48 379 48 351 18.5 c 128,-1,10
 323 -11 323 -11 269 -11 c 128,-1,11
 215 -11 215 -11 187.5 18.5 c 128,-1,12
 160 48 160 48 160 93 c 256,4,5
EndSplineSet
EndChar

StartChar: quotedbl
Encoding: 34 34 6
Width: 655
Flags: W
LayerCount: 2
Fore
SplineSet
277 1400 m 1,0,-1
 247 1042 l 1,1,-1
 136 1042 l 1,2,-1
 137 1536 l 1,3,-1
 277 1536 l 1,4,-1
 277 1400 l 1,0,-1
547 1400 m 1,5,-1
 517 1042 l 1,6,-1
 406 1042 l 1,7,-1
 407 1536 l 1,8,-1
 547 1536 l 1,9,-1
 547 1400 l 1,5,-1
EndSplineSet
EndChar

StartChar: numbersign
Encoding: 35 35 7
Width: 1261
Flags: W
LayerCount: 2
Fore
SplineSet
765 410 m 1,0,-1
 501 410 l 1,1,-1
 421 0 l 1,2,-1
 278 0 l 1,3,-1
 358 410 l 1,4,-1
 119 410 l 1,5,-1
 119 547 l 1,6,-1
 384 547 l 1,7,-1
 453 901 l 1,8,-1
 195 901 l 1,9,-1
 195 1040 l 1,10,-1
 480 1040 l 1,11,-1
 562 1456 l 1,12,-1
 705 1456 l 1,13,-1
 623 1040 l 1,14,-1
 887 1040 l 1,15,-1
 969 1456 l 1,16,-1
 1113 1456 l 1,17,-1
 1031 1040 l 1,18,-1
 1235 1040 l 1,19,-1
 1235 901 l 1,20,-1
 1004 901 l 1,21,-1
 935 547 l 1,22,-1
 1160 547 l 1,23,-1
 1160 410 l 1,24,-1
 909 410 l 1,25,-1
 829 0 l 1,26,-1
 685 0 l 1,27,-1
 765 410 l 1,0,-1
527 547 m 1,28,-1
 791 547 l 1,29,-1
 860 901 l 1,30,-1
 596 901 l 1,31,-1
 527 547 l 1,28,-1
EndSplineSet
EndChar

StartChar: dollar
Encoding: 36 36 8
Width: 1150
Flags: W
LayerCount: 2
Fore
SplineSet
856 375 m 0,0,1
 856 467 856 467 791.5 530 c 128,-1,2
 727 593 727 593 574 644 c 1,3,4
 361 709 361 709 263.5 813.5 c 128,-1,5
 166 918 166 918 166 1079 c 0,6,7
 166 1243 166 1243 261.5 1348 c 128,-1,8
 357 1453 357 1453 524 1473 c 1,9,-1
 524 1692 l 1,10,-1
 673 1692 l 1,11,-1
 673 1472 l 1,12,13
 841 1449 841 1449 934.5 1331 c 128,-1,14
 1028 1213 1028 1213 1028 1008 c 1,15,-1
 844 1008 l 1,16,17
 844 1149 844 1149 777 1232 c 128,-1,18
 710 1315 710 1315 596 1315 c 0,19,20
 477 1315 477 1315 414 1253.5 c 128,-1,21
 351 1192 351 1192 351 1082 c 0,22,23
 351 980 351 980 417.5 919.5 c 128,-1,24
 484 859 484 859 636.5 809.5 c 128,-1,25
 789 760 789 760 874.5 700.5 c 128,-1,26
 960 641 960 641 1000.5 562 c 128,-1,27
 1041 483 1041 483 1041 377 c 0,28,29
 1041 208 1041 208 939.5 105 c 128,-1,30
 838 2 838 2 655 -17 c 1,31,-1
 655 -208 l 1,32,-1
 507 -208 l 1,33,-1
 507 -17 l 1,34,35
 321 0 321 0 215.5 115.5 c 128,-1,36
 110 231 110 231 110 429 c 1,37,-1
 295 429 l 1,38,39
 295 290 295 290 368 215 c 128,-1,40
 441 140 441 140 575 140 c 0,41,42
 706 140 706 140 781 203 c 128,-1,43
 856 266 856 266 856 375 c 0,0,1
EndSplineSet
Substitution2: "'c2sc' Capitals to Small Capitals lookup 0 subtable" dollar.c2sc
Position2: "'cpsp' Capital Spacing lookup 0 subtable" dx=36 dy=0 dh=72 dv=0
EndChar

StartChar: percent
Encoding: 37 37 9
Width: 1500
Flags: W
LayerCount: 2
Fore
SplineSet
105 1176 m 2,0,1
 105 1307 105 1307 188.5 1392 c 128,-1,2
 272 1477 272 1477 403 1477 c 0,3,4
 536 1477 536 1477 618.5 1391.5 c 128,-1,5
 701 1306 701 1306 701 1170 c 2,6,-1
 701 1099 l 2,7,8
 701 967 701 967 617.5 883.5 c 128,-1,9
 534 800 534 800 405 800 c 0,10,11
 275 800 275 800 190 883.5 c 128,-1,12
 105 967 105 967 105 1106 c 2,13,-1
 105 1176 l 2,0,1
243 1099 m 2,14,15
 243 1021 243 1021 287 970.5 c 128,-1,16
 331 920 331 920 405 920 c 0,17,18
 476 920 476 920 519.5 969 c 128,-1,19
 563 1018 563 1018 563 1103 c 2,20,-1
 563 1176 l 2,21,22
 563 1254 563 1254 520 1305 c 128,-1,23
 477 1356 477 1356 403 1356 c 128,-1,24
 329 1356 329 1356 286 1305 c 128,-1,25
 243 1254 243 1254 243 1172 c 2,26,-1
 243 1099 l 2,14,15
814 357 m 2,27,28
 814 488 814 488 897.5 572.5 c 128,-1,29
 981 657 981 657 1112 657 c 128,-1,30
 1243 657 1243 657 1327 573 c 128,-1,31
 1411 489 1411 489 1411 350 c 2,32,-1
 1411 279 l 2,33,34
 1411 148 1411 148 1327.5 63.5 c 128,-1,35
 1244 -21 1244 -21 1114 -21 c 128,-1,36
 984 -21 984 -21 899 62.5 c 128,-1,37
 814 146 814 146 814 285 c 2,38,-1
 814 357 l 2,27,28
952 279 m 2,39,40
 952 200 952 200 996 149.5 c 128,-1,41
 1040 99 1040 99 1114 99 c 0,42,43
 1186 99 1186 99 1229 148.5 c 128,-1,44
 1272 198 1272 198 1272 283 c 2,45,-1
 1272 357 l 2,46,47
 1272 436 1272 436 1228.5 486 c 128,-1,48
 1185 536 1185 536 1112 536 c 0,49,50
 1041 536 1041 536 996.5 486.5 c 128,-1,51
 952 437 952 437 952 353 c 2,52,-1
 952 279 l 2,39,40
447 110 m 1,53,-1
 342 176 l 1,54,-1
 1053 1314 l 1,55,-1
 1158 1248 l 1,56,-1
 447 110 l 1,53,-1
EndSplineSet
EndChar

StartChar: ampersand
Encoding: 38 38 10
Width: 1273
Flags: W
LayerCount: 2
Fore
SplineSet
101 391 m 0,0,1
 101 496 101 496 159.5 584 c 128,-1,2
 218 672 218 672 383 789 c 1,3,4
 286 907 286 907 253 979 c 128,-1,5
 220 1051 220 1051 220 1122 c 0,6,7
 220 1288 220 1288 318 1382 c 128,-1,8
 416 1476 416 1476 584 1476 c 0,9,10
 734 1476 734 1476 832 1388.5 c 128,-1,11
 930 1301 930 1301 930 1168 c 0,12,13
 930 1080 930 1080 885.5 1005.5 c 128,-1,14
 841 931 841 931 730 849 c 2,15,-1
 623 770 l 1,16,-1
 947 383 l 1,17,18
 1015 513 1015 513 1015 672 c 1,19,-1
 1182 672 l 1,20,21
 1182 417 1182 417 1059 249 c 1,22,-1
 1267 0 l 1,23,-1
 1045 0 l 1,24,-1
 948 115 l 1,25,26
 874 49 874 49 774.5 14.5 c 128,-1,27
 675 -20 675 -20 572 -20 c 0,28,29
 359 -20 359 -20 230 93 c 128,-1,30
 101 206 101 206 101 391 c 0,0,1
572 131 m 0,31,32
 719 131 719 131 841 243 c 1,33,-1
 486 668 l 1,34,-1
 453 644 l 2,35,36
 286 521 286 521 286 391 c 0,37,38
 286 273 286 273 362.5 202 c 128,-1,39
 439 131 439 131 572 131 c 0,31,32
405 1128 m 0,40,41
 405 1032 405 1032 523 888 c 1,42,-1
 641 971 l 2,43,44
 709 1019 709 1019 734 1062.5 c 128,-1,45
 759 1106 759 1106 759 1168 c 0,46,47
 759 1235 759 1235 709 1279.5 c 128,-1,48
 659 1324 659 1324 583 1324 c 0,49,50
 501 1324 501 1324 453 1268.5 c 128,-1,51
 405 1213 405 1213 405 1128 c 0,40,41
EndSplineSet
Substitution2: "'smcp' Lowercase to Small Capitals lookup 1 subtable" ampersand.c2sc
Substitution2: "'c2sc' Capitals to Small Capitals lookup 0 subtable" ampersand.c2sc
Position2: "'cpsp' Capital Spacing lookup 0 subtable" dx=36 dy=0 dh=72 dv=0
EndChar

StartChar: quotesingle
Encoding: 39 39 11
Width: 357
Flags: W
LayerCount: 2
Fore
SplineSet
253 1425 m 1,0,-1
 232 1057 l 1,1,-1
 103 1057 l 1,2,-1
 104 1536 l 1,3,-1
 253 1536 l 1,4,-1
 253 1425 l 1,0,-1
EndSplineSet
EndChar

StartChar: parenleft
Encoding: 40 40 12
Width: 700
Flags: W
LayerCount: 2
Fore
SplineSet
133 591 m 0,0,1
 133 817 133 817 193.5 1025 c 128,-1,2
 254 1233 254 1233 374 1403 c 128,-1,3
 494 1573 494 1573 623 1643 c 1,4,-1
 661 1521 l 1,5,6
 515 1409 515 1409 421.5 1179 c 128,-1,7
 328 949 328 949 319 664 c 1,8,-1
 318 579 l 1,9,10
 318 193 318 193 459 -91 c 0,11,12
 544 -261 544 -261 661 -357 c 1,13,-1
 623 -470 l 1,14,15
 490 -396 490 -396 369 -222 c 0,16,17
 133 118 133 118 133 591 c 0,0,1
EndSplineSet
EndChar

StartChar: parenright
Encoding: 41 41 13
Width: 712
Flags: W
LayerCount: 2
Fore
SplineSet
567 581 m 0,0,1
 567 358 567 358 508.5 153.5 c 128,-1,2
 450 -51 450 -51 329.5 -224 c 128,-1,3
 209 -397 209 -397 77 -470 c 1,4,-1
 38 -357 l 1,5,6
 192 -239 192 -239 285.5 9.5 c 128,-1,7
 379 258 379 258 381 561 c 2,8,-1
 381 593 l 2,9,10
 381 803 381 803 337 983.5 c 128,-1,11
 293 1164 293 1164 214.5 1307 c 128,-1,12
 136 1450 136 1450 38 1530 c 1,13,-1
 77 1643 l 1,14,15
 209 1570 209 1570 328.5 1399 c 128,-1,16
 448 1228 448 1228 507.5 1022 c 128,-1,17
 567 816 567 816 567 581 c 0,0,1
EndSplineSet
EndChar

StartChar: asterisk
Encoding: 42 42 14
Width: 882
Flags: W
LayerCount: 2
Fore
SplineSet
330 983 m 1,0,-1
 28 1073 l 1,1,-1
 74 1224 l 1,2,-1
 376 1112 l 1,3,-1
 367 1456 l 1,4,-1
 520 1456 l 1,5,-1
 510 1107 l 1,6,-1
 807 1217 l 1,7,-1
 853 1065 l 1,8,-1
 546 974 l 1,9,-1
 744 703 l 1,10,-1
 620 609 l 1,11,-1
 434 897 l 1,12,-1
 254 616 l 1,13,-1
 129 707 l 1,14,-1
 330 983 l 1,0,-1
EndSplineSet
EndChar

StartChar: plus
Encoding: 43 43 15
Width: 1161
Flags: W
LayerCount: 2
Fore
SplineSet
670 781 m 1,0,-1
 1076 781 l 1,1,-1
 1076 606 l 1,2,-1
 670 606 l 1,3,-1
 670 146 l 1,4,-1
 484 146 l 1,5,-1
 484 606 l 1,6,-1
 78 606 l 1,7,-1
 78 781 l 1,8,-1
 484 781 l 1,9,-1
 484 1206 l 1,10,-1
 670 1206 l 1,11,-1
 670 781 l 1,0,-1
EndSplineSet
EndChar

StartChar: comma
Encoding: 44 44 16
Width: 402
Flags: W
LayerCount: 2
Fore
SplineSet
134 -290 m 1,0,-1
 29 -218 l 1,1,2
 123 -87 123 -87 127 52 c 1,3,-1
 127 219 l 1,4,-1
 308 219 l 1,5,-1
 308 74 l 2,6,7
 308 -27 308 -27 258.5 -128 c 128,-1,8
 209 -229 209 -229 134 -290 c 1,0,-1
EndSplineSet
EndChar

StartChar: hyphen
Encoding: 45 45 17
Width: 565
Flags: W
LayerCount: 2
Fore
SplineSet
525 543 m 1,0,-1
 37 543 l 1,1,-1
 37 694 l 1,2,-1
 525 694 l 1,3,-1
 525 543 l 1,0,-1
EndSplineSet
EndChar

StartChar: period
Encoding: 46 46 18
Width: 539
Flags: W
LayerCount: 2
Fore
SplineSet
144 97 m 0,0,1
 144 145 144 145 172.5 177 c 128,-1,2
 201 209 201 209 258 209 c 128,-1,3
 315 209 315 209 344.5 177 c 128,-1,4
 374 145 374 145 374 97 c 0,5,6
 374 51 374 51 344.5 20 c 128,-1,7
 315 -11 315 -11 258 -11 c 128,-1,8
 201 -11 201 -11 172.5 20 c 128,-1,9
 144 51 144 51 144 97 c 0,0,1
EndSplineSet
EndChar

StartChar: slash
Encoding: 47 47 19
Width: 844
Flags: W
LayerCount: 2
Fore
SplineSet
177 -125 m 1,0,-1
 18 -125 l 1,1,-1
 626 1456 l 1,2,-1
 784 1456 l 1,3,-1
 177 -125 l 1,0,-1
EndSplineSet
Substitution2: "'frac' Diagonal Fractions lookup 22 subtable" fraction
EndChar

StartChar: zero
Encoding: 48 48 20
Width: 1150
Flags: W
LayerCount: 2
Fore
SplineSet
1034 621 m 2,0,1
 1034 296 1034 296 923 138 c 128,-1,2
 812 -20 812 -20 576 -20 c 0,3,4
 343 -20 343 -20 231 134.5 c 128,-1,5
 119 289 119 289 115 596 c 1,6,-1
 115 843 l 2,7,8
 115 1164 115 1164 226 1320 c 128,-1,9
 337 1476 337 1476 574 1476 c 0,10,11
 809 1476 809 1476 920 1325.5 c 128,-1,12
 1031 1175 1031 1175 1034 861 c 2,13,-1
 1034 621 l 2,0,1
849 874 m 2,14,15
 849 1109 849 1109 783 1216.5 c 128,-1,16
 717 1324 717 1324 574 1324 c 0,17,18
 432 1324 432 1324 367 1217 c 128,-1,19
 302 1110 302 1110 300 888 c 2,20,-1
 300 592 l 2,21,22
 300 356 300 356 368.5 243.5 c 128,-1,23
 437 131 437 131 576 131 c 0,24,25
 713 131 713 131 779.5 237 c 128,-1,26
 846 343 846 343 849 571 c 2,27,-1
 849 874 l 2,14,15
EndSplineSet
Substitution2: "'numr' Numerators lookup 25 subtable" zero.numr
Substitution2: "'dnom' Denominators lookup 24 subtable" zero.dnom
Substitution2: "'pnum' Proportional Numbers lookup 19 subtable" zero.pnum
Substitution2: "'onum' Oldstyle Figures lookup 18 subtable" zero.oldstyle
Substitution2: "'c2sc' Capitals to Small Capitals lookup 0 subtable" zero.c2sc
Position2: "'cpsp' Capital Spacing lookup 0 subtable" dx=36 dy=0 dh=72 dv=0
EndChar

StartChar: one
Encoding: 49 49 21
Width: 1150
Flags: W
LayerCount: 2
Fore
SplineSet
729 0 m 1,0,-1
 543 0 l 1,1,-1
 543 1233 l 1,2,-1
 170 1096 l 1,3,-1
 170 1264 l 1,4,-1
 700 1463 l 1,5,-1
 729 1463 l 1,6,-1
 729 0 l 1,0,-1
EndSplineSet
Substitution2: "'numr' Numerators lookup 25 subtable" uni00B9
Substitution2: "'dnom' Denominators lookup 24 subtable" one.dnom
Substitution2: "'pnum' Proportional Numbers lookup 19 subtable" one.pnum
Substitution2: "'onum' Oldstyle Figures lookup 18 subtable" one.oldstyle
Substitution2: "'c2sc' Capitals to Small Capitals lookup 0 subtable" one.c2sc
Position2: "'cpsp' Capital Spacing lookup 0 subtable" dx=36 dy=0 dh=72 dv=0
EndChar

StartChar: two
Encoding: 50 50 22
Width: 1150
Flags: W
LayerCount: 2
Fore
SplineSet
1075 0 m 1,0,-1
 121 0 l 1,1,-1
 121 133 l 1,2,-1
 625 693 l 2,3,4
 737 820 737 820 779.5 899.5 c 128,-1,5
 822 979 822 979 822 1064 c 0,6,7
 822 1178 822 1178 753 1251 c 128,-1,8
 684 1324 684 1324 569 1324 c 0,9,10
 431 1324 431 1324 354.5 1245.5 c 128,-1,11
 278 1167 278 1167 278 1027 c 1,12,-1
 93 1027 l 1,13,14
 93 1228 93 1228 222.5 1352 c 128,-1,15
 352 1476 352 1476 569 1476 c 0,16,17
 772 1476 772 1476 890 1369.5 c 128,-1,18
 1008 1263 1008 1263 1008 1086 c 0,19,20
 1008 871 1008 871 734 574 c 2,21,-1
 344 151 l 1,22,-1
 1075 151 l 1,23,-1
 1075 0 l 1,0,-1
EndSplineSet
Substitution2: "'numr' Numerators lookup 25 subtable" uni00B2
Substitution2: "'dnom' Denominators lookup 24 subtable" two.dnom
Substitution2: "'pnum' Proportional Numbers lookup 19 subtable" two.pnum
Substitution2: "'onum' Oldstyle Figures lookup 18 subtable" two.oldstyle
Substitution2: "'c2sc' Capitals to Small Capitals lookup 0 subtable" two.c2sc
Position2: "'cpsp' Capital Spacing lookup 0 subtable" dx=36 dy=0 dh=72 dv=0
EndChar

StartChar: three
Encoding: 51 51 23
Width: 1150
Flags: W
LayerCount: 2
Fore
SplineSet
390 818 m 1,0,-1
 529 818 l 2,1,2
 660 820 660 820 735 887 c 128,-1,3
 810 954 810 954 810 1068 c 0,4,5
 810 1324 810 1324 555 1324 c 0,6,7
 435 1324 435 1324 363.5 1255.5 c 128,-1,8
 292 1187 292 1187 292 1074 c 1,9,-1
 107 1074 l 1,10,11
 107 1247 107 1247 233.5 1361.5 c 128,-1,12
 360 1476 360 1476 555 1476 c 0,13,14
 761 1476 761 1476 878 1367 c 128,-1,15
 995 1258 995 1258 995 1064 c 0,16,17
 995 969 995 969 933.5 880 c 128,-1,18
 872 791 872 791 766 747 c 1,19,20
 886 709 886 709 951.5 621 c 128,-1,21
 1017 533 1017 533 1017 406 c 0,22,23
 1017 210 1017 210 889 95 c 128,-1,24
 761 -20 761 -20 556 -20 c 128,-1,25
 351 -20 351 -20 222.5 91 c 128,-1,26
 94 202 94 202 94 384 c 1,27,-1
 280 384 l 1,28,29
 280 269 280 269 355 200 c 128,-1,30
 430 131 430 131 556 131 c 0,31,32
 690 131 690 131 761 201 c 128,-1,33
 832 271 832 271 832 402 c 0,34,35
 832 529 832 529 754 597 c 128,-1,36
 676 665 676 665 529 667 c 2,37,-1
 390 667 l 1,38,-1
 390 818 l 1,0,-1
EndSplineSet
Substitution2: "'numr' Numerators lookup 25 subtable" uni00B3
Substitution2: "'dnom' Denominators lookup 24 subtable" three.dnom
Substitution2: "'pnum' Proportional Numbers lookup 19 subtable" three.pnum
Substitution2: "'onum' Oldstyle Figures lookup 18 subtable" three.oldstyle
Substitution2: "'c2sc' Capitals to Small Capitals lookup 0 subtable" three.c2sc
Position2: "'cpsp' Capital Spacing lookup 0 subtable" dx=36 dy=0 dh=72 dv=0
EndChar

StartChar: four
Encoding: 52 52 24
Width: 1150
Flags: W
LayerCount: 2
Fore
SplineSet
902 489 m 1,0,-1
 1104 489 l 1,1,-1
 1104 338 l 1,2,-1
 902 338 l 1,3,-1
 902 0 l 1,4,-1
 716 0 l 1,5,-1
 716 338 l 1,6,-1
 53 338 l 1,7,-1
 53 447 l 1,8,-1
 705 1456 l 1,9,-1
 902 1456 l 1,10,-1
 902 489 l 1,0,-1
263 489 m 1,11,-1
 716 489 l 1,12,-1
 716 1203 l 1,13,-1
 694 1163 l 1,14,-1
 263 489 l 1,11,-1
EndSplineSet
Substitution2: "'numr' Numerators lookup 25 subtable" four.numr
Substitution2: "'dnom' Denominators lookup 24 subtable" four.dnom
Substitution2: "'pnum' Proportional Numbers lookup 19 subtable" four.pnum
Substitution2: "'onum' Oldstyle Figures lookup 18 subtable" four.oldstyle
Substitution2: "'c2sc' Capitals to Small Capitals lookup 0 subtable" four.c2sc
Position2: "'cpsp' Capital Spacing lookup 0 subtable" dx=36 dy=0 dh=72 dv=0
EndChar

StartChar: five
Encoding: 53 53 25
Width: 1150
Flags: W
LayerCount: 2
Fore
SplineSet
206 730 m 1,0,-1
 280 1456 l 1,1,-1
 1026 1456 l 1,2,-1
 1026 1285 l 1,3,-1
 437 1285 l 1,4,-1
 393 888 l 1,5,6
 500 951 500 951 636 951 c 0,7,8
 835 951 835 951 952 819.5 c 128,-1,9
 1069 688 1069 688 1069 464 c 0,10,11
 1069 239 1069 239 947.5 109.5 c 128,-1,12
 826 -20 826 -20 608 -20 c 0,13,14
 415 -20 415 -20 293 87 c 128,-1,15
 171 194 171 194 154 383 c 1,16,-1
 329 383 l 1,17,18
 346 258 346 258 418 194.5 c 128,-1,19
 490 131 490 131 608 131 c 0,20,21
 737 131 737 131 810.5 219 c 128,-1,22
 884 307 884 307 884 462 c 0,23,24
 884 608 884 608 804.5 696.5 c 128,-1,25
 725 785 725 785 593 785 c 0,26,27
 472 785 472 785 403 732 c 2,28,-1
 354 692 l 1,29,-1
 206 730 l 1,0,-1
EndSplineSet
Substitution2: "'numr' Numerators lookup 25 subtable" five.numr
Substitution2: "'dnom' Denominators lookup 24 subtable" five.dnom
Substitution2: "'pnum' Proportional Numbers lookup 19 subtable" five.pnum
Substitution2: "'onum' Oldstyle Figures lookup 18 subtable" five.oldstyle
Substitution2: "'c2sc' Capitals to Small Capitals lookup 0 subtable" five.c2sc
Position2: "'cpsp' Capital Spacing lookup 0 subtable" dx=36 dy=0 dh=72 dv=0
EndChar

StartChar: six
Encoding: 54 54 26
Width: 1150
Flags: W
LayerCount: 2
Fore
SplineSet
847 1457 m 1,0,-1
 847 1300 l 1,1,-1
 813 1300 l 1,2,3
 597 1296 597 1296 469 1172 c 128,-1,4
 341 1048 341 1048 321 823 c 1,5,6
 436 955 436 955 635 955 c 0,7,8
 825 955 825 955 938.5 821 c 128,-1,9
 1052 687 1052 687 1052 475 c 0,10,11
 1052 250 1052 250 929.5 115 c 128,-1,12
 807 -20 807 -20 601 -20 c 0,13,14
 392 -20 392 -20 262 140.5 c 128,-1,15
 132 301 132 301 132 554 c 2,16,-1
 132 625 l 2,17,18
 132 1027 132 1027 303.5 1239.5 c 128,-1,19
 475 1452 475 1452 814 1457 c 1,20,-1
 847 1457 l 1,0,-1
604 801 m 0,21,22
 509 801 509 801 429 744 c 128,-1,23
 349 687 349 687 318 601 c 1,24,-1
 318 533 l 2,25,26
 318 353 318 353 399 243 c 128,-1,27
 480 133 480 133 601 133 c 0,28,29
 726 133 726 133 797.5 225 c 128,-1,30
 869 317 869 317 869 466 c 0,31,32
 869 616 869 616 796.5 708.5 c 128,-1,33
 724 801 724 801 604 801 c 0,21,22
EndSplineSet
Substitution2: "'numr' Numerators lookup 25 subtable" six.numr
Substitution2: "'dnom' Denominators lookup 24 subtable" six.dnom
Substitution2: "'lnum' Lining Figures lookup 21 subtable" six.pnum
Substitution2: "'tnum' Tabular Numbers lookup 20 subtable" six.oldstyle
Substitution2: "'pnum' Proportional Numbers lookup 19 subtable" six.pnum
Substitution2: "'onum' Oldstyle Figures lookup 18 subtable" six.oldstyle
Substitution2: "'c2sc' Capitals to Small Capitals lookup 0 subtable" six.c2sc
Position2: "'cpsp' Capital Spacing lookup 0 subtable" dx=36 dy=0 dh=72 dv=0
EndChar

StartChar: seven
Encoding: 55 55 27
Width: 1150
Flags: W
LayerCount: 2
Fore
SplineSet
1061 1352 m 1,0,-1
 458 0 l 1,1,-1
 264 0 l 1,2,-1
 865 1304 l 1,3,-1
 77 1304 l 1,4,-1
 77 1456 l 1,5,-1
 1061 1456 l 1,6,-1
 1061 1352 l 1,0,-1
EndSplineSet
Substitution2: "'numr' Numerators lookup 25 subtable" seven.numr
Substitution2: "'dnom' Denominators lookup 24 subtable" seven.dnom
Substitution2: "'pnum' Proportional Numbers lookup 19 subtable" seven.pnum
Substitution2: "'onum' Oldstyle Figures lookup 18 subtable" seven.oldstyle
Substitution2: "'c2sc' Capitals to Small Capitals lookup 0 subtable" seven.c2sc
Position2: "'cpsp' Capital Spacing lookup 0 subtable" dx=36 dy=0 dh=72 dv=0
EndChar

StartChar: eight
Encoding: 56 56 28
Width: 1150
Flags: W
LayerCount: 2
Fore
SplineSet
1004 1076 m 0,0,1
 1004 967 1004 967 946.5 882 c 128,-1,2
 889 797 889 797 791 749 c 1,3,4
 905 700 905 700 971.5 606 c 128,-1,5
 1038 512 1038 512 1038 393 c 0,6,7
 1038 204 1038 204 910.5 92 c 128,-1,8
 783 -20 783 -20 575 -20 c 0,9,10
 365 -20 365 -20 238.5 92.5 c 128,-1,11
 112 205 112 205 112 393 c 0,12,13
 112 511 112 511 176.5 606 c 128,-1,14
 241 701 241 701 355 750 c 1,15,16
 258 798 258 798 202 883 c 128,-1,17
 146 968 146 968 146 1076 c 0,18,19
 146 1260 146 1260 264 1368 c 128,-1,20
 382 1476 382 1476 575 1476 c 0,21,22
 767 1476 767 1476 885.5 1368 c 128,-1,23
 1004 1260 1004 1260 1004 1076 c 0,0,1
853 397 m 0,24,25
 853 519 853 519 775.5 596 c 128,-1,26
 698 673 698 673 573 673 c 128,-1,27
 448 673 448 673 372.5 597 c 128,-1,28
 297 521 297 521 297 397 c 128,-1,29
 297 273 297 273 370.5 202 c 128,-1,30
 444 131 444 131 575 131 c 0,31,32
 705 131 705 131 779 202.5 c 128,-1,33
 853 274 853 274 853 397 c 0,24,25
575 1324 m 0,34,35
 466 1324 466 1324 398.5 1256.5 c 128,-1,36
 331 1189 331 1189 331 1073 c 0,37,38
 331 962 331 962 397.5 893.5 c 128,-1,39
 464 825 464 825 575 825 c 128,-1,40
 686 825 686 825 752.5 893.5 c 128,-1,41
 819 962 819 962 819 1073 c 128,-1,42
 819 1184 819 1184 750 1254 c 128,-1,43
 681 1324 681 1324 575 1324 c 0,34,35
EndSplineSet
Substitution2: "'numr' Numerators lookup 25 subtable" eight.numr
Substitution2: "'dnom' Denominators lookup 24 subtable" eight.dnom
Substitution2: "'lnum' Lining Figures lookup 21 subtable" eight.pnum
Substitution2: "'tnum' Tabular Numbers lookup 20 subtable" eight.oldstyle
Substitution2: "'pnum' Proportional Numbers lookup 19 subtable" eight.pnum
Substitution2: "'onum' Oldstyle Figures lookup 18 subtable" eight.oldstyle
Substitution2: "'c2sc' Capitals to Small Capitals lookup 0 subtable" eight.c2sc
Position2: "'cpsp' Capital Spacing lookup 0 subtable" dx=36 dy=0 dh=72 dv=0
EndChar

StartChar: nine
Encoding: 57 57 29
Width: 1150
Flags: W
LayerCount: 2
Fore
SplineSet
830 640 m 1,0,1
 772 571 772 571 691.5 529 c 128,-1,2
 611 487 611 487 515 487 c 0,3,4
 389 487 389 487 295.5 549 c 128,-1,5
 202 611 202 611 151 723.5 c 128,-1,6
 100 836 100 836 100 972 c 0,7,8
 100 1118 100 1118 155.5 1235 c 128,-1,9
 211 1352 211 1352 313 1414 c 128,-1,10
 415 1476 415 1476 551 1476 c 0,11,12
 767 1476 767 1476 891.5 1314.5 c 128,-1,13
 1016 1153 1016 1153 1016 874 c 2,14,-1
 1016 820 l 2,15,16
 1016 395 1016 395 848 199.5 c 128,-1,17
 680 4 680 4 341 -1 c 1,18,-1
 305 -1 l 1,19,-1
 305 155 l 1,20,-1
 344 155 l 1,21,22
 573 159 573 159 696 274.5 c 128,-1,23
 819 390 819 390 830 640 c 1,0,1
545 640 m 0,24,25
 638 640 638 640 716.5 697 c 128,-1,26
 795 754 795 754 831 838 c 1,27,-1
 831 912 l 2,28,29
 831 1094 831 1094 752 1208 c 128,-1,30
 673 1322 673 1322 552 1322 c 0,31,32
 430 1322 430 1322 356 1228.5 c 128,-1,33
 282 1135 282 1135 282 982 c 0,34,35
 282 833 282 833 353.5 736.5 c 128,-1,36
 425 640 425 640 545 640 c 0,24,25
EndSplineSet
Substitution2: "'numr' Numerators lookup 25 subtable" nine.numr
Substitution2: "'dnom' Denominators lookup 24 subtable" nine.dnom
Substitution2: "'pnum' Proportional Numbers lookup 19 subtable" nine.pnum
Substitution2: "'onum' Oldstyle Figures lookup 18 subtable" nine.oldstyle
Substitution2: "'c2sc' Capitals to Small Capitals lookup 0 subtable" nine.c2sc
Position2: "'cpsp' Capital Spacing lookup 0 subtable" dx=36 dy=0 dh=72 dv=0
EndChar

StartChar: less
Encoding: 60 60 32
Width: 1041
Flags: W
LayerCount: 2
Fore
SplineSet
264 644 m 1,0,-1
 890 391 l 1,1,-1
 890 195 l 1,2,-1
 72 574 l 1,3,-1
 72 720 l 1,4,-1
 890 1098 l 1,5,-1
 890 902 l 1,6,-1
 264 644 l 1,0,-1
EndSplineSet
EndChar

StartChar: equal
Encoding: 61 61 33
Width: 1124
Flags: W
LayerCount: 2
Fore
SplineSet
986 814 m 1,0,-1
 152 814 l 1,1,-1
 152 975 l 1,2,-1
 986 975 l 1,3,-1
 986 814 l 1,0,-1
986 399 m 1,4,-1
 152 399 l 1,5,-1
 152 559 l 1,6,-1
 986 559 l 1,7,-1
 986 399 l 1,4,-1
EndSplineSet
EndChar

StartChar: greater
Encoding: 62 62 34
Width: 1070
Flags: W
LayerCount: 2
Fore
SplineSet
795 650 m 1,0,-1
 134 909 l 1,1,-1
 134 1099 l 1,2,-1
 988 721 l 1,3,-1
 988 575 l 1,4,-1
 134 196 l 1,5,-1
 134 388 l 1,6,-1
 795 650 l 1,0,-1
EndSplineSet
EndChar

StartChar: question
Encoding: 63 63 35
Width: 967
Flags: W
LayerCount: 2
Fore
SplineSet
357 410 m 1,0,1
 359 529 359 529 384 598 c 128,-1,2
 409 667 409 667 486 751 c 2,3,-1
 617 886 l 1,4,5
 701 981 701 981 701 1090 c 0,6,7
 701 1195 701 1195 646 1254.5 c 128,-1,8
 591 1314 591 1314 486 1314 c 0,9,10
 384 1314 384 1314 322 1260 c 128,-1,11
 260 1206 260 1206 260 1115 c 1,12,-1
 75 1115 l 1,13,14
 77 1277 77 1277 190.5 1376.5 c 128,-1,15
 304 1476 304 1476 486 1476 c 0,16,17
 675 1476 675 1476 780.5 1374.5 c 128,-1,18
 886 1273 886 1273 886 1096 c 0,19,20
 886 921 886 921 724 751 c 1,21,-1
 615 643 l 1,22,23
 542 562 542 562 542 410 c 1,24,-1
 357 410 l 1,0,1
349 93 m 256,25,26
 349 138 349 138 376.5 168.5 c 128,-1,27
 404 199 404 199 458 199 c 128,-1,28
 512 199 512 199 540 168.5 c 128,-1,29
 568 138 568 138 568 93 c 128,-1,30
 568 48 568 48 540 18.5 c 128,-1,31
 512 -11 512 -11 458 -11 c 128,-1,32
 404 -11 404 -11 376.5 18.5 c 128,-1,33
 349 48 349 48 349 93 c 256,25,26
EndSplineSet
EndChar

StartChar: at
Encoding: 64 64 36
Width: 1839
Flags: W
LayerCount: 2
Fore
SplineSet
1738 502 m 0,0,1
 1726 260 1726 260 1618 120 c 128,-1,2
 1510 -20 1510 -20 1329 -20 c 0,3,4
 1142 -20 1142 -20 1089 148 c 1,5,6
 1035 63 1035 63 965.5 21.5 c 128,-1,7
 896 -20 896 -20 822 -20 c 0,8,9
 680 -20 680 -20 607 96 c 128,-1,10
 534 212 534 212 553 417 c 0,11,12
 568 582 568 582 628.5 711.5 c 128,-1,13
 689 841 689 841 784.5 915 c 128,-1,14
 880 989 880 989 985 989 c 0,15,16
 1066 989 1066 989 1130 967.5 c 128,-1,17
 1194 946 1194 946 1274 883 c 1,18,-1
 1222 329 l 2,19,20
 1203 98 1203 98 1350 98 c 0,21,22
 1463 98 1463 98 1533 210 c 128,-1,23
 1603 322 1603 322 1609 502 c 0,24,25
 1628 891 1628 891 1464.5 1095 c 128,-1,26
 1301 1299 1301 1299 967 1299 c 0,27,28
 766 1299 766 1299 610 1199.5 c 128,-1,29
 454 1100 454 1100 364 912 c 128,-1,30
 274 724 274 724 263 478 c 0,31,32
 251 230 251 230 323 47.5 c 128,-1,33
 395 -135 395 -135 542.5 -231.5 c 128,-1,34
 690 -328 690 -328 899 -328 c 0,35,36
 989 -328 989 -328 1079.5 -306 c 128,-1,37
 1170 -284 1170 -284 1230 -249 c 1,38,-1
 1267 -364 l 1,39,40
 1205 -403 1205 -403 1102.5 -428 c 128,-1,41
 1000 -453 1000 -453 895 -453 c 0,42,43
 645 -453 645 -453 465 -340.5 c 128,-1,44
 285 -228 285 -228 195.5 -16.5 c 128,-1,45
 106 195 106 195 118 478 c 0,46,47
 130 753 130 753 241 972.5 c 128,-1,48
 352 1192 352 1192 542 1311.5 c 128,-1,49
 732 1431 732 1431 971 1431 c 0,50,51
 1220 1431 1220 1431 1398 1319 c 128,-1,52
 1576 1207 1576 1207 1663 996 c 128,-1,53
 1750 785 1750 785 1738 502 c 0,0,1
712 417 m 0,54,55
 698 275 698 275 738.5 199 c 128,-1,56
 779 123 779 123 867 123 c 0,57,58
 927 123 927 123 982.5 174 c 128,-1,59
 1038 225 1038 225 1074 320 c 1,60,-1
 1075 329 l 1,61,-1
 1121 832 l 1,62,63
 1065 861 1065 861 1001 861 c 0,64,65
 884 861 884 861 807.5 742 c 128,-1,66
 731 623 731 623 712 417 c 0,54,55
EndSplineSet
EndChar

StartChar: B
Encoding: 66 66 38
Width: 1275
GlyphClass: 2
Flags: W
LayerCount: 2
Fore
SplineSet
169 0 m 1,0,-1
 169 1456 l 1,1,-1
 645 1456 l 2,2,3
 882 1456 882 1456 1001.5 1358 c 128,-1,4
 1121 1260 1121 1260 1121 1068 c 0,5,6
 1121 966 1121 966 1063 887.5 c 128,-1,7
 1005 809 1005 809 905 766 c 1,8,9
 1023 733 1023 733 1091.5 640.5 c 128,-1,10
 1160 548 1160 548 1160 420 c 0,11,12
 1160 224 1160 224 1033 112 c 128,-1,13
 906 0 906 0 674 0 c 2,14,-1
 169 0 l 1,0,-1
361 681 m 1,15,-1
 361 157 l 1,16,-1
 678 157 l 2,17,18
 812 157 812 157 889.5 226.5 c 128,-1,19
 967 296 967 296 967 418 c 0,20,21
 967 681 967 681 681 681 c 2,22,-1
 361 681 l 1,15,-1
361 835 m 1,23,-1
 651 835 l 2,24,25
 777 835 777 835 852.5 898 c 128,-1,26
 928 961 928 961 928 1069 c 0,27,28
 928 1189 928 1189 858 1243.5 c 128,-1,29
 788 1298 788 1298 645 1298 c 2,30,-1
 361 1298 l 1,31,-1
 361 835 l 1,23,-1
EndSplineSet
Substitution2: "'c2sc' Capitals to Small Capitals lookup 0 subtable" B.c2sc
Position2: "'cpsp' Capital Spacing lookup 0 subtable" dx=36 dy=0 dh=72 dv=0
EndChar

StartChar: C
Encoding: 67 67 39
Width: 1333
GlyphClass: 2
Flags: W
LayerCount: 2
Fore
SplineSet
1240 462 m 1,0,1
 1213 231 1213 231 1069.5 105.5 c 128,-1,2
 926 -20 926 -20 688 -20 c 0,3,4
 430 -20 430 -20 274.5 165 c 128,-1,5
 119 350 119 350 119 660 c 2,6,-1
 119 800 l 2,7,8
 119 1003 119 1003 191.5 1157 c 128,-1,9
 264 1311 264 1311 397 1393.5 c 128,-1,10
 530 1476 530 1476 705 1476 c 0,11,12
 937 1476 937 1476 1077 1346.5 c 128,-1,13
 1217 1217 1217 1217 1240 988 c 1,14,-1
 1047 988 l 1,15,16
 1022 1162 1022 1162 938.5 1240 c 128,-1,17
 855 1318 855 1318 705 1318 c 0,18,19
 521 1318 521 1318 416.5 1182 c 128,-1,20
 312 1046 312 1046 312 795 c 2,21,-1
 312 654 l 2,22,23
 312 417 312 417 411 277 c 128,-1,24
 510 137 510 137 688 137 c 0,25,26
 848 137 848 137 933.5 209.5 c 128,-1,27
 1019 282 1019 282 1047 462 c 1,28,-1
 1240 462 l 1,0,1
EndSplineSet
Substitution2: "'ss06' Style Set 6 lookup 16 subtable" C.ss06
Substitution2: "'c2sc' Capitals to Small Capitals lookup 0 subtable" C.c2sc
Position2: "'cpsp' Capital Spacing lookup 0 subtable" dx=36 dy=0 dh=72 dv=0
EndChar

StartChar: D
Encoding: 68 68 40
Width: 1373
GlyphClass: 2
Flags: W
LayerCount: 2
Fore
SplineSet
199 0 m 1,0,-1
 199 666 l 1,1,-1
 7 666 l 1,2,-1
 7 817 l 1,3,-1
 199 817 l 1,4,-1
 199 1456 l 1,5,-1
 610 1456 l 2,6,7
 800 1456 800 1456 946 1372 c 128,-1,8
 1092 1288 1092 1288 1171.5 1133 c 128,-1,9
 1251 978 1251 978 1252 777 c 2,10,-1
 1252 684 l 2,11,12
 1252 478 1252 478 1172.5 323 c 128,-1,13
 1093 168 1093 168 945.5 85 c 128,-1,14
 798 2 798 2 602 0 c 2,15,-1
 199 0 l 1,0,-1
643 666 m 1,16,-1
 391 666 l 1,17,-1
 391 157 l 1,18,-1
 592 157 l 2,19,20
 814 157 814 157 937.5 294 c 128,-1,21
 1061 431 1061 431 1062 680 c 2,22,-1
 1062 773 l 2,23,24
 1062 1021 1062 1021 945.5 1158.5 c 128,-1,25
 829 1296 829 1296 615 1298 c 2,26,-1
 391 1298 l 1,27,-1
 391 817 l 1,28,-1
 643 817 l 1,29,-1
 643 666 l 1,16,-1
EndSplineSet
Substitution2: "'ss06' Style Set 6 lookup 16 subtable" D.ss06
Substitution2: "'c2sc' Capitals to Small Capitals lookup 0 subtable" D.c2sc
Position2: "'cpsp' Capital Spacing lookup 0 subtable" dx=36 dy=0 dh=72 dv=0
EndChar

StartChar: E
Encoding: 69 69 41
Width: 1164
GlyphClass: 2
Flags: W
LayerCount: 2
Fore
SplineSet
992 673 m 1,0,-1
 361 673 l 1,1,-1
 361 157 l 1,2,-1
 1094 157 l 1,3,-1
 1094 0 l 1,4,-1
 169 0 l 1,5,-1
 169 1456 l 1,6,-1
 1084 1456 l 1,7,-1
 1084 1298 l 1,8,-1
 361 1298 l 1,9,-1
 361 830 l 1,10,-1
 992 830 l 1,11,-1
 992 673 l 1,0,-1
EndSplineSet
Substitution2: "'c2sc' Capitals to Small Capitals lookup 0 subtable" E.c2sc
Position2: "'cpsp' Capital Spacing lookup 0 subtable" dx=36 dy=0 dh=72 dv=0
EndChar

StartChar: F
Encoding: 70 70 42
Width: 1132
GlyphClass: 2
Flags: W
LayerCount: 2
Fore
SplineSet
972 643 m 1,0,-1
 361 643 l 1,1,-1
 361 0 l 1,2,-1
 169 0 l 1,3,-1
 169 1456 l 1,4,-1
 1071 1456 l 1,5,-1
 1071 1298 l 1,6,-1
 361 1298 l 1,7,-1
 361 800 l 1,8,-1
 972 800 l 1,9,-1
 972 643 l 1,0,-1
EndSplineSet
Substitution2: "'c2sc' Capitals to Small Capitals lookup 0 subtable" F.c2sc
Position2: "'cpsp' Capital Spacing lookup 0 subtable" dx=36 dy=0 dh=72 dv=0
EndChar

StartChar: G
Encoding: 71 71 43
Width: 905
GlyphClass: 2
Flags: W
LayerCount: 2
Fore
SplineSet
843 0 m 1,0,-1
 62 0 l 1,1,-1
 62 152 l 1,2,-1
 843 152 l 1,3,-1
 843 0 l 1,0,-1
776 531 m 1,4,-1
 127 531 l 1,5,-1
 127 683 l 1,6,-1
 776 683 l 1,7,-1
 776 531 l 1,4,-1
843 1012 m 1,8,-1
 62 1012 l 1,9,-1
 62 1165 l 1,10,-1
 843 1165 l 1,11,-1
 843 1012 l 1,8,-1
EndSplineSet
Substitution2: "'ss06' Style Set 6 lookup 16 subtable" G.ss06
Substitution2: "'c2sc' Capitals to Small Capitals lookup 0 subtable" G.c2sc
Position2: "'cpsp' Capital Spacing lookup 0 subtable" dx=36 dy=0 dh=72 dv=0
EndChar

StartChar: H
Encoding: 72 72 44
Width: 1124
GlyphClass: 2
Flags: W
LayerCount: 2
Fore
SplineSet
986 399 m 1,0,-1
 455 399 l 1,1,-1
 313 155 l 1,2,-1
 218 214 l 1,3,-1
 326 399 l 1,4,-1
 152 399 l 1,5,-1
 152 559 l 1,6,-1
 419 559 l 1,7,-1
 568 814 l 1,8,-1
 152 814 l 1,9,-1
 152 975 l 1,10,-1
 662 975 l 1,11,-1
 815 1237 l 1,12,-1
 910 1178 l 1,13,-1
 791 975 l 1,14,-1
 986 975 l 1,15,-1
 986 814 l 1,16,-1
 697 814 l 1,17,-1
 549 559 l 1,18,-1
 986 559 l 1,19,-1
 986 399 l 1,0,-1
EndSplineSet
Substitution2: "'c2sc' Capitals to Small Capitals lookup 0 subtable" H.c2sc
Position2: "'cpsp' Capital Spacing lookup 0 subtable" dx=36 dy=0 dh=72 dv=0
EndChar

StartChar: I
Encoding: 73 73 45
Width: 1104
GlyphClass: 2
Flags: W
LayerCount: 2
Fore
SplineSet
286 304 m 0,0,1
 286 227 286 227 359.5 178 c 128,-1,2
 433 129 433 129 551 129 c 0,3,4
 664 129 664 129 741.5 184 c 128,-1,5
 819 239 819 239 819 320 c 1,6,-1
 1004 320 l 1,7,8
 1004 165 1004 165 876.5 72.5 c 128,-1,9
 749 -20 749 -20 551 -20 c 0,10,11
 347 -20 347 -20 223 68.5 c 128,-1,12
 99 157 99 157 99 304 c 0,13,14
 99 490 99 490 304 556 c 1,15,16
 216 592 216 592 167 653 c 128,-1,17
 118 714 118 714 118 787 c 0,18,19
 118 935 118 935 233.5 1018 c 128,-1,20
 349 1101 349 1101 551 1101 c 0,21,22
 737 1101 737 1101 861.5 1011.5 c 128,-1,23
 986 922 986 922 986 780 c 1,24,-1
 801 780 l 1,25,26
 801 850 801 850 729.5 900.5 c 128,-1,27
 658 951 658 951 551 951 c 0,28,29
 439 951 439 951 371.5 905.5 c 128,-1,30
 304 860 304 860 304 786 c 0,31,32
 304 626 304 626 548 626 c 2,33,-1
 744 626 l 1,34,-1
 744 478 l 1,35,-1
 520 478 l 1,36,37
 286 472 286 472 286 304 c 0,0,1
EndSplineSet
Substitution2: "'c2sc' Capitals to Small Capitals lookup 0 subtable" I.c2sc
Position2: "'cpsp' Capital Spacing lookup 0 subtable" dx=36 dy=0 dh=72 dv=0
EndChar

StartChar: L
Encoding: 76 76 48
Width: 1169
GlyphClass: 2
Flags: W
LayerCount: 2
Fore
SplineSet
1069 600 m 1,0,-1
 71 600 l 1,1,-1
 71 784 l 1,2,-1
 1069 784 l 1,3,-1
 1069 600 l 1,0,-1
461 1098 m 0,4,5
 461 1146 461 1146 489.5 1178 c 128,-1,6
 518 1210 518 1210 575 1210 c 128,-1,7
 632 1210 632 1210 661.5 1178 c 128,-1,8
 691 1146 691 1146 691 1098 c 0,9,10
 691 1051 691 1051 661.5 1020 c 128,-1,11
 632 989 632 989 575 989 c 128,-1,12
 518 989 518 989 489.5 1020 c 128,-1,13
 461 1051 461 1051 461 1098 c 0,4,5
461 281 m 0,14,15
 461 329 461 329 489.5 361 c 128,-1,16
 518 393 518 393 575 393 c 128,-1,17
 632 393 632 393 661.5 361 c 128,-1,18
 691 329 691 329 691 281 c 0,19,20
 691 235 691 235 661.5 203.5 c 128,-1,21
 632 172 632 172 575 172 c 128,-1,22
 518 172 518 172 489.5 203.5 c 128,-1,23
 461 235 461 235 461 281 c 0,14,15
EndSplineSet
Substitution2: "'c2sc' Capitals to Small Capitals lookup 0 subtable" L.c2sc
Position2: "'cpsp' Capital Spacing lookup 0 subtable" dx=36 dy=0 dh=72 dv=0
EndChar

StartChar: M
Encoding: 77 77 49
Width: 1342
GlyphClass: 2
Flags: W
LayerCount: 2
Fore
SplineSet
666 1161 m 1,0,-1
 256 0 l 1,1,-1
 50 0 l 1,2,-1
 580 1456 l 1,3,-1
 752 1456 l 1,4,-1
 1283 0 l 1,5,-1
 1076 0 l 1,6,-1
 666 1161 l 1,0,-1
EndSplineSet
Substitution2: "'c2sc' Capitals to Small Capitals lookup 0 subtable" M.c2sc
Position2: "'cpsp' Capital Spacing lookup 0 subtable" dx=36 dy=0 dh=72 dv=0
EndChar

StartChar: N
Encoding: 78 78 50
Width: 1130
GlyphClass: 2
Flags: W
LayerCount: 2
Fore
SplineSet
315 1082 m 1
 321 946 l 1
 445 1102 445 1102 645 1102 c 0
 988 1102 988 1102 991 715 c 2
 991 0 l 1
 806 0 l 1
 806 716 l 2
 805 833 805 833 752.5 889 c 0
 700 945 700 945 589 945 c 0
 499 945 499 945 431 897 c 0
 363 849 363 849 325 771 c 1
 325 0 l 1
 140 0 l 1
 140 1082 l 1
 315 1082 l 1
EndSplineSet
Refer: 159 730 S 1 0 0 1 245 11 2
Substitution2: "'c2sc' Capitals to Small Capitals lookup 0 subtable" N.c2sc
Position2: "'cpsp' Capital Spacing lookup 0 subtable" dx=36 dy=0 dh=72 dv=0
EndChar

StartChar: O
Encoding: 79 79 51
Width: 1408
GlyphClass: 2
Flags: W
LayerCount: 2
Fore
SplineSet
1289 681 m 2,0,1
 1289 467 1289 467 1217 307.5 c 128,-1,2
 1145 148 1145 148 1013 64 c 128,-1,3
 881 -20 881 -20 705 -20 c 0,4,5
 533 -20 533 -20 400 64.5 c 128,-1,6
 267 149 267 149 193.5 305.5 c 128,-1,7
 120 462 120 462 118 668 c 2,8,-1
 118 773 l 2,9,10
 118 983 118 983 191 1144 c 128,-1,11
 264 1305 264 1305 397.5 1390.5 c 128,-1,12
 531 1476 531 1476 703 1476 c 0,13,14
 878 1476 878 1476 1011.5 1391.5 c 128,-1,15
 1145 1307 1145 1307 1217 1146.5 c 128,-1,16
 1289 986 1289 986 1289 773 c 2,17,-1
 1289 681 l 2,0,1
1098 775 m 2,18,19
 1098 1034 1098 1034 994 1172.5 c 128,-1,20
 890 1311 890 1311 703 1311 c 0,21,22
 521 1311 521 1311 416.5 1172.5 c 128,-1,23
 312 1034 312 1034 309 788 c 2,24,-1
 309 681 l 2,25,26
 309 430 309 430 414.5 286.5 c 128,-1,27
 520 143 520 143 705 143 c 0,28,29
 891 143 891 143 993 278.5 c 128,-1,30
 1095 414 1095 414 1098 667 c 2,31,-1
 1098 775 l 2,18,19
EndSplineSet
Substitution2: "'ss06' Style Set 6 lookup 16 subtable" O.ss06
Substitution2: "'c2sc' Capitals to Small Capitals lookup 0 subtable" O.c2sc
Position2: "'cpsp' Capital Spacing lookup 0 subtable" dx=36 dy=0 dh=72 dv=0
EndChar

StartChar: P
Encoding: 80 80 52
Width: 1292
GlyphClass: 2
Flags: W
LayerCount: 2
Fore
SplineSet
361 570 m 1,0,-1
 361 0 l 1,1,-1
 169 0 l 1,2,-1
 169 1456 l 1,3,-1
 706 1456 l 2,4,5
 945 1456 945 1456 1080.5 1334 c 128,-1,6
 1216 1212 1216 1212 1216 1011 c 0,7,8
 1216 799 1216 799 1083.5 684.5 c 128,-1,9
 951 570 951 570 704 570 c 2,10,-1
 361 570 l 1,0,-1
361 727 m 1,11,-1
 706 727 l 2,12,13
 860 727 860 727 942 799.5 c 128,-1,14
 1024 872 1024 872 1024 1009 c 0,15,16
 1024 1139 1024 1139 942 1217 c 128,-1,17
 860 1295 860 1295 717 1298 c 2,18,-1
 361 1298 l 1,19,-1
 361 727 l 1,11,-1
EndSplineSet
Substitution2: "'c2sc' Capitals to Small Capitals lookup 0 subtable" P.c2sc
Position2: "'cpsp' Capital Spacing lookup 0 subtable" dx=36 dy=0 dh=72 dv=0
EndChar

StartChar: Q
Encoding: 81 81 53
Width: 1408
GlyphClass: 2
Flags: W
LayerCount: 2
Fore
SplineSet
1281 681 m 2,0,1
 1281 470 1281 470 1214 317.5 c 128,-1,2
 1147 165 1147 165 1026 79 c 1,3,-1
 1286 -125 l 1,4,-1
 1155 -246 l 1,5,-1
 848 -2 l 1,6,7
 776 -20 776 -20 696 -20 c 0,8,9
 524 -20 524 -20 391 64.5 c 128,-1,10
 258 149 258 149 184.5 305.5 c 128,-1,11
 111 462 111 462 109 668 c 2,12,-1
 109 773 l 2,13,14
 109 983 109 983 182 1144 c 128,-1,15
 255 1305 255 1305 388.5 1390.5 c 128,-1,16
 522 1476 522 1476 694 1476 c 0,17,18
 870 1476 870 1476 1003.5 1391 c 128,-1,19
 1137 1306 1137 1306 1209 1146.5 c 128,-1,20
 1281 987 1281 987 1281 774 c 2,21,-1
 1281 681 l 2,0,1
1089 775 m 2,22,23
 1089 1032 1089 1032 986.5 1171.5 c 128,-1,24
 884 1311 884 1311 694 1311 c 0,25,26
 513 1311 513 1311 408.5 1172.5 c 128,-1,27
 304 1034 304 1034 301 788 c 2,28,-1
 301 681 l 2,29,30
 301 431 301 431 405.5 287 c 128,-1,31
 510 143 510 143 696 143 c 128,-1,32
 882 143 882 143 984 278.5 c 128,-1,33
 1086 414 1086 414 1089 667 c 2,34,-1
 1089 775 l 2,22,23
EndSplineSet
Substitution2: "'ss06' Style Set 6 lookup 16 subtable" Q.ss06
Substitution2: "'c2sc' Capitals to Small Capitals lookup 0 subtable" Q.c2sc
Position2: "'cpsp' Capital Spacing lookup 0 subtable" dx=36 dy=0 dh=72 dv=0
EndChar

StartChar: R
Encoding: 82 82 54
Width: 1261
GlyphClass: 2
Flags: W
LayerCount: 2
Fore
SplineSet
703 589 m 1,0,-1
 361 589 l 1,1,-1
 361 0 l 1,2,-1
 168 0 l 1,3,-1
 168 1456 l 1,4,-1
 650 1456 l 2,5,6
 896 1456 896 1456 1028.5 1344 c 128,-1,7
 1161 1232 1161 1232 1161 1018 c 0,8,9
 1161 882 1161 882 1087.5 781 c 128,-1,10
 1014 680 1014 680 883 630 c 1,11,-1
 1225 12 l 1,12,-1
 1225 0 l 1,13,-1
 1019 0 l 1,14,-1
 703 589 l 1,0,-1
361 746 m 1,15,-1
 656 746 l 2,16,17
 799 746 799 746 883.5 820 c 128,-1,18
 968 894 968 894 968 1018 c 0,19,20
 968 1153 968 1153 887.5 1225 c 128,-1,21
 807 1297 807 1297 655 1298 c 2,22,-1
 361 1298 l 1,23,-1
 361 746 l 1,15,-1
EndSplineSet
Substitution2: "'ss03' Style Set 3 lookup 13 subtable" R.ss03
Substitution2: "'c2sc' Capitals to Small Capitals lookup 0 subtable" R.c2sc
Position2: "'cpsp' Capital Spacing lookup 0 subtable" dx=36 dy=0 dh=72 dv=0
EndChar

StartChar: S
Encoding: 83 83 55
Width: 1199
GlyphClass: 2
Flags: W
LayerCount: 2
Fore
SplineSet
875 577 m 1,0,-1
 294 -117 l 1,1,-1
 1195 -117 l 1,2,-1
 1195 -269 l 1,3,-1
 69 -269 l 1,4,-1
 69 -126 l 1,5,-1
 678 590 l 1,6,-1
 69 1312 l 1,7,-1
 69 1456 l 1,8,-1
 1118 1456 l 1,9,-1
 1118 1304 l 1,10,-1
 293 1304 l 1,11,-1
 875 602 l 1,12,-1
 875 577 l 1,0,-1
EndSplineSet
Substitution2: "'c2sc' Capitals to Small Capitals lookup 0 subtable" S.c2sc
Position2: "'cpsp' Capital Spacing lookup 0 subtable" dx=36 dy=0 dh=72 dv=0
EndChar

StartChar: T
Encoding: 84 84 56
Width: 1221
GlyphClass: 2
Flags: W
LayerCount: 2
Fore
SplineSet
560 284 m 1,0,-1
 987 1456 l 1,1,-1
 1176 1456 l 1,2,-1
 634 0 l 1,3,-1
 493 0 l 1,4,-1
 248 628 l 1,5,-1
 63 628 l 1,6,-1
 63 782 l 1,7,-1
 378 782 l 1,8,-1
 560 284 l 1,0,-1
EndSplineSet
Substitution2: "'c2sc' Capitals to Small Capitals lookup 0 subtable" T.c2sc
Position2: "'cpsp' Capital Spacing lookup 0 subtable" dx=36 dy=0 dh=72 dv=0
EndChar

StartChar: U
Encoding: 85 85 57
Width: 1328
GlyphClass: 2
Flags: W
LayerCount: 2
Fore
SplineSet
1194 1456 m 1,0,-1
 1194 466 l 2,1,2
 1193 260 1193 260 1064.5 129 c 128,-1,3
 936 -2 936 -2 716 -18 c 1,4,-1
 665 -20 l 1,5,6
 426 -20 426 -20 284 109 c 128,-1,7
 142 238 142 238 140 464 c 2,8,-1
 140 1456 l 1,9,-1
 330 1456 l 1,10,-1
 330 470 l 2,11,12
 330 312 330 312 417 224.5 c 128,-1,13
 504 137 504 137 665 137 c 0,14,15
 828 137 828 137 914.5 224 c 128,-1,16
 1001 311 1001 311 1001 469 c 2,17,-1
 1001 1456 l 1,18,-1
 1194 1456 l 1,0,-1
EndSplineSet
Substitution2: "'c2sc' Capitals to Small Capitals lookup 0 subtable" U.c2sc
Position2: "'cpsp' Capital Spacing lookup 0 subtable" dx=36 dy=0 dh=72 dv=0
EndChar

StartChar: V
Encoding: 86 86 58
Width: 1303
GlyphClass: 2
Flags: W
LayerCount: 2
Fore
SplineSet
651 255 m 1,0,-1
 1067 1456 l 1,1,-1
 1277 1456 l 1,2,-1
 737 0 l 1,3,-1
 567 0 l 1,4,-1
 28 1456 l 1,5,-1
 237 1456 l 1,6,-1
 651 255 l 1,0,-1
EndSplineSet
Substitution2: "'c2sc' Capitals to Small Capitals lookup 0 subtable" V.c2sc
Position2: "'cpsp' Capital Spacing lookup 0 subtable" dx=36 dy=0 dh=72 dv=0
EndChar

StartChar: W
Encoding: 87 87 59
Width: 1817
GlyphClass: 2
Flags: W
LayerCount: 2
Fore
SplineSet
483 459 m 1,0,-1
 511 267 l 1,1,-1
 552 440 l 1,2,-1
 840 1456 l 1,3,-1
 1002 1456 l 1,4,-1
 1283 440 l 1,5,-1
 1323 264 l 1,6,-1
 1354 460 l 1,7,-1
 1580 1456 l 1,8,-1
 1773 1456 l 1,9,-1
 1420 0 l 1,10,-1
 1245 0 l 1,11,-1
 945 1061 l 1,12,-1
 922 1172 l 1,13,-1
 899 1061 l 1,14,-1
 588 0 l 1,15,-1
 413 0 l 1,16,-1
 61 1456 l 1,17,-1
 253 1456 l 1,18,-1
 483 459 l 1,0,-1
EndSplineSet
Substitution2: "'c2sc' Capitals to Small Capitals lookup 0 subtable" W.c2sc
Position2: "'cpsp' Capital Spacing lookup 0 subtable" dx=36 dy=0 dh=72 dv=0
EndChar

StartChar: X
Encoding: 88 88 60
Width: 1092
GlyphClass: 2
Flags: W
LayerCount: 2
Fore
SplineSet
89 329 m 1,0,-1
 419 665 l 1,1,-1
 91 1000 l 1,2,-1
 210 1123 l 1,3,-1
 539 788 l 1,4,-1
 868 1123 l 1,5,-1
 987 1000 l 1,6,-1
 659 665 l 1,7,-1
 989 329 l 1,8,-1
 870 206 l 1,9,-1
 539 543 l 1,10,-1
 208 206 l 1,11,-1
 89 329 l 1,0,-1
EndSplineSet
Substitution2: "'c2sc' Capitals to Small Capitals lookup 0 subtable" X.c2sc
Position2: "'cpsp' Capital Spacing lookup 0 subtable" dx=36 dy=0 dh=72 dv=0
EndChar

StartChar: Y
Encoding: 89 89 61
Width: 1230
GlyphClass: 2
Flags: W
LayerCount: 2
Fore
SplineSet
613 725 m 1,0,-1
 993 1456 l 1,1,-1
 1211 1456 l 1,2,-1
 709 543 l 1,3,-1
 709 0 l 1,4,-1
 517 0 l 1,5,-1
 517 543 l 1,6,-1
 15 1456 l 1,7,-1
 235 1456 l 1,8,-1
 613 725 l 1,0,-1
EndSplineSet
Substitution2: "'c2sc' Capitals to Small Capitals lookup 0 subtable" Y.c2sc
Position2: "'cpsp' Capital Spacing lookup 0 subtable" dx=36 dy=0 dh=72 dv=0
EndChar

StartChar: Z
Encoding: 90 90 62
Width: 1226
GlyphClass: 2
Flags: W
LayerCount: 2
Fore
SplineSet
313 157 m 1,0,-1
 1146 157 l 1,1,-1
 1146 0 l 1,2,-1
 86 0 l 1,3,-1
 86 144 l 1,4,-1
 884 1298 l 1,5,-1
 99 1298 l 1,6,-1
 99 1456 l 1,7,-1
 1114 1456 l 1,8,-1
 1114 1315 l 1,9,-1
 313 157 l 1,0,-1
EndSplineSet
Substitution2: "'c2sc' Capitals to Small Capitals lookup 0 subtable" Z.c2sc
Position2: "'cpsp' Capital Spacing lookup 0 subtable" dx=36 dy=0 dh=72 dv=0
EndChar

StartChar: bracketleft
Encoding: 91 91 63
Width: 543
Flags: W
LayerCount: 2
Fore
SplineSet
523 1512 m 1,0,-1
 332 1512 l 1,1,-1
 332 -160 l 1,2,-1
 523 -160 l 1,3,-1
 523 -312 l 1,4,-1
 146 -312 l 1,5,-1
 146 1664 l 1,6,-1
 523 1664 l 1,7,-1
 523 1512 l 1,0,-1
EndSplineSet
EndChar

StartChar: backslash
Encoding: 92 92 64
Width: 840
Flags: W
LayerCount: 2
Fore
SplineSet
40 1456 m 1,0,-1
 216 1456 l 1,1,-1
 824 -125 l 1,2,-1
 648 -125 l 1,3,-1
 40 1456 l 1,0,-1
EndSplineSet
EndChar

StartChar: bracketright
Encoding: 93 93 65
Width: 543
Flags: W
LayerCount: 2
Fore
SplineSet
9 1664 m 1,0,-1
 387 1664 l 1,1,-1
 387 -312 l 1,2,-1
 9 -312 l 1,3,-1
 9 -160 l 1,4,-1
 202 -160 l 1,5,-1
 202 1512 l 1,6,-1
 9 1512 l 1,7,-1
 9 1664 l 1,0,-1
EndSplineSet
EndChar

StartChar: asciicircum
Encoding: 94 94 66
Width: 856
Flags: W
LayerCount: 2
Fore
SplineSet
426 1211 m 1,0,-1
 236 729 l 1,1,-1
 64 729 l 1,2,-1
 363 1456 l 1,3,-1
 490 1456 l 1,4,-1
 788 729 l 1,5,-1
 617 729 l 1,6,-1
 426 1211 l 1,0,-1
EndSplineSet
EndChar

StartChar: underscore
Encoding: 95 95 67
Width: 924
Flags: W
LayerCount: 2
Fore
SplineSet
920 -151 m 1,0,-1
 4 -151 l 1,1,-1
 4 0 l 1,2,-1
 920 0 l 1,3,-1
 920 -151 l 1,0,-1
EndSplineSet
EndChar

StartChar: grave
Encoding: 96 96 68
Width: 633
Flags: W
LayerCount: 2
Fore
SplineSet
474 1242 m 1,0,-1
 315 1242 l 1,1,-1
 57 1536 l 1,2,-1
 280 1536 l 1,3,-1
 474 1242 l 1,0,-1
EndSplineSet
EndChar

StartChar: a
Encoding: 97 97 69
Width: 1114
GlyphClass: 2
Flags: W
LayerCount: 2
Fore
SplineSet
808 0 m 1,0,1
 792 32 792 32 782 114 c 1,2,3
 653 -20 653 -20 474 -20 c 0,4,5
 314 -20 314 -20 211.5 70.5 c 128,-1,6
 109 161 109 161 109 300 c 0,7,8
 109 469 109 469 237.5 562.5 c 128,-1,9
 366 656 366 656 599 656 c 2,10,-1
 779 656 l 1,11,-1
 779 741 l 2,12,13
 779 838 779 838 721 895.5 c 128,-1,14
 663 953 663 953 550 953 c 0,15,16
 451 953 451 953 384 903 c 128,-1,17
 317 853 317 853 317 782 c 1,18,-1
 131 782 l 1,19,20
 131 863 131 863 188.5 938.5 c 128,-1,21
 246 1014 246 1014 344.5 1058 c 128,-1,22
 443 1102 443 1102 561 1102 c 0,23,24
 748 1102 748 1102 854 1008.5 c 128,-1,25
 960 915 960 915 964 751 c 1,26,-1
 964 253 l 2,27,28
 964 104 964 104 1002 16 c 1,29,-1
 1002 0 l 1,30,-1
 808 0 l 1,0,1
501 141 m 0,31,32
 588 141 588 141 666 186 c 128,-1,33
 744 231 744 231 779 303 c 1,34,-1
 779 525 l 1,35,-1
 634 525 l 2,36,37
 294 525 294 525 294 326 c 0,38,39
 294 239 294 239 352 190 c 128,-1,40
 410 141 410 141 501 141 c 0,31,32
EndSplineSet
Substitution2: "'smcp' Lowercase to Small Capitals lookup 1 subtable" A.c2sc
EndChar

StartChar: b
Encoding: 98 98 70
Width: 1149
GlyphClass: 2
Flags: W
LayerCount: 2
Fore
SplineSet
1056 529 m 2,0,1
 1056 281 1056 281 942 130.5 c 128,-1,2
 828 -20 828 -20 636 -20 c 0,3,4
 431 -20 431 -20 319 125 c 1,5,-1
 310 0 l 1,6,-1
 140 0 l 1,7,-1
 140 1536 l 1,8,-1
 325 1536 l 1,9,-1
 325 963 l 1,10,11
 437 1102 437 1102 634 1102 c 128,-1,12
 831 1102 831 1102 943.5 953 c 128,-1,13
 1056 804 1056 804 1056 545 c 2,14,-1
 1056 529 l 2,0,1
871 550 m 0,15,16
 871 739 871 739 798 842 c 128,-1,17
 725 945 725 945 588 945 c 0,18,19
 405 945 405 945 325 775 c 1,20,-1
 325 307 l 1,21,22
 410 137 410 137 590 137 c 0,23,24
 723 137 723 137 797 240 c 128,-1,25
 871 343 871 343 871 550 c 0,15,16
EndSplineSet
Substitution2: "'ss06' Style Set 6 lookup 16 subtable" b.ss06
Substitution2: "'smcp' Lowercase to Small Capitals lookup 1 subtable" B.c2sc
EndChar

StartChar: c
Encoding: 99 99 71
Width: 1072
GlyphClass: 2
Flags: W
LayerCount: 2
Fore
SplineSet
574 131 m 0,0,1
 673 131 673 131 747 191 c 128,-1,2
 821 251 821 251 829 341 c 1,3,-1
 1004 341 l 1,4,5
 999 248 999 248 940 164 c 128,-1,6
 881 80 881 80 782.5 30 c 128,-1,7
 684 -20 684 -20 574 -20 c 0,8,9
 353 -20 353 -20 222.5 127.5 c 128,-1,10
 92 275 92 275 92 531 c 2,11,-1
 92 562 l 2,12,13
 92 720 92 720 150 843 c 128,-1,14
 208 966 208 966 316.5 1034 c 128,-1,15
 425 1102 425 1102 573 1102 c 0,16,17
 755 1102 755 1102 875.5 993 c 128,-1,18
 996 884 996 884 1004 710 c 1,19,-1
 829 710 l 1,20,21
 821 815 821 815 749.5 882.5 c 128,-1,22
 678 950 678 950 573 950 c 0,23,24
 432 950 432 950 354.5 848.5 c 128,-1,25
 277 747 277 747 277 555 c 2,26,-1
 277 520 l 2,27,28
 277 333 277 333 354 232 c 128,-1,29
 431 131 431 131 574 131 c 0,0,1
EndSplineSet
Substitution2: "'ss06' Style Set 6 lookup 16 subtable" c.ss06
Substitution2: "'smcp' Lowercase to Small Capitals lookup 1 subtable" C.c2sc
EndChar

StartChar: d
Encoding: 100 100 72
Width: 1155
GlyphClass: 2
Flags: W
LayerCount: 2
Fore
SplineSet
95 550 m 2,0,1
 95 799 95 799 213 950.5 c 128,-1,2
 331 1102 331 1102 522 1102 c 0,3,4
 712 1102 712 1102 823 972 c 1,5,-1
 823 1536 l 1,6,-1
 1008 1536 l 1,7,-1
 1008 0 l 1,8,-1
 838 0 l 1,9,-1
 829 116 l 1,10,11
 718 -20 718 -20 520 -20 c 0,12,13
 332 -20 332 -20 213.5 134 c 128,-1,14
 95 288 95 288 95 536 c 2,15,-1
 95 550 l 2,0,1
280 529 m 0,16,17
 280 345 280 345 356 241 c 128,-1,18
 432 137 432 137 566 137 c 0,19,20
 742 137 742 137 823 295 c 1,21,-1
 823 792 l 1,22,23
 740 945 740 945 568 945 c 0,24,25
 432 945 432 945 356 840 c 128,-1,26
 280 735 280 735 280 529 c 0,16,17
EndSplineSet
Substitution2: "'ss06' Style Set 6 lookup 16 subtable" d.ss06
Substitution2: "'smcp' Lowercase to Small Capitals lookup 1 subtable" D.c2sc
EndChar

StartChar: e
Encoding: 101 101 73
Width: 1085
GlyphClass: 2
Flags: W
LayerCount: 2
Fore
SplineSet
589 -20 m 0,0,1
 369 -20 369 -20 231 124.5 c 128,-1,2
 93 269 93 269 93 511 c 2,3,-1
 93 545 l 2,4,5
 93 706 93 706 154.5 832.5 c 128,-1,6
 216 959 216 959 326.5 1030.5 c 128,-1,7
 437 1102 437 1102 566 1102 c 0,8,9
 777 1102 777 1102 894 963 c 128,-1,10
 1011 824 1011 824 1011 565 c 2,11,-1
 1011 488 l 1,12,-1
 278 488 l 1,13,14
 282 328 282 328 371.5 229.5 c 128,-1,15
 461 131 461 131 599 131 c 0,16,17
 697 131 697 131 765 171 c 128,-1,18
 833 211 833 211 884 277 c 1,19,-1
 997 189 l 1,20,21
 861 -20 861 -20 589 -20 c 0,0,1
566 950 m 0,22,23
 454 950 454 950 378 868.5 c 128,-1,24
 302 787 302 787 284 640 c 1,25,-1
 826 640 l 1,26,-1
 826 654 l 1,27,28
 818 795 818 795 750 872.5 c 128,-1,29
 682 950 682 950 566 950 c 0,22,23
EndSplineSet
Substitution2: "'ss07' Style Set 7 lookup 17 subtable" e.ss07
Substitution2: "'smcp' Lowercase to Small Capitals lookup 1 subtable" E.c2sc
EndChar

StartChar: f
Encoding: 102 102 74
Width: 711
GlyphClass: 2
Flags: W
LayerCount: 2
Fore
SplineSet
231 0 m 1,0,-1
 231 939 l 1,1,-1
 60 939 l 1,2,-1
 60 1082 l 1,3,-1
 231 1082 l 1,4,-1
 231 1193 l 2,5,6
 231 1367 231 1367 324 1462 c 128,-1,7
 417 1557 417 1557 587 1557 c 0,8,9
 651 1557 651 1557 714 1540 c 1,10,-1
 704 1390 l 1,11,12
 657 1399 657 1399 604 1399 c 0,13,14
 514 1399 514 1399 465 1346.5 c 128,-1,15
 416 1294 416 1294 416 1196 c 2,16,-1
 416 1082 l 1,17,-1
 647 1082 l 1,18,-1
 647 939 l 1,19,-1
 416 939 l 1,20,-1
 416 0 l 1,21,-1
 231 0 l 1,0,-1
EndSplineSet
Substitution2: "'smcp' Lowercase to Small Capitals lookup 1 subtable" F.c2sc
EndChar

StartChar: g
Encoding: 103 103 75
Width: 1149
GlyphClass: 2
Flags: W
LayerCount: 2
Fore
SplineSet
96 550 m 0,0,1
 96 803 96 803 213 952.5 c 128,-1,2
 330 1102 330 1102 523 1102 c 0,3,4
 721 1102 721 1102 832 962 c 1,5,-1
 841 1082 l 1,6,-1
 1010 1082 l 1,7,-1
 1010 26 l 2,8,9
 1010 -184 1010 -184 885.5 -305 c 128,-1,10
 761 -426 761 -426 551 -426 c 0,11,12
 434 -426 434 -426 322 -376 c 128,-1,13
 210 -326 210 -326 151 -239 c 1,14,-1
 247 -128 l 1,15,16
 366 -275 366 -275 538 -275 c 0,17,18
 673 -275 673 -275 748.5 -199 c 128,-1,19
 824 -123 824 -123 824 15 c 2,20,-1
 824 108 l 1,21,22
 713 -20 713 -20 521 -20 c 0,23,24
 331 -20 331 -20 213.5 133 c 128,-1,25
 96 286 96 286 96 550 c 0,0,1
282 529 m 0,26,27
 282 346 282 346 357 241.5 c 128,-1,28
 432 137 432 137 567 137 c 0,29,30
 742 137 742 137 824 296 c 1,31,-1
 824 790 l 1,32,33
 739 945 739 945 569 945 c 0,34,35
 434 945 434 945 358 840 c 128,-1,36
 282 735 282 735 282 529 c 0,26,27
EndSplineSet
Substitution2: "'ss07' Style Set 7 lookup 17 subtable" g.ss07
Substitution2: "'ss06' Style Set 6 lookup 16 subtable" g.ss06
Substitution2: "'ss01' Style Set 1 lookup 11 subtable" g.ss01
Substitution2: "'smcp' Lowercase to Small Capitals lookup 1 subtable" G.c2sc
EndChar

StartChar: h
Encoding: 104 104 76
Width: 1128
GlyphClass: 2
Flags: W
LayerCount: 2
Fore
SplineSet
325 951 m 1,0,1
 448 1102 448 1102 645 1102 c 0,2,3
 988 1102 988 1102 991 715 c 2,4,-1
 991 0 l 1,5,-1
 806 0 l 1,6,-1
 806 716 l 2,7,8
 805 833 805 833 752.5 889 c 128,-1,9
 700 945 700 945 589 945 c 0,10,11
 499 945 499 945 431 897 c 128,-1,12
 363 849 363 849 325 771 c 1,13,-1
 325 0 l 1,14,-1
 140 0 l 1,15,-1
 140 1536 l 1,16,-1
 325 1536 l 1,17,-1
 325 951 l 1,0,1
EndSplineSet
Substitution2: "'smcp' Lowercase to Small Capitals lookup 1 subtable" H.c2sc
EndChar

StartChar: i
Encoding: 105 105 77
Width: 497
GlyphClass: 2
Flags: W
LayerCount: 2
Fore
SplineSet
341 0 m 1,0,-1
 156 0 l 1,1,-1
 156 1082 l 1,2,-1
 341 1082 l 1,3,-1
 341 0 l 1,0,-1
141 1369 m 256,4,5
 141 1414 141 1414 168.5 1445 c 128,-1,6
 196 1476 196 1476 250 1476 c 128,-1,7
 304 1476 304 1476 332 1445 c 128,-1,8
 360 1414 360 1414 360 1369 c 128,-1,9
 360 1324 360 1324 332 1294 c 128,-1,10
 304 1264 304 1264 250 1264 c 128,-1,11
 196 1264 196 1264 168.5 1294 c 128,-1,12
 141 1324 141 1324 141 1369 c 256,4,5
EndSplineSet
Substitution2: "Single Substitution lookup 3 subtable" glyph609
Substitution2: "'smcp' Lowercase to Small Capitals lookup 1 subtable" I.c2sc
EndChar

StartChar: j
Encoding: 106 106 78
Width: 489
GlyphClass: 2
Flags: W
LayerCount: 2
Fore
SplineSet
331 1082 m 1,0,-1
 331 -125 l 2,1,2
 331 -437 331 -437 48 -437 c 0,3,4
 -13 -437 -13 -437 -65 -419 c 1,5,-1
 -65 -271 l 1,6,7
 -33 -279 -33 -279 19 -279 c 0,8,9
 81 -279 81 -279 113.5 -245.5 c 128,-1,10
 146 -212 146 -212 146 -129 c 2,11,-1
 146 1082 l 1,12,-1
 331 1082 l 1,0,-1
127 1369 m 0,13,14
 127 1413 127 1413 154.5 1444.5 c 128,-1,15
 182 1476 182 1476 235 1476 c 0,16,17
 289 1476 289 1476 317 1445 c 128,-1,18
 345 1414 345 1414 345 1369 c 128,-1,19
 345 1324 345 1324 317 1294 c 128,-1,20
 289 1264 289 1264 235 1264 c 128,-1,21
 181 1264 181 1264 154 1294 c 128,-1,22
 127 1324 127 1324 127 1369 c 0,13,14
EndSplineSet
Substitution2: "Single Substitution lookup 3 subtable" glyph607
Substitution2: "'smcp' Lowercase to Small Capitals lookup 1 subtable" J.c2sc
EndChar

StartChar: k
Encoding: 107 107 79
Width: 1038
GlyphClass: 2
Flags: W
LayerCount: 2
Fore
SplineSet
442 501 m 1,0,-1
 326 380 l 1,1,-1
 326 0 l 1,2,-1
 141 0 l 1,3,-1
 141 1536 l 1,4,-1
 326 1536 l 1,5,-1
 326 607 l 1,6,-1
 425 726 l 1,7,-1
 762 1082 l 1,8,-1
 987 1082 l 1,9,-1
 566 630 l 1,10,-1
 1036 0 l 1,11,-1
 819 0 l 1,12,-1
 442 501 l 1,0,-1
EndSplineSet
Substitution2: "'ss05' Style Set 5 lookup 15 subtable" k.ss05
Substitution2: "'ss04' Style Set 4 lookup 14 subtable" k.ss04
Substitution2: "'smcp' Lowercase to Small Capitals lookup 1 subtable" K.c2sc
EndChar

StartChar: l
Encoding: 108 108 80
Width: 497
GlyphClass: 2
Flags: W
LayerCount: 2
Fore
SplineSet
341 0 m 1,0,-1
 156 0 l 1,1,-1
 156 1536 l 1,2,-1
 341 1536 l 1,3,-1
 341 0 l 1,0,-1
EndSplineSet
Substitution2: "'smcp' Lowercase to Small Capitals lookup 1 subtable" L.c2sc
EndChar

StartChar: m
Encoding: 109 109 81
Width: 1795
GlyphClass: 2
Flags: W
LayerCount: 2
Fore
SplineSet
314 1082 m 1,0,-1
 319 962 l 1,1,2
 438 1102 438 1102 640 1102 c 0,3,4
 867 1102 867 1102 949 928 c 1,5,6
 1003 1006 1003 1006 1089.5 1054 c 128,-1,7
 1176 1102 1176 1102 1294 1102 c 0,8,9
 1650 1102 1650 1102 1656 725 c 1,10,-1
 1656 0 l 1,11,-1
 1471 0 l 1,12,-1
 1471 714 l 2,13,14
 1471 830 1471 830 1418 887.5 c 128,-1,15
 1365 945 1365 945 1240 945 c 0,16,17
 1137 945 1137 945 1069 883.5 c 128,-1,18
 1001 822 1001 822 990 718 c 1,19,-1
 990 0 l 1,20,-1
 804 0 l 1,21,-1
 804 709 l 2,22,23
 804 945 804 945 573 945 c 0,24,25
 391 945 391 945 324 790 c 1,26,-1
 324 0 l 1,27,-1
 139 0 l 1,28,-1
 139 1082 l 1,29,-1
 314 1082 l 1,0,-1
EndSplineSet
Substitution2: "'smcp' Lowercase to Small Capitals lookup 1 subtable" M.c2sc
EndChar

StartChar: n
Encoding: 110 110 82
Width: 1130
GlyphClass: 2
Flags: W
LayerCount: 2
Fore
SplineSet
315 1082 m 1,0,-1
 321 946 l 1,1,2
 445 1102 445 1102 645 1102 c 0,3,4
 988 1102 988 1102 991 715 c 2,5,-1
 991 0 l 1,6,-1
 806 0 l 1,7,-1
 806 716 l 2,8,9
 805 833 805 833 752.5 889 c 128,-1,10
 700 945 700 945 589 945 c 0,11,12
 499 945 499 945 431 897 c 128,-1,13
 363 849 363 849 325 771 c 1,14,-1
 325 0 l 1,15,-1
 140 0 l 1,16,-1
 140 1082 l 1,17,-1
 315 1082 l 1,0,-1
EndSplineSet
Substitution2: "'smcp' Lowercase to Small Capitals lookup 1 subtable" N.c2sc
EndChar

StartChar: o
Encoding: 111 111 83
Width: 1168
GlyphClass: 2
Flags: W
LayerCount: 2
Fore
SplineSet
91 551 m 2,0,1
 91 710 91 710 153.5 837 c 128,-1,2
 216 964 216 964 327.5 1033 c 128,-1,3
 439 1102 439 1102 582 1102 c 0,4,5
 803 1102 803 1102 939.5 949 c 128,-1,6
 1076 796 1076 796 1076 542 c 2,7,-1
 1076 529 l 2,8,9
 1076 371 1076 371 1015.5 245.5 c 128,-1,10
 955 120 955 120 842.5 50 c 128,-1,11
 730 -20 730 -20 584 -20 c 0,12,13
 364 -20 364 -20 227.5 133 c 128,-1,14
 91 286 91 286 91 538 c 2,15,-1
 91 551 l 2,0,1
277 529 m 0,16,17
 277 349 277 349 360.5 240 c 128,-1,18
 444 131 444 131 584 131 c 0,19,20
 725 131 725 131 808 241.5 c 128,-1,21
 891 352 891 352 891 551 c 0,22,23
 891 729 891 729 806.5 839.5 c 128,-1,24
 722 950 722 950 582 950 c 0,25,26
 445 950 445 950 361 841 c 128,-1,27
 277 732 277 732 277 529 c 0,16,17
EndSplineSet
Substitution2: "'ss06' Style Set 6 lookup 16 subtable" o.ss06
Substitution2: "'smcp' Lowercase to Small Capitals lookup 1 subtable" O.c2sc
EndChar

StartChar: p
Encoding: 112 112 84
Width: 1149
GlyphClass: 2
Flags: W
LayerCount: 2
Fore
SplineSet
1054 529 m 2,0,1
 1054 282 1054 282 941 131 c 128,-1,2
 828 -20 828 -20 635 -20 c 0,3,4
 438 -20 438 -20 325 105 c 1,5,-1
 325 -416 l 1,6,-1
 140 -416 l 1,7,-1
 140 1082 l 1,8,-1
 309 1082 l 1,9,-1
 318 962 l 1,10,11
 431 1102 431 1102 632 1102 c 0,12,13
 827 1102 827 1102 940.5 955 c 128,-1,14
 1054 808 1054 808 1054 546 c 2,15,-1
 1054 529 l 2,0,1
869 550 m 0,16,17
 869 733 869 733 791 839 c 128,-1,18
 713 945 713 945 577 945 c 0,19,20
 409 945 409 945 325 796 c 1,21,-1
 325 279 l 1,22,23
 408 131 408 131 579 131 c 0,24,25
 712 131 712 131 790.5 236.5 c 128,-1,26
 869 342 869 342 869 550 c 0,16,17
EndSplineSet
Substitution2: "'ss06' Style Set 6 lookup 16 subtable" p.ss06
Substitution2: "'smcp' Lowercase to Small Capitals lookup 1 subtable" P.c2sc
EndChar

StartChar: q
Encoding: 113 113 85
Width: 1164
GlyphClass: 2
Flags: W
LayerCount: 2
Fore
SplineSet
95 550 m 2,0,1
 95 805 95 805 212 953.5 c 128,-1,2
 329 1102 329 1102 526 1102 c 0,3,4
 718 1102 718 1102 829 973 c 1,5,-1
 837 1082 l 1,6,-1
 1007 1082 l 1,7,-1
 1007 -416 l 1,8,-1
 822 -416 l 1,9,-1
 822 100 l 1,10,11
 710 -20 710 -20 524 -20 c 0,12,13
 328 -20 328 -20 211.5 132.5 c 128,-1,14
 95 285 95 285 95 537 c 2,15,-1
 95 550 l 2,0,1
280 529 m 0,16,17
 280 343 280 343 358.5 237 c 128,-1,18
 437 131 437 131 570 131 c 0,19,20
 735 131 735 131 822 277 c 1,21,-1
 822 807 l 1,22,23
 734 950 734 950 572 950 c 0,24,25
 438 950 438 950 359 843.5 c 128,-1,26
 280 737 280 737 280 529 c 0,16,17
EndSplineSet
Substitution2: "'ss06' Style Set 6 lookup 16 subtable" q.ss06
Substitution2: "'smcp' Lowercase to Small Capitals lookup 1 subtable" Q.c2sc
EndChar

StartChar: r
Encoding: 114 114 86
Width: 693
GlyphClass: 2
Flags: W
LayerCount: 2
Fore
SplineSet
663 916 m 1,0,1
 621 923 621 923 572 923 c 0,2,3
 390 923 390 923 325 768 c 1,4,-1
 325 0 l 1,5,-1
 140 0 l 1,6,-1
 140 1082 l 1,7,-1
 320 1082 l 1,8,-1
 323 957 l 1,9,10
 414 1102 414 1102 581 1102 c 0,11,12
 635 1102 635 1102 663 1088 c 1,13,-1
 663 916 l 1,0,1
EndSplineSet
Substitution2: "'smcp' Lowercase to Small Capitals lookup 1 subtable" R.c2sc
EndChar

StartChar: s
Encoding: 115 115 87
Width: 1056
GlyphClass: 2
Flags: W
LayerCount: 2
Fore
SplineSet
770 287 m 0,0,1
 770 362 770 362 713.5 403.5 c 128,-1,2
 657 445 657 445 516.5 475 c 128,-1,3
 376 505 376 505 293.5 547 c 128,-1,4
 211 589 211 589 171.5 647 c 128,-1,5
 132 705 132 705 132 785 c 0,6,7
 132 918 132 918 244.5 1010 c 128,-1,8
 357 1102 357 1102 532 1102 c 0,9,10
 716 1102 716 1102 830.5 1007 c 128,-1,11
 945 912 945 912 945 764 c 1,12,-1
 759 764 l 1,13,14
 759 840 759 840 694.5 895 c 128,-1,15
 630 950 630 950 532 950 c 0,16,17
 431 950 431 950 374 906 c 128,-1,18
 317 862 317 862 317 791 c 0,19,20
 317 724 317 724 370 690 c 128,-1,21
 423 656 423 656 561.5 625 c 128,-1,22
 700 594 700 594 786 551 c 128,-1,23
 872 508 872 508 913.5 447.5 c 128,-1,24
 955 387 955 387 955 300 c 0,25,26
 955 155 955 155 839 67.5 c 128,-1,27
 723 -20 723 -20 538 -20 c 0,28,29
 408 -20 408 -20 308 26 c 128,-1,30
 208 72 208 72 151.5 154.5 c 128,-1,31
 95 237 95 237 95 333 c 1,32,-1
 280 333 l 1,33,34
 285 240 285 240 354.5 185.5 c 128,-1,35
 424 131 424 131 538 131 c 0,36,37
 643 131 643 131 706.5 173.5 c 128,-1,38
 770 216 770 216 770 287 c 0,0,1
EndSplineSet
Substitution2: "'smcp' Lowercase to Small Capitals lookup 1 subtable" S.c2sc
EndChar

StartChar: t
Encoding: 116 116 88
Width: 669
GlyphClass: 2
Flags: W
LayerCount: 2
Fore
SplineSet
391 1344 m 1,0,-1
 391 1082 l 1,1,-1
 593 1082 l 1,2,-1
 593 939 l 1,3,-1
 391 939 l 1,4,-1
 391 268 l 2,5,6
 391 203 391 203 418 170.5 c 128,-1,7
 445 138 445 138 510 138 c 0,8,9
 542 138 542 138 598 150 c 1,10,-1
 598 0 l 1,11,12
 525 -20 525 -20 456 -20 c 0,13,14
 332 -20 332 -20 269 55 c 128,-1,15
 206 130 206 130 206 268 c 2,16,-1
 206 939 l 1,17,-1
 9 939 l 1,18,-1
 9 1082 l 1,19,-1
 206 1082 l 1,20,-1
 206 1344 l 1,21,-1
 391 1344 l 1,0,-1
EndSplineSet
Substitution2: "'smcp' Lowercase to Small Capitals lookup 1 subtable" T.c2sc
EndChar

StartChar: u
Encoding: 117 117 89
Width: 1129
GlyphClass: 2
Flags: W
LayerCount: 2
Fore
SplineSet
808 107 m 1,0,1
 700 -20 700 -20 491 -20 c 0,2,3
 318 -20 318 -20 227.5 80.5 c 128,-1,4
 137 181 137 181 136 378 c 2,5,-1
 136 1082 l 1,6,-1
 321 1082 l 1,7,-1
 321 383 l 2,8,9
 321 137 321 137 521 137 c 0,10,11
 733 137 733 137 803 295 c 1,12,-1
 803 1082 l 1,13,-1
 988 1082 l 1,14,-1
 988 0 l 1,15,-1
 812 0 l 1,16,-1
 808 107 l 1,0,1
EndSplineSet
Substitution2: "'smcp' Lowercase to Small Capitals lookup 1 subtable" U.c2sc
EndChar

StartChar: v
Encoding: 118 118 90
Width: 992
GlyphClass: 2
Flags: W
LayerCount: 2
Fore
SplineSet
497 251 m 1,0,-1
 765 1082 l 1,1,-1
 954 1082 l 1,2,-1
 566 0 l 1,3,-1
 425 0 l 1,4,-1
 33 1082 l 1,5,-1
 222 1082 l 1,6,-1
 497 251 l 1,0,-1
EndSplineSet
Substitution2: "'smcp' Lowercase to Small Capitals lookup 1 subtable" V.c2sc
EndChar

StartChar: w
Encoding: 119 119 91
Width: 1539
GlyphClass: 2
Flags: W
LayerCount: 2
Fore
SplineSet
1098 255 m 1,0,-1
 1306 1082 l 1,1,-1
 1491 1082 l 1,2,-1
 1176 0 l 1,3,-1
 1026 0 l 1,4,-1
 763 820 l 1,5,-1
 507 0 l 1,6,-1
 357 0 l 1,7,-1
 43 1082 l 1,8,-1
 227 1082 l 1,9,-1
 440 272 l 1,10,-1
 692 1082 l 1,11,-1
 841 1082 l 1,12,-1
 1098 255 l 1,0,-1
EndSplineSet
Substitution2: "'smcp' Lowercase to Small Capitals lookup 1 subtable" W.c2sc
EndChar

StartChar: x
Encoding: 120 120 92
Width: 1015
GlyphClass: 2
Flags: W
LayerCount: 2
Fore
SplineSet
503 687 m 1,0,-1
 743 1082 l 1,1,-1
 959 1082 l 1,2,-1
 605 547 l 1,3,-1
 970 0 l 1,4,-1
 756 0 l 1,5,-1
 506 405 l 1,6,-1
 256 0 l 1,7,-1
 41 0 l 1,8,-1
 406 547 l 1,9,-1
 52 1082 l 1,10,-1
 266 1082 l 1,11,-1
 503 687 l 1,0,-1
EndSplineSet
Substitution2: "'smcp' Lowercase to Small Capitals lookup 1 subtable" X.c2sc
EndChar

StartChar: y
Encoding: 121 121 93
Width: 969
GlyphClass: 2
Flags: W
LayerCount: 2
Fore
SplineSet
494 271 m 1,0,-1
 746 1082 l 1,1,-1
 944 1082 l 1,2,-1
 509 -167 l 1,3,4
 408 -437 408 -437 188 -437 c 1,5,-1
 153 -434 l 1,6,-1
 84 -421 l 1,7,-1
 84 -271 l 1,8,-1
 134 -275 l 1,9,10
 228 -275 228 -275 280.5 -237 c 128,-1,11
 333 -199 333 -199 367 -98 c 2,12,-1
 408 12 l 1,13,-1
 22 1082 l 1,14,-1
 224 1082 l 1,15,-1
 494 271 l 1,0,-1
EndSplineSet
Substitution2: "'smcp' Lowercase to Small Capitals lookup 1 subtable" Y.c2sc
EndChar

StartChar: z
Encoding: 122 122 94
Width: 1015
GlyphClass: 2
Flags: W
LayerCount: 2
Fore
SplineSet
314 151 m 1,0,-1
 947 151 l 1,1,-1
 947 0 l 1,2,-1
 88 0 l 1,3,-1
 88 136 l 1,4,-1
 685 929 l 1,5,-1
 97 929 l 1,6,-1
 97 1082 l 1,7,-1
 917 1082 l 1,8,-1
 917 951 l 1,9,-1
 314 151 l 1,0,-1
EndSplineSet
Substitution2: "'smcp' Lowercase to Small Capitals lookup 1 subtable" Z.c2sc
EndChar

StartChar: braceleft
Encoding: 123 123 95
Width: 693
Flags: W
LayerCount: 2
Fore
SplineSet
632 -366 m 1,0,1
 455 -316 455 -316 365.5 -201.5 c 128,-1,2
 276 -87 276 -87 276 101 c 2,3,-1
 276 300 l 2,4,5
 276 543 276 543 64 543 c 1,6,-1
 64 688 l 1,7,8
 276 688 276 688 276 930 c 2,9,-1
 276 1138 l 2,10,11
 278 1321 278 1321 365.5 1433.5 c 128,-1,12
 453 1546 453 1546 632 1597 c 1,13,-1
 670 1482 l 1,14,15
 461 1415 461 1415 461 1133 c 2,16,-1
 461 931 l 2,17,18
 461 704 461 704 294 615 c 1,19,20
 461 525 461 525 461 296 c 2,21,-1
 461 90 l 2,22,23
 464 -185 464 -185 670 -251 c 1,24,-1
 632 -366 l 1,0,1
EndSplineSet
EndChar

StartChar: bar
Encoding: 124 124 96
Width: 499
Flags: W
LayerCount: 2
Fore
SplineSet
324 -270 m 1,0,-1
 175 -270 l 1,1,-1
 175 1456 l 1,2,-1
 324 1456 l 1,3,-1
 324 -270 l 1,0,-1
EndSplineSet
EndChar

StartChar: braceright
Encoding: 125 125 97
Width: 693
Flags: W
LayerCount: 2
Fore
SplineSet
19 -251 m 1,0,1
 222 -186 222 -186 229 80 c 1,2,-1
 229 300 l 2,3,4
 229 531 229 531 410 615 c 1,5,6
 229 697 229 697 229 930 c 2,7,-1
 229 1133 l 2,8,9
 229 1415 229 1415 20 1482 c 1,10,-1
 58 1597 l 1,11,12
 235 1547 235 1547 324 1434.5 c 128,-1,13
 413 1322 413 1322 414 1137 c 2,14,-1
 414 927 l 2,15,16
 414 688 414 688 626 688 c 1,17,-1
 626 543 l 1,18,19
 414 543 414 543 414 300 c 2,20,-1
 414 98 l 2,21,22
 414 -90 414 -90 323.5 -203 c 128,-1,23
 233 -316 233 -316 58 -366 c 1,24,-1
 19 -251 l 1,0,1
EndSplineSet
EndChar

StartChar: asciitilde
Encoding: 126 126 98
Width: 1393
Flags: W
LayerCount: 2
Fore
SplineSet
1263 777 m 1,0,1
 1263 619 1263 619 1169.5 510.5 c 128,-1,2
 1076 402 1076 402 939 402 c 0,3,4
 867 402 867 402 803 428.5 c 128,-1,5
 739 455 739 455 654.5 529 c 128,-1,6
 570 603 570 603 533 621 c 128,-1,7
 496 639 496 639 454 639 c 0,8,9
 376 639 376 639 334 585.5 c 128,-1,10
 292 532 292 532 292 438 c 1,11,-1
 131 436 l 1,12,13
 131 596 131 596 223 699 c 128,-1,14
 315 802 315 802 454 802 c 0,15,16
 530 802 530 802 600 770 c 128,-1,17
 670 738 670 738 758 657.5 c 128,-1,18
 846 577 846 577 910 567 c 1,19,-1
 939 565 l 1,20,21
 1015 565 1015 565 1062.5 623 c 128,-1,22
 1110 681 1110 681 1110 776 c 1,23,-1
 1263 777 l 1,0,1
EndSplineSet
EndChar

StartChar: exclamdown
Encoding: 161 161 99
Width: 499
Flags: W
LayerCount: 2
Fore
SplineSet
170 684 m 1,0,-1
 338 684 l 1,1,-1
 351 -360 l 1,2,-1
 157 -360 l 1,3,-1
 170 684 l 1,0,-1
358 996 m 256,4,5
 358 951 358 951 330.5 920 c 128,-1,6
 303 889 303 889 249 889 c 128,-1,7
 195 889 195 889 167 920 c 128,-1,8
 139 951 139 951 139 996 c 128,-1,9
 139 1041 139 1041 167 1071 c 128,-1,10
 195 1101 195 1101 249 1101 c 128,-1,11
 303 1101 303 1101 330.5 1071 c 128,-1,12
 358 1041 358 1041 358 996 c 256,4,5
EndSplineSet
EndChar

StartChar: cent
Encoding: 162 162 100
Width: 1120
Flags: W
LayerCount: 2
Fore
SplineSet
586 131 m 0,0,1
 686 131 686 131 760 191.5 c 128,-1,2
 834 252 834 252 842 341 c 1,3,-1
 1017 341 l 1,4,5
 1011 215 1011 215 912 114.5 c 128,-1,6
 813 14 813 14 669 -12 c 1,7,-1
 669 -245 l 1,8,-1
 484 -245 l 1,9,-1
 484 -11 l 1,10,11
 305 23 305 23 205 165 c 128,-1,12
 105 307 105 307 105 527 c 2,13,-1
 105 562 l 2,14,15
 105 774 105 774 206 916.5 c 128,-1,16
 307 1059 307 1059 484 1092 c 1,17,-1
 484 1318 l 1,18,-1
 669 1318 l 1,19,-1
 669 1095 l 1,20,21
 819 1072 819 1072 915 966 c 128,-1,22
 1011 860 1011 860 1017 710 c 1,23,-1
 842 710 l 1,24,25
 834 815 834 815 762.5 882.5 c 128,-1,26
 691 950 691 950 586 950 c 0,27,28
 445 950 445 950 367.5 848.5 c 128,-1,29
 290 747 290 747 290 555 c 2,30,-1
 290 520 l 2,31,32
 290 333 290 333 367.5 232 c 128,-1,33
 445 131 445 131 586 131 c 0,0,1
EndSplineSet
EndChar

StartChar: sterling
Encoding: 163 163 101
Width: 1190
Flags: W
LayerCount: 2
Fore
SplineSet
449 622 m 1,0,-1
 457 402 l 1,1,2
 457 248 457 248 395 157 c 1,3,-1
 1128 157 l 1,4,-1
 1127 0 l 1,5,-1
 95 0 l 1,6,-1
 95 157 l 1,7,-1
 172 157 l 1,8,9
 212 166 212 166 237 231.5 c 128,-1,10
 262 297 262 297 264 393 c 2,11,-1
 264 401 l 1,12,-1
 256 622 l 1,13,-1
 91 622 l 1,14,-1
 91 779 l 1,15,-1
 251 779 l 1,16,-1
 242 1039 l 1,17,18
 242 1238 242 1238 364.5 1357 c 128,-1,19
 487 1476 487 1476 687 1476 c 0,20,21
 877 1476 877 1476 988 1370 c 128,-1,22
 1099 1264 1099 1264 1099 1087 c 1,23,-1
 908 1087 l 1,24,25
 908 1194 908 1194 844.5 1256 c 128,-1,26
 781 1318 781 1318 670 1318 c 0,27,28
 565 1318 565 1318 500 1241 c 128,-1,29
 435 1164 435 1164 435 1039 c 1,30,-1
 444 779 l 1,31,-1
 763 779 l 1,32,-1
 763 622 l 1,33,-1
 449 622 l 1,0,-1
EndSplineSet
Substitution2: "'c2sc' Capitals to Small Capitals lookup 0 subtable" sterling.c2sc
Position2: "'cpsp' Capital Spacing lookup 0 subtable" dx=36 dy=0 dh=72 dv=0
EndChar

StartChar: currency
Encoding: 164 164 102
Width: 1460
Flags: W
LayerCount: 2
Fore
SplineSet
1103 112 m 1,0,1
 944 -20 944 -20 735 -20 c 0,2,3
 528 -20 528 -20 369 110 c 1,4,-1
 235 -26 l 1,5,-1
 105 109 l 1,6,-1
 244 250 l 1,7,8
 140 406 140 406 140 608 c 0,9,10
 140 814 140 814 252 977 c 1,11,-1
 105 1128 l 1,12,-1
 235 1264 l 1,13,-1
 382 1114 l 1,14,15
 540 1234 540 1234 735 1234 c 0,16,17
 931 1234 931 1234 1090 1113 c 1,18,-1
 1239 1265 l 1,19,-1
 1371 1128 l 1,20,-1
 1220 974 l 1,21,22
 1330 811 1330 811 1330 608 c 0,23,24
 1330 412 1330 412 1228 253 c 1,25,-1
 1371 109 l 1,26,-1
 1239 -27 l 1,27,-1
 1103 112 l 1,0,1
311 608 m 0,28,29
 311 485 311 485 368.5 379 c 128,-1,30
 426 273 426 273 524 212 c 128,-1,31
 622 151 622 151 735 151 c 128,-1,32
 848 151 848 151 946 212.5 c 128,-1,33
 1044 274 1044 274 1100.5 379.5 c 128,-1,34
 1157 485 1157 485 1157 608 c 0,35,36
 1157 730 1157 730 1100.5 835.5 c 128,-1,37
 1044 941 1044 941 945.5 1001.5 c 128,-1,38
 847 1062 847 1062 735 1062 c 0,39,40
 622 1062 622 1062 524 1002 c 128,-1,41
 426 942 426 942 368.5 836 c 128,-1,42
 311 730 311 730 311 608 c 0,28,29
EndSplineSet
EndChar

StartChar: yen
Encoding: 165 165 103
Width: 1075
Flags: W
LayerCount: 2
Fore
SplineSet
539 793 m 1,0,-1
 847 1456 l 1,1,-1
 1060 1456 l 1,2,-1
 693 736 l 1,3,-1
 954 736 l 1,4,-1
 954 611 l 1,5,-1
 630 611 l 1,6,-1
 630 446 l 1,7,-1
 954 446 l 1,8,-1
 954 322 l 1,9,-1
 630 322 l 1,10,-1
 630 0 l 1,11,-1
 437 0 l 1,12,-1
 437 322 l 1,13,-1
 119 322 l 1,14,-1
 119 446 l 1,15,-1
 437 446 l 1,16,-1
 437 611 l 1,17,-1
 119 611 l 1,18,-1
 119 736 l 1,19,-1
 382 736 l 1,20,-1
 15 1456 l 1,21,-1
 231 1456 l 1,22,-1
 539 793 l 1,0,-1
EndSplineSet
Substitution2: "'c2sc' Capitals to Small Capitals lookup 0 subtable" yen.c2sc
Position2: "'cpsp' Capital Spacing lookup 0 subtable" dx=36 dy=0 dh=72 dv=0
EndChar

StartChar: brokenbar
Encoding: 166 166 104
Width: 491
Flags: W
LayerCount: 2
Fore
SplineSet
147 -270 m 1,0,-1
 147 521 l 1,1,-1
 333 521 l 1,2,-1
 333 -270 l 1,3,-1
 147 -270 l 1,0,-1
333 698 m 1,4,-1
 147 698 l 1,5,-1
 147 1456 l 1,6,-1
 333 1456 l 1,7,-1
 333 698 l 1,4,-1
EndSplineSet
EndChar

StartChar: section
Encoding: 167 167 105
Width: 1256
Flags: W
LayerCount: 2
Fore
SplineSet
1145 431 m 0,0,1
 1145 242 1145 242 959 157 c 1,2,3
 1028 108 1028 108 1064 40 c 128,-1,4
 1100 -28 1100 -28 1100 -128 c 0,5,6
 1100 -296 1100 -296 970 -395.5 c 128,-1,7
 840 -495 840 -495 612 -495 c 0,8,9
 500 -495 500 -495 399.5 -467 c 128,-1,10
 299 -439 299 -439 229 -382 c 0,11,12
 90 -269 90 -269 90 -64 c 1,13,-1
 276 -62 l 1,14,15
 276 -192 276 -192 366 -267.5 c 128,-1,16
 456 -343 456 -343 612 -343 c 0,17,18
 748 -343 748 -343 831 -284.5 c 128,-1,19
 914 -226 914 -226 914 -130 c 0,20,21
 914 -41 914 -41 843 11.5 c 128,-1,22
 772 64 772 64 563 126 c 1,23,24
 381 174 381 174 285 229.5 c 128,-1,25
 189 285 189 285 142.5 362.5 c 128,-1,26
 96 440 96 440 96 551 c 0,27,28
 96 737 96 737 278 825 c 1,29,30
 212 874 212 874 176.5 942 c 128,-1,31
 141 1010 141 1010 141 1110 c 0,32,33
 141 1276 141 1276 274.5 1376 c 128,-1,34
 408 1476 408 1476 630 1476 c 0,35,36
 862 1476 862 1476 992 1363 c 128,-1,37
 1122 1250 1122 1250 1122 1045 c 1,38,-1
 937 1045 l 1,39,40
 937 1170 937 1170 853 1247.5 c 128,-1,41
 769 1325 769 1325 630 1325 c 0,42,43
 488 1325 488 1325 407.5 1267.5 c 128,-1,44
 327 1210 327 1210 327 1112 c 0,45,46
 327 1043 327 1043 355 1003 c 128,-1,47
 383 963 383 963 450.5 930.5 c 128,-1,48
 518 898 518 898 661.5 858 c 128,-1,49
 805 818 805 818 889.5 782 c 128,-1,50
 974 746 974 746 1030.5 697.5 c 128,-1,51
 1087 649 1087 649 1116 584.5 c 128,-1,52
 1145 520 1145 520 1145 431 c 0,0,1
602 691 m 0,53,54
 512 715 512 715 437 742 c 1,55,56
 357 723 357 723 319.5 672.5 c 128,-1,57
 282 622 282 622 282 553 c 0,58,59
 282 483 282 483 309 443 c 128,-1,60
 336 403 336 403 402.5 370 c 128,-1,61
 469 337 469 337 611 296 c 128,-1,62
 753 255 753 255 797 238 c 1,63,64
 875 258 875 258 917 308.5 c 128,-1,65
 959 359 959 359 959 428 c 0,66,67
 959 516 959 516 889.5 570.5 c 128,-1,68
 820 625 820 625 602 691 c 0,53,54
EndSplineSet
EndChar

StartChar: dieresis
Encoding: 168 168 106
Width: 856
Flags: W
LayerCount: 2
Fore
SplineSet
101 1371 m 256,0,1
 101 1416 101 1416 128.5 1446.5 c 128,-1,2
 156 1477 156 1477 210 1477 c 128,-1,3
 264 1477 264 1477 292 1446.5 c 128,-1,4
 320 1416 320 1416 320 1371 c 128,-1,5
 320 1326 320 1326 292 1296 c 128,-1,6
 264 1266 264 1266 210 1266 c 128,-1,7
 156 1266 156 1266 128.5 1296 c 128,-1,8
 101 1326 101 1326 101 1371 c 256,0,1
531 1369 m 256,9,10
 531 1414 531 1414 558.5 1445 c 128,-1,11
 586 1476 586 1476 640 1476 c 128,-1,12
 694 1476 694 1476 722 1445 c 128,-1,13
 750 1414 750 1414 750 1369 c 128,-1,14
 750 1324 750 1324 722 1294 c 128,-1,15
 694 1264 694 1264 640 1264 c 128,-1,16
 586 1264 586 1264 558.5 1294 c 128,-1,17
 531 1324 531 1324 531 1369 c 256,9,10
EndSplineSet
EndChar

StartChar: copyright
Encoding: 169 169 107
Width: 1609
Flags: W
LayerCount: 2
Fore
SplineSet
1119 597 m 1,0,1
 1119 444 1119 444 1032.5 363.5 c 128,-1,2
 946 283 946 283 788 283 c 0,3,4
 631 283 631 283 536.5 388.5 c 128,-1,5
 442 494 442 494 442 676 c 2,6,-1
 442 786 l 2,7,8
 442 962 442 962 537.5 1067.5 c 128,-1,9
 633 1173 633 1173 788 1173 c 0,10,11
 948 1173 948 1173 1034 1091 c 128,-1,12
 1120 1009 1120 1009 1120 860 c 1,13,-1
 974 860 l 1,14,15
 974 959 974 959 926.5 1001.5 c 128,-1,16
 879 1044 879 1044 788 1044 c 0,17,18
 694 1044 694 1044 640 975 c 128,-1,19
 586 906 586 906 586 783 c 2,20,-1
 586 670 l 2,21,22
 586 550 586 550 640 481 c 128,-1,23
 694 412 694 412 788 412 c 0,24,25
 880 412 880 412 926.5 454 c 128,-1,26
 973 496 973 496 973 597 c 1,27,-1
 1119 597 l 1,0,1
206 729 m 0,28,29
 206 557 206 557 286 410.5 c 128,-1,30
 366 264 366 264 503.5 181 c 128,-1,31
 641 98 641 98 801 98 c 128,-1,32
 961 98 961 98 1098 181 c 128,-1,33
 1235 264 1235 264 1315 410.5 c 128,-1,34
 1395 557 1395 557 1395 729 c 0,35,36
 1395 899 1395 899 1316 1044 c 128,-1,37
 1237 1189 1237 1189 1099.5 1272.5 c 128,-1,38
 962 1356 962 1356 801 1356 c 0,39,40
 641 1356 641 1356 503 1273.5 c 128,-1,41
 365 1191 365 1191 285.5 1045 c 128,-1,42
 206 899 206 899 206 729 c 0,28,29
91 729 m 0,43,44
 91 931 91 931 184.5 1104 c 128,-1,45
 278 1277 278 1277 443.5 1376.5 c 128,-1,46
 609 1476 609 1476 801 1476 c 128,-1,47
 993 1476 993 1476 1158 1376.5 c 128,-1,48
 1323 1277 1323 1277 1416.5 1104 c 128,-1,49
 1510 931 1510 931 1510 729 c 0,50,51
 1510 532 1510 532 1420 360 c 128,-1,52
 1330 188 1330 188 1164.5 83.5 c 128,-1,53
 999 -21 999 -21 801 -21 c 0,54,55
 604 -21 604 -21 438.5 82.5 c 128,-1,56
 273 186 273 186 182 358 c 128,-1,57
 91 530 91 530 91 729 c 0,43,44
EndSplineSet
EndChar

StartChar: ordfeminine
Encoding: 170 170 108
Width: 915
Flags: W
LayerCount: 2
Fore
SplineSet
618 705 m 1,0,1
 606 739 606 739 600 777 c 1,2,3
 524 691 524 691 396 691 c 0,4,5
 277 691 277 691 212 753 c 128,-1,6
 147 815 147 815 147 918 c 0,7,8
 147 1029 147 1029 230.5 1089 c 128,-1,9
 314 1149 314 1149 486 1149 c 2,10,-1
 594 1149 l 1,11,-1
 594 1201 l 2,12,13
 594 1336 594 1336 470 1336 c 0,14,15
 401 1336 401 1336 361.5 1309 c 128,-1,16
 322 1282 322 1282 322 1231 c 1,17,-1
 161 1243 l 1,18,19
 161 1346 161 1346 247 1411 c 128,-1,20
 333 1476 333 1476 470 1476 c 0,21,22
 603 1476 603 1476 680 1404.5 c 128,-1,23
 757 1333 757 1333 757 1199 c 2,24,-1
 757 883 l 2,25,26
 757 786 757 786 783 705 c 1,27,-1
 618 705 l 1,0,1
435 828 m 0,28,29
 478 828 478 828 522 848 c 128,-1,30
 566 868 566 868 594 895 c 1,31,-1
 594 1037 l 1,32,-1
 482 1037 l 2,33,34
 399 1036 399 1036 354.5 1004.5 c 128,-1,35
 310 973 310 973 310 922 c 0,36,37
 310 828 310 828 435 828 c 0,28,29
EndSplineSet
EndChar

StartChar: logicalnot
Encoding: 172 172 110
Width: 1134
Flags: W
LayerCount: 2
Fore
SplineSet
958 375 m 1,0,-1
 772 375 l 1,1,-1
 772 639 l 1,2,-1
 127 639 l 1,3,-1
 127 800 l 1,4,-1
 958 800 l 1,5,-1
 958 375 l 1,0,-1
EndSplineSet
EndChar

StartChar: registered
Encoding: 174 174 111
Width: 1610
Flags: W
LayerCount: 2
Fore
SplineSet
90 729 m 0,0,1
 90 931 90 931 183.5 1104 c 128,-1,2
 277 1277 277 1277 442.5 1376.5 c 128,-1,3
 608 1476 608 1476 800 1476 c 128,-1,4
 992 1476 992 1476 1157 1376.5 c 128,-1,5
 1322 1277 1322 1277 1415.5 1104 c 128,-1,6
 1509 931 1509 931 1509 729 c 0,7,8
 1509 532 1509 532 1419 360 c 128,-1,9
 1329 188 1329 188 1163.5 83.5 c 128,-1,10
 998 -21 998 -21 800 -21 c 0,11,12
 603 -21 603 -21 437.5 82.5 c 128,-1,13
 272 186 272 186 181 358 c 128,-1,14
 90 530 90 530 90 729 c 0,0,1
205 729 m 0,15,16
 205 557 205 557 285 410.5 c 128,-1,17
 365 264 365 264 502.5 181 c 128,-1,18
 640 98 640 98 800 98 c 0,19,20
 961 98 961 98 1099 182.5 c 128,-1,21
 1237 267 1237 267 1315.5 412 c 128,-1,22
 1394 557 1394 557 1394 729 c 0,23,24
 1394 900 1394 900 1315.5 1044.5 c 128,-1,25
 1237 1189 1237 1189 1099 1272.5 c 128,-1,26
 961 1356 961 1356 800 1356 c 0,27,28
 640 1356 640 1356 502 1273.5 c 128,-1,29
 364 1191 364 1191 284.5 1045 c 128,-1,30
 205 899 205 899 205 729 c 0,15,16
653 654 m 1,31,-1
 653 316 l 1,32,-1
 512 316 l 1,33,-1
 512 1165 l 1,34,-1
 788 1165 l 2,35,36
 941 1165 941 1165 1025.5 1099.5 c 128,-1,37
 1110 1034 1110 1034 1110 909 c 0,38,39
 1110 786 1110 786 982 721 c 1,40,41
 1104 671 1104 671 1105 517 c 2,42,-1
 1105 456 l 2,43,44
 1105 370 1105 370 1122 332 c 1,45,-1
 1122 316 l 1,46,-1
 977 316 l 1,47,48
 963 352 963 352 963 444.5 c 128,-1,49
 963 537 963 537 960 554 c 0,50,51
 944 650 944 650 829 654 c 1,52,-1
 653 654 l 1,31,-1
653 782 m 1,53,-1
 809 782 l 2,54,55
 881 784 881 784 925 817 c 128,-1,56
 969 850 969 850 969 904 c 0,57,58
 969 977 969 977 930 1007.5 c 128,-1,59
 891 1038 891 1038 791 1038 c 2,60,-1
 653 1038 l 1,61,-1
 653 782 l 1,53,-1
EndSplineSet
EndChar

StartChar: macron
Encoding: 175 175 112
Width: 938
Flags: W
LayerCount: 2
Fore
SplineSet
814 1302 m 1,0,-1
 142 1302 l 1,1,-1
 142 1445 l 1,2,-1
 814 1445 l 1,3,-1
 814 1302 l 1,0,-1
EndSplineSet
EndChar

StartChar: degree
Encoding: 176 176 113
Width: 765
Flags: W
LayerCount: 2
Fore
SplineSet
130 1216 m 0,0,1
 130 1320 130 1320 204.5 1398 c 128,-1,2
 279 1476 279 1476 385 1476 c 0,3,4
 489 1476 489 1476 562.5 1398.5 c 128,-1,5
 636 1321 636 1321 636 1216 c 0,6,7
 636 1110 636 1110 562.5 1035 c 128,-1,8
 489 960 489 960 385 960 c 0,9,10
 280 960 280 960 205 1035 c 128,-1,11
 130 1110 130 1110 130 1216 c 0,0,1
385 1088 m 0,12,13
 439 1088 439 1088 476 1123.5 c 128,-1,14
 513 1159 513 1159 513 1216 c 0,15,16
 513 1274 513 1274 476 1311.5 c 128,-1,17
 439 1349 439 1349 385 1349 c 0,18,19
 330 1349 330 1349 292.5 1309.5 c 128,-1,20
 255 1270 255 1270 255 1216 c 128,-1,21
 255 1162 255 1162 292.5 1125 c 128,-1,22
 330 1088 330 1088 385 1088 c 0,12,13
EndSplineSet
EndChar

StartChar: plusminus
Encoding: 177 177 114
Width: 1094
Flags: W
LayerCount: 2
Fore
SplineSet
649 854 m 1,0,-1
 1013 854 l 1,1,-1
 1013 703 l 1,2,-1
 649 703 l 1,3,-1
 649 289 l 1,4,-1
 482 289 l 1,5,-1
 482 703 l 1,6,-1
 97 703 l 1,7,-1
 97 854 l 1,8,-1
 482 854 l 1,9,-1
 482 1267 l 1,10,-1
 649 1267 l 1,11,-1
 649 854 l 1,0,-1
970 0 m 1,12,-1
 135 0 l 1,13,-1
 135 152 l 1,14,-1
 970 152 l 1,15,-1
 970 0 l 1,12,-1
EndSplineSet
EndChar

StartChar: uni00B2
Encoding: 178 178 115
Width: 751
Flags: W
LayerCount: 2
Fore
SplineSet
683 667 m 1,0,-1
 84 667 l 1,1,-1
 84 775 l 1,2,-1
 384 1057 l 2,3,4
 493 1159 493 1159 493 1228 c 0,5,6
 493 1277 493 1277 461 1307.5 c 128,-1,7
 429 1338 429 1338 369 1338 c 0,8,9
 294 1338 294 1338 258.5 1300 c 128,-1,10
 223 1262 223 1262 223 1205 c 1,11,-1
 66 1205 l 1,12,13
 66 1319 66 1319 149.5 1393 c 128,-1,14
 233 1467 233 1467 365 1467 c 128,-1,15
 497 1467 497 1467 574 1403.5 c 128,-1,16
 651 1340 651 1340 651 1230 c 0,17,18
 651 1126 651 1126 544 1019 c 1,19,-1
 460 940 l 1,20,-1
 284 795 l 1,21,-1
 683 795 l 1,22,-1
 683 667 l 1,0,-1
EndSplineSet
EndChar

StartChar: uni00B3
Encoding: 179 179 116
Width: 751
Flags: W
LayerCount: 2
Fore
SplineSet
265 1126 m 1,0,-1
 349 1126 l 2,1,2
 423 1126 423 1126 459 1156.5 c 128,-1,3
 495 1187 495 1187 495 1235 c 0,4,5
 495 1280 495 1280 463.5 1309 c 128,-1,6
 432 1338 432 1338 362 1338 c 0,7,8
 305 1338 305 1338 267.5 1312.5 c 128,-1,9
 230 1287 230 1287 230 1246 c 1,10,-1
 73 1246 l 1,11,12
 73 1344 73 1344 154.5 1405.5 c 128,-1,13
 236 1467 236 1467 360 1467 c 0,14,15
 497 1467 497 1467 575 1406.5 c 128,-1,16
 653 1346 653 1346 653 1242 c 0,17,18
 653 1187 653 1187 618 1141.5 c 128,-1,19
 583 1096 583 1096 517 1071 c 1,20,21
 666 1030 666 1030 666 887 c 0,22,23
 666 781 666 781 581 718.5 c 128,-1,24
 496 656 496 656 360 656 c 0,25,26
 228 656 228 656 145 719 c 128,-1,27
 62 782 62 782 62 889 c 1,28,-1
 220 889 l 1,29,30
 220 844 220 844 259.5 814 c 128,-1,31
 299 784 299 784 366 784 c 0,32,33
 436 784 436 784 472.5 814 c 128,-1,34
 509 844 509 844 509 895 c 0,35,36
 509 1008 509 1008 353 1010 c 2,37,-1
 265 1010 l 1,38,-1
 265 1126 l 1,0,-1
EndSplineSet
EndChar

StartChar: acute
Encoding: 180 180 117
Width: 642
Flags: W
LayerCount: 2
Fore
SplineSet
316 1536 m 1,0,-1
 540 1536 l 1,1,-1
 272 1242 l 1,2,-1
 123 1242 l 1,3,-1
 316 1536 l 1,0,-1
EndSplineSet
EndChar

StartChar: mu
Encoding: 181 181 118
Width: 1160
Flags: W
LayerCount: 2
Fore
SplineSet
339 1082 m 1,0,-1
 339 449 l 2,1,2
 340 286 340 286 391.5 208 c 128,-1,3
 443 130 443 130 559 130 c 0,4,5
 758 130 758 130 820 282 c 1,6,-1
 820 1082 l 1,7,-1
 1006 1082 l 1,8,-1
 1006 0 l 1,9,-1
 839 0 l 1,10,-1
 830 115 l 1,11,12
 737 -20 737 -20 567 -20 c 0,13,14
 420 -20 420 -20 339 53 c 1,15,-1
 339 -416 l 1,16,-1
 154 -416 l 1,17,-1
 154 1082 l 1,18,-1
 339 1082 l 1,0,-1
EndSplineSet
EndChar

StartChar: paragraph
Encoding: 182 182 119
Width: 1001
Flags: W
LayerCount: 2
Fore
SplineSet
646 0 m 1,0,-1
 646 520 l 1,1,-1
 562 520 l 2,2,3
 332 520 332 520 199.5 647 c 128,-1,4
 67 774 67 774 67 988 c 0,5,6
 67 1201 67 1201 200 1328.5 c 128,-1,7
 333 1456 333 1456 563 1456 c 2,8,-1
 832 1456 l 1,9,-1
 832 0 l 1,10,-1
 646 0 l 1,0,-1
EndSplineSet
EndChar

StartChar: periodcentered
Encoding: 183 183 120
Width: 534
Flags: W
LayerCount: 2
Fore
SplineSet
147 729 m 0,0,1
 147 777 147 777 175.5 809 c 128,-1,2
 204 841 204 841 261 841 c 128,-1,3
 318 841 318 841 347.5 809 c 128,-1,4
 377 777 377 777 377 729 c 0,5,6
 377 682 377 682 347.5 650.5 c 128,-1,7
 318 619 318 619 261 619 c 128,-1,8
 204 619 204 619 175.5 650.5 c 128,-1,9
 147 682 147 682 147 729 c 0,0,1
EndSplineSet
EndChar

StartChar: cedilla
Encoding: 184 184 121
Width: 507
GlyphClass: 2
Flags: W
LayerCount: 2
Fore
SplineSet
285 0 m 1,0,-1
 273 -52 l 1,1,2
 426 -79 426 -79 426 -225 c 0,3,4
 426 -322 426 -322 346 -378.5 c 128,-1,5
 266 -435 266 -435 123 -435 c 1,6,-1
 116 -328 l 1,7,8
 195 -328 195 -328 238.5 -302 c 128,-1,9
 282 -276 282 -276 282 -229 c 0,10,11
 282 -185 282 -185 250 -164 c 128,-1,12
 218 -143 218 -143 120 -134 c 1,13,-1
 152 0 l 1,14,-1
 285 0 l 1,0,-1
EndSplineSet
EndChar

StartChar: uni00B9
Encoding: 185 185 122
Width: 751
Flags: W
LayerCount: 2
Fore
SplineSet
495 667 m 1,0,-1
 338 667 l 1,1,-1
 338 1268 l 1,2,-1
 122 1211 l 1,3,-1
 122 1339 l 1,4,-1
 477 1456 l 1,5,-1
 495 1456 l 1,6,-1
 495 667 l 1,0,-1
EndSplineSet
EndChar

StartChar: ordmasculine
Encoding: 186 186 123
Width: 931
Flags: W
LayerCount: 2
Fore
SplineSet
122 1123 m 2,0,1
 122 1281 122 1281 216 1378.5 c 128,-1,2
 310 1476 310 1476 464 1476 c 0,3,4
 619 1476 619 1476 713 1379.5 c 128,-1,5
 807 1283 807 1283 807 1117 c 2,6,-1
 807 1043 l 2,7,8
 807 884 807 884 713.5 787 c 128,-1,9
 620 690 620 690 466 690 c 128,-1,10
 312 690 312 690 217 787 c 128,-1,11
 122 884 122 884 122 1049 c 2,12,-1
 122 1123 l 2,0,1
285 1043 m 2,13,14
 285 943 285 943 333.5 886 c 128,-1,15
 382 829 382 829 466 829 c 0,16,17
 549 829 549 829 596.5 886.5 c 128,-1,18
 644 944 644 944 644 1045 c 2,19,-1
 644 1123 l 2,20,21
 644 1222 644 1222 595.5 1279 c 128,-1,22
 547 1336 547 1336 464 1336 c 0,23,24
 383 1336 383 1336 335 1281 c 128,-1,25
 287 1226 287 1226 285 1129 c 2,26,-1
 285 1043 l 2,13,14
EndSplineSet
EndChar

StartChar: onehalf
Encoding: 189 189 126
Width: 1395
Flags: W
LayerCount: 2
Fore
SplineSet
1244 191 m 1,0,1
 1170 85 1170 85 1037.5 32.5 c 128,-1,2
 905 -20 905 -20 729 -20 c 0,3,4
 551 -20 551 -20 413 63.5 c 128,-1,5
 275 147 275 147 199.5 301 c 128,-1,6
 124 455 124 455 122 658 c 2,7,-1
 122 785 l 2,8,9
 122 1114 122 1114 275.5 1295 c 128,-1,10
 429 1476 429 1476 707 1476 c 0,11,12
 935 1476 935 1476 1074 1359.5 c 128,-1,13
 1213 1243 1213 1243 1244 1029 c 1,14,-1
 1052 1029 l 1,15,16
 998 1318 998 1318 708 1318 c 0,17,18
 515 1318 515 1318 415.5 1182.5 c 128,-1,19
 316 1047 316 1047 315 790 c 2,20,-1
 315 671 l 2,21,22
 315 426 315 426 427 281.5 c 128,-1,23
 539 137 539 137 730 137 c 0,24,25
 838 137 838 137 919 161 c 128,-1,26
 1000 185 1000 185 1053 242 c 1,27,-1
 1053 569 l 1,28,-1
 716 569 l 1,29,-1
 716 725 l 1,30,-1
 1244 725 l 1,31,-1
 1244 191 l 1,0,1
EndSplineSet
EndChar

StartChar: threequarters
Encoding: 190 190 127
Width: 1460
Flags: W
LayerCount: 2
Fore
SplineSet
1288 0 m 1,0,-1
 1095 0 l 1,1,-1
 1095 673 l 1,2,-1
 361 673 l 1,3,-1
 361 0 l 1,4,-1
 169 0 l 1,5,-1
 169 1456 l 1,6,-1
 361 1456 l 1,7,-1
 361 830 l 1,8,-1
 1095 830 l 1,9,-1
 1095 1456 l 1,10,-1
 1288 1456 l 1,11,-1
 1288 0 l 1,0,-1
EndSplineSet
EndChar

StartChar: questiondown
Encoding: 191 191 128
Width: 1284
Flags: W
LayerCount: 2
Fore
SplineSet
644 898 m 1,0,-1
 993 1456 l 1,1,-1
 1219 1456 l 1,2,-1
 759 734 l 1,3,-1
 1230 0 l 1,4,-1
 1002 0 l 1,5,-1
 644 568 l 1,6,-1
 284 0 l 1,7,-1
 57 0 l 1,8,-1
 529 734 l 1,9,-1
 68 1456 l 1,10,-1
 293 1456 l 1,11,-1
 644 898 l 1,0,-1
EndSplineSet
EndChar

StartChar: AE
Encoding: 198 198 129
Width: 1460
GlyphClass: 2
Flags: W
LayerCount: 2
Fore
SplineSet
1288 0 m 1,0,-1
 1095 0 l 1,1,-1
 362 1122 l 1,2,-1
 362 0 l 1,3,-1
 169 0 l 1,4,-1
 169 1456 l 1,5,-1
 362 1456 l 1,6,-1
 1097 329 l 1,7,-1
 1097 1456 l 1,8,-1
 1288 1456 l 1,9,-1
 1288 0 l 1,0,-1
EndSplineSet
Substitution2: "'c2sc' Capitals to Small Capitals lookup 0 subtable" AE.c2sc
Position2: "'cpsp' Capital Spacing lookup 0 subtable" dx=36 dy=0 dh=72 dv=0
EndChar

StartChar: multiply
Encoding: 215 215 130
Width: 1092
Flags: W
LayerCount: 2
Fore
SplineSet
89 329 m 1,0,-1
 419 665 l 1,1,-1
 91 1000 l 1,2,-1
 210 1123 l 1,3,-1
 539 788 l 1,4,-1
 868 1123 l 1,5,-1
 987 1000 l 1,6,-1
 659 665 l 1,7,-1
 989 329 l 1,8,-1
 870 206 l 1,9,-1
 539 543 l 1,10,-1
 208 206 l 1,11,-1
 89 329 l 1,0,-1
EndSplineSet
EndChar

StartChar: Oslash
Encoding: 216 216 131
Width: 1408
GlyphClass: 2
Flags: W
LayerCount: 2
Fore
SplineSet
1289 681 m 2,0,1
 1289 467 1289 467 1217 307.5 c 128,-1,2
 1145 148 1145 148 1013 64 c 128,-1,3
 881 -20 881 -20 705 -20 c 0,4,5
 534 -20 534 -20 403 62 c 1,6,-1
 306 -93 l 1,7,-1
 164 -93 l 1,8,-1
 308 138 l 1,9,10
 118 330 118 330 118 690 c 2,11,-1
 118 773 l 2,12,13
 118 983 118 983 191 1144 c 128,-1,14
 264 1305 264 1305 397.5 1390.5 c 128,-1,15
 531 1476 531 1476 703 1476 c 0,16,17
 917 1476 917 1476 1065 1351 c 1,18,-1
 1168 1516 l 1,19,-1
 1309 1516 l 1,20,-1
 1150 1261 l 1,21,22
 1287 1074 1287 1074 1289 780 c 2,23,-1
 1289 681 l 2,0,1
309 681 m 2,24,25
 309 437 309 437 407 296 c 1,26,-1
 971 1200 l 1,27,28
 869 1311 869 1311 703 1311 c 0,29,30
 521 1311 521 1311 416.5 1172.5 c 128,-1,31
 312 1034 312 1034 309 788 c 2,32,-1
 309 681 l 2,24,25
1098 775 m 2,33,34
 1098 957 1098 957 1042 1088 c 1,35,-1
 493 207 l 1,36,37
 584 143 584 143 705 143 c 0,38,39
 891 143 891 143 993 278.5 c 128,-1,40
 1095 414 1095 414 1098 667 c 2,41,-1
 1098 775 l 2,33,34
EndSplineSet
Substitution2: "'c2sc' Capitals to Small Capitals lookup 0 subtable" Oslash.c2sc
Position2: "'cpsp' Capital Spacing lookup 0 subtable" dx=36 dy=0 dh=72 dv=0
EndChar

StartChar: divide
Encoding: 247 247 132
Width: 1169
Flags: W
LayerCount: 2
Fore
SplineSet
1069 600 m 1,0,-1
 71 600 l 1,1,-1
 71 784 l 1,2,-1
 1069 784 l 1,3,-1
 1069 600 l 1,0,-1
461 1098 m 0,4,5
 461 1146 461 1146 489.5 1178 c 128,-1,6
 518 1210 518 1210 575 1210 c 128,-1,7
 632 1210 632 1210 661.5 1178 c 128,-1,8
 691 1146 691 1146 691 1098 c 0,9,10
 691 1051 691 1051 661.5 1020 c 128,-1,11
 632 989 632 989 575 989 c 128,-1,12
 518 989 518 989 489.5 1020 c 128,-1,13
 461 1051 461 1051 461 1098 c 0,4,5
461 281 m 0,14,15
 461 329 461 329 489.5 361 c 128,-1,16
 518 393 518 393 575 393 c 128,-1,17
 632 393 632 393 661.5 361 c 128,-1,18
 691 329 691 329 691 281 c 0,19,20
 691 235 691 235 661.5 203.5 c 128,-1,21
 632 172 632 172 575 172 c 128,-1,22
 518 172 518 172 489.5 203.5 c 128,-1,23
 461 235 461 235 461 281 c 0,14,15
EndSplineSet
EndChar

StartChar: oslash
Encoding: 248 248 133
Width: 1160
GlyphClass: 2
Flags: W
LayerCount: 2
Fore
SplineSet
91 551 m 0,0,1
 91 710 91 710 152.5 836.5 c 128,-1,2
 214 963 214 963 326.5 1032.5 c 128,-1,3
 439 1102 439 1102 582 1102 c 0,4,5
 692 1102 692 1102 786 1060 c 1,6,-1
 859 1208 l 1,7,-1
 983 1208 l 1,8,-1
 881 1003 l 1,9,10
 1076 849 1076 849 1076 529 c 0,11,12
 1076 371 1076 371 1014 244 c 128,-1,13
 952 117 952 117 840 48.5 c 128,-1,14
 728 -20 728 -20 584 -20 c 0,15,16
 480 -20 480 -20 394 15 c 1,17,-1
 320 -134 l 1,18,-1
 196 -134 l 1,19,-1
 296 69 l 1,20,21
 91 218 91 218 91 551 c 0,0,1
276 529 m 0,22,23
 276 335 276 335 373 224 c 1,24,-1
 716 918 l 1,25,26
 654 950 654 950 582 950 c 0,27,28
 444 950 444 950 360 841 c 128,-1,29
 276 732 276 732 276 529 c 0,22,23
890 551 m 2,30,31
 890 733 890 733 803 844 c 1,32,-1
 463 156 l 1,33,34
 518 131 518 131 584 131 c 0,35,36
 723 131 723 131 806.5 240.5 c 128,-1,37
 890 350 890 350 890 535 c 2,38,-1
 890 551 l 2,30,31
EndSplineSet
Substitution2: "'smcp' Lowercase to Small Capitals lookup 1 subtable" Oslash.c2sc
EndChar

StartChar: thorn
Encoding: 254 254 134
Width: 1180
Flags: W
LayerCount: 2
Fore
SplineSet
1063 529 m 2,0,1
 1063 282 1063 282 950 131 c 128,-1,2
 837 -20 837 -20 644 -20 c 0,3,4
 447 -20 447 -20 334 105 c 1,5,-1
 334 -416 l 1,6,-1
 149 -416 l 1,7,-1
 149 1536 l 1,8,-1
 334 1536 l 1,9,-1
 334 970 l 1,10,11
 447 1102 447 1102 641 1102 c 0,12,13
 836 1102 836 1102 949.5 955 c 128,-1,14
 1063 808 1063 808 1063 546 c 2,15,-1
 1063 529 l 2,0,1
878 550 m 0,16,17
 878 733 878 733 800 839 c 128,-1,18
 722 945 722 945 586 945 c 0,19,20
 418 945 418 945 334 796 c 1,21,-1
 334 279 l 1,22,23
 417 131 417 131 588 131 c 0,24,25
 721 131 721 131 799.5 236.5 c 128,-1,26
 878 342 878 342 878 550 c 0,16,17
EndSplineSet
Substitution2: "'smcp' Lowercase to Small Capitals lookup 1 subtable" Thorn.c2sc
EndChar

StartChar: dcroat
Encoding: 273 273 135
Width: 1223
GlyphClass: 2
Flags: W
LayerCount: 2
Fore
SplineSet
1196 1233 m 1,0,-1
 1008 1233 l 1,1,-1
 1008 0 l 1,2,-1
 838 0 l 1,3,-1
 829 116 l 1,4,5
 718 -20 718 -20 520 -20 c 0,6,7
 332 -20 332 -20 213.5 134 c 128,-1,8
 95 288 95 288 95 536 c 2,9,-1
 95 550 l 2,10,11
 95 799 95 799 213 950.5 c 128,-1,12
 331 1102 331 1102 522 1102 c 0,13,14
 712 1102 712 1102 823 972 c 1,15,-1
 823 1233 l 1,16,-1
 559 1233 l 1,17,-1
 559 1384 l 1,18,-1
 823 1384 l 1,19,-1
 823 1536 l 1,20,-1
 1008 1536 l 1,21,-1
 1008 1384 l 1,22,-1
 1196 1384 l 1,23,-1
 1196 1233 l 1,0,-1
280 529 m 0,24,25
 280 345 280 345 356 241 c 128,-1,26
 432 137 432 137 566 137 c 0,27,28
 742 137 742 137 823 295 c 1,29,-1
 823 792 l 1,30,31
 740 945 740 945 568 945 c 0,32,33
 432 945 432 945 356 840 c 128,-1,34
 280 735 280 735 280 529 c 0,24,25
EndSplineSet
Substitution2: "'smcp' Lowercase to Small Capitals lookup 1 subtable" Dcroat.c2sc
EndChar

StartChar: Hbar
Encoding: 294 294 136
Width: 1434
GlyphClass: 2
Flags: W
LayerCount: 2
Fore
SplineSet
1282 1166 m 1,0,-1
 1416 1166 l 1,1,-1
 1416 1024 l 1,2,-1
 1282 1024 l 1,3,-1
 1282 0 l 1,4,-1
 1089 0 l 1,5,-1
 1089 673 l 1,6,-1
 356 673 l 1,7,-1
 356 0 l 1,8,-1
 163 0 l 1,9,-1
 163 1024 l 1,10,-1
 29 1024 l 1,11,-1
 29 1166 l 1,12,-1
 163 1166 l 1,13,-1
 163 1456 l 1,14,-1
 356 1456 l 1,15,-1
 356 1166 l 1,16,-1
 1089 1166 l 1,17,-1
 1089 1456 l 1,18,-1
 1282 1456 l 1,19,-1
 1282 1166 l 1,0,-1
356 830 m 1,20,-1
 1089 830 l 1,21,-1
 1089 1024 l 1,22,-1
 356 1024 l 1,23,-1
 356 830 l 1,20,-1
EndSplineSet
Substitution2: "'c2sc' Capitals to Small Capitals lookup 0 subtable" Hbar.c2sc
Position2: "'cpsp' Capital Spacing lookup 0 subtable" dx=36 dy=0 dh=72 dv=0
EndChar

StartChar: dotlessi
Encoding: 305 305 137
Width: 506
GlyphClass: 2
Flags: W
LayerCount: 2
Fore
SplineSet
341 0 m 1,0,-1
 155 0 l 1,1,-1
 155 1082 l 1,2,-1
 341 1082 l 1,3,-1
 341 0 l 1,0,-1
EndSplineSet
Substitution2: "'smcp' Lowercase to Small Capitals lookup 1 subtable" I.c2sc
EndChar

StartChar: kgreenlandic
Encoding: 312 312 138
Width: 1139
GlyphClass: 2
Flags: W
LayerCount: 2
Fore
SplineSet
447 461 m 1,0,-1
 340 461 l 1,1,-1
 340 0 l 1,2,-1
 154 0 l 1,3,-1
 154 1082 l 1,4,-1
 340 1082 l 1,5,-1
 340 624 l 1,6,-1
 431 624 l 1,7,-1
 828 1082 l 1,8,-1
 1051 1082 l 1,9,-1
 599 557 l 1,10,-1
 1087 0 l 1,11,-1
 854 0 l 1,12,-1
 447 461 l 1,0,-1
EndSplineSet
EndChar

StartChar: Lslash
Encoding: 321 321 139
Width: 1103
GlyphClass: 2
Flags: W
LayerCount: 2
Fore
SplineSet
361 843 m 1,0,-1
 624 927 l 1,1,-1
 624 802 l 1,2,-1
 361 718 l 1,3,-1
 361 157 l 1,4,-1
 1051 157 l 1,5,-1
 1051 0 l 1,6,-1
 168 0 l 1,7,-1
 168 657 l 1,8,-1
 34 615 l 1,9,-1
 34 740 l 1,10,-1
 168 782 l 1,11,-1
 168 1456 l 1,12,-1
 361 1456 l 1,13,-1
 361 843 l 1,0,-1
EndSplineSet
Substitution2: "'c2sc' Capitals to Small Capitals lookup 0 subtable" Lslash.c2sc
Position2: "'cpsp' Capital Spacing lookup 0 subtable" dx=36 dy=0 dh=72 dv=0
EndChar

StartChar: lslash
Encoding: 322 322 140
Width: 553
GlyphClass: 2
Flags: W
LayerCount: 2
Fore
SplineSet
364 869 m 1,0,-1
 522 930 l 1,1,-1
 522 807 l 1,2,-1
 364 746 l 1,3,-1
 364 0 l 1,4,-1
 178 0 l 1,5,-1
 178 675 l 1,6,-1
 34 620 l 1,7,-1
 34 743 l 1,8,-1
 178 798 l 1,9,-1
 178 1536 l 1,10,-1
 364 1536 l 1,11,-1
 364 869 l 1,0,-1
EndSplineSet
Substitution2: "'smcp' Lowercase to Small Capitals lookup 1 subtable" Lslash.c2sc
EndChar

StartChar: Eng
Encoding: 330 330 141
Width: 1419
GlyphClass: 2
Flags: W
LayerCount: 2
Fore
SplineSet
1265 1456 m 1,0,-1
 1265 -83 l 2,1,2
 1265 -251 1265 -251 1179.5 -344 c 128,-1,3
 1094 -437 1094 -437 938 -437 c 0,4,5
 877 -437 877 -437 823 -419 c 1,6,-1
 837 -265 l 1,7,8
 874 -279 874 -279 935 -279 c 0,9,10
 1071 -279 1071 -279 1071 -71 c 2,11,-1
 1071 0 l 1,12,-1
 354 1130 l 1,13,-1
 354 0 l 1,14,-1
 162 0 l 1,15,-1
 162 1456 l 1,16,-1
 354 1456 l 1,17,-1
 1071 328 l 1,18,-1
 1071 1456 l 1,19,-1
 1265 1456 l 1,0,-1
EndSplineSet
Substitution2: "'c2sc' Capitals to Small Capitals lookup 0 subtable" Eng.c2sc
Position2: "'cpsp' Capital Spacing lookup 0 subtable" dx=36 dy=0 dh=72 dv=0
EndChar

StartChar: eng
Encoding: 331 331 142
Width: 1160
GlyphClass: 2
Flags: W
LayerCount: 2
Fore
SplineSet
311 1082 m 1,0,-1
 324 928 l 1,1,2
 440 1102 440 1102 643 1102 c 0,3,4
 822 1102 822 1102 914 998 c 128,-1,5
 1006 894 1006 894 1008 691 c 2,6,-1
 1008 -89 l 2,7,8
 1008 -253 1008 -253 924.5 -345 c 128,-1,9
 841 -437 841 -437 686 -437 c 0,10,11
 625 -437 625 -437 571 -419 c 1,12,-1
 585 -262 l 1,13,14
 620 -275 620 -275 686 -275 c 0,15,16
 823 -275 823 -275 823 -81 c 2,17,-1
 823 678 l 2,18,19
 823 817 823 817 767.5 881 c 128,-1,20
 712 945 712 945 587 945 c 0,21,22
 412 945 412 945 331 812 c 1,23,-1
 331 0 l 1,24,-1
 145 0 l 1,25,-1
 145 1082 l 1,26,-1
 311 1082 l 1,0,-1
EndSplineSet
Substitution2: "'smcp' Lowercase to Small Capitals lookup 1 subtable" Eng.c2sc
EndChar

StartChar: OE
Encoding: 338 338 143
Width: 1953
GlyphClass: 2
Flags: W
LayerCount: 2
Fore
SplineSet
1801 0 m 1,0,-1
 953 0 l 1,1,2
 775 -21 775 -21 661 -21 c 0,3,4
 499 -21 499 -21 372 54 c 128,-1,5
 245 129 245 129 175 264.5 c 128,-1,6
 105 400 105 400 104 571 c 2,7,-1
 104 880 l 2,8,9
 104 1052 104 1052 173.5 1188.5 c 128,-1,10
 243 1325 243 1325 370 1400.5 c 128,-1,11
 497 1476 497 1476 659 1476 c 0,12,13
 783 1476 783 1476 953 1456 c 1,14,-1
 1791 1456 l 1,15,-1
 1791 1298 l 1,16,-1
 1068 1298 l 1,17,-1
 1068 830 l 1,18,-1
 1699 830 l 1,19,-1
 1699 673 l 1,20,-1
 1068 673 l 1,21,-1
 1068 157 l 1,22,-1
 1801 157 l 1,23,-1
 1801 0 l 1,0,-1
661 130 m 0,24,25
 774 130 774 130 876 144 c 1,26,-1
 876 1310 l 1,27,28
 767 1325 767 1325 659 1325 c 0,29,30
 486 1325 486 1325 389 1210.5 c 128,-1,31
 292 1096 292 1096 290 889 c 2,32,-1
 290 576 l 2,33,34
 290 365 290 365 387.5 247.5 c 128,-1,35
 485 130 485 130 661 130 c 0,24,25
EndSplineSet
Substitution2: "'c2sc' Capitals to Small Capitals lookup 0 subtable" OE.c2sc
Position2: "'cpsp' Capital Spacing lookup 0 subtable" dx=36 dy=0 dh=72 dv=0
EndChar

StartChar: oe
Encoding: 339 339 144
Width: 1860
GlyphClass: 2
Flags: W
LayerCount: 2
Fore
SplineSet
97 551 m 2,0,1
 97 711 97 711 157.5 838 c 128,-1,2
 218 965 218 965 327.5 1033.5 c 128,-1,3
 437 1102 437 1102 579 1102 c 0,4,5
 716 1102 716 1102 816.5 1043.5 c 128,-1,6
 917 985 917 985 978 885 c 1,7,8
 1043 987 1043 987 1141 1044.5 c 128,-1,9
 1239 1102 1239 1102 1351 1102 c 0,10,11
 1558 1102 1558 1102 1675 975 c 128,-1,12
 1792 848 1792 848 1792 613 c 2,13,-1
 1792 497 l 1,14,-1
 1074 497 l 1,15,16
 1081 327 1081 327 1163 228.5 c 128,-1,17
 1245 130 1245 130 1379 130 c 0,18,19
 1567 130 1567 130 1687 238 c 1,20,-1
 1761 112 l 1,21,22
 1624 -20 1624 -20 1379 -20 c 0,23,24
 1244 -20 1244 -20 1141.5 36 c 128,-1,25
 1039 92 1039 92 976 192 c 1,26,27
 914 93 914 93 814.5 36.5 c 128,-1,28
 715 -20 715 -20 581 -20 c 0,29,30
 361 -20 361 -20 229 132 c 128,-1,31
 97 284 97 284 97 538 c 2,32,-1
 97 551 l 2,0,1
282 529 m 0,33,34
 282 346 282 346 362 238 c 128,-1,35
 442 130 442 130 581 130 c 0,36,37
 718 130 718 130 798 237.5 c 128,-1,38
 878 345 878 345 878 551 c 0,39,40
 878 733 878 733 797.5 841.5 c 128,-1,41
 717 950 717 950 579 950 c 0,42,43
 444 950 444 950 363 843 c 128,-1,44
 282 736 282 736 282 529 c 0,33,34
1351 950 m 0,45,46
 1252 950 1252 950 1177 868.5 c 128,-1,47
 1102 787 1102 787 1080 649 c 1,48,-1
 1606 649 l 1,49,-1
 1606 675 l 2,50,51
 1606 800 1606 800 1537.5 875 c 128,-1,52
 1469 950 1469 950 1351 950 c 0,45,46
EndSplineSet
Substitution2: "'smcp' Lowercase to Small Capitals lookup 1 subtable" OE.c2sc
EndChar

StartChar: longs
Encoding: 383 383 145
Width: 508
GlyphClass: 2
Flags: W
LayerCount: 2
Fore
SplineSet
160 0 m 1,0,-1
 160 1198 l 2,1,2
 161 1367 161 1367 249 1462 c 128,-1,3
 337 1557 337 1557 499 1557 c 0,4,5
 558 1557 558 1557 642 1536 c 1,6,-1
 619 1394 l 1,7,8
 579 1405 579 1405 528 1405 c 0,9,10
 345 1405 345 1405 345 1184 c 2,11,-1
 345 0 l 1,12,-1
 160 0 l 1,0,-1
EndSplineSet
EndChar

StartChar: uni018F
Encoding: 399 399 146
Width: 1415
GlyphClass: 2
Flags: W
LayerCount: 2
Fore
SplineSet
697 -20 m 0,0,1
 412 -20 412 -20 252.5 152.5 c 128,-1,2
 93 325 93 325 93 650 c 2,3,-1
 93 767 l 1,4,-1
 1105 767 l 1,5,-1
 1105 774 l 2,6,7
 1105 1032 1105 1032 983 1174 c 128,-1,8
 861 1316 861 1316 640 1316 c 0,9,10
 475 1316 475 1316 336 1258 c 2,11,-1
 275 1232 l 1,12,-1
 228 1375 l 1,13,-1
 250 1388 l 1,14,15
 408 1476 408 1476 640 1476 c 0,16,17
 942 1476 942 1476 1120 1287.5 c 128,-1,18
 1298 1099 1298 1099 1298 764 c 2,19,-1
 1298 680 l 2,20,21
 1298 483 1298 483 1220 322.5 c 128,-1,22
 1142 162 1142 162 1003 71 c 128,-1,23
 864 -20 864 -20 697 -20 c 0,0,1
697 138 m 0,24,25
 866 138 866 138 977 268.5 c 128,-1,26
 1088 399 1088 399 1103 618 c 1,27,-1
 286 618 l 1,28,-1
 286 584 l 2,29,30
 286 366 286 366 391.5 252 c 128,-1,31
 497 138 497 138 697 138 c 0,24,25
EndSplineSet
EndChar

StartChar: florin
Encoding: 402 402 147
Width: 697
Flags: W
LayerCount: 2
Fore
SplineSet
608 939 m 1,0,-1
 405 939 l 1,1,-1
 405 -87 l 2,2,3
 405 -254 405 -254 321 -345.5 c 128,-1,4
 237 -437 237 -437 83 -437 c 0,5,6
 22 -437 22 -437 -28 -419 c 1,7,-1
 -14 -272 l 1,8,9
 16 -285 16 -285 83 -285 c 0,10,11
 148 -285 148 -285 183.5 -233 c 128,-1,12
 219 -181 219 -181 219 -89 c 2,13,-1
 219 939 l 1,14,-1
 48 939 l 1,15,-1
 48 1082 l 1,16,-1
 219 1082 l 1,17,-1
 219 1202 l 2,18,19
 221 1369 221 1369 308.5 1463 c 128,-1,20
 396 1557 396 1557 557 1557 c 0,21,22
 616 1557 616 1557 700 1536 c 1,23,-1
 678 1389 l 1,24,25
 640 1399 640 1399 580 1399 c 0,26,27
 409 1399 409 1399 405 1204 c 1,28,-1
 405 1082 l 1,29,-1
 608 1082 l 1,30,-1
 608 939 l 1,0,-1
EndSplineSet
EndChar

StartChar: Ohorn
Encoding: 416 416 148
Width: 1406
GlyphClass: 2
Flags: W
LayerCount: 2
Fore
SplineSet
1272 681 m 2,0,1
 1272 467 1272 467 1200 307.5 c 128,-1,2
 1128 148 1128 148 996 64 c 128,-1,3
 864 -20 864 -20 688 -20 c 0,4,5
 517 -20 517 -20 384 64 c 128,-1,6
 251 148 251 148 176.5 307 c 128,-1,7
 102 466 102 466 101 673 c 2,8,-1
 101 773 l 2,9,10
 101 983 101 983 174 1143.5 c 128,-1,11
 247 1304 247 1304 380.5 1390 c 128,-1,12
 514 1476 514 1476 686 1476 c 0,13,14
 926 1476 926 1476 1081 1321 c 1,15,16
 1177 1328 1177 1328 1223.5 1393.5 c 128,-1,17
 1270 1459 1270 1459 1270 1591 c 1,18,-1
 1437 1591 l 1,19,20
 1437 1258 1437 1258 1174 1197 c 1,21,22
 1271 1025 1271 1025 1272 779 c 2,23,-1
 1272 681 l 2,0,1
1082 775 m 2,24,25
 1082 1033 1082 1033 978.5 1172 c 128,-1,26
 875 1311 875 1311 686 1311 c 0,27,28
 504 1311 504 1311 399.5 1172.5 c 128,-1,29
 295 1034 295 1034 292 788 c 2,30,-1
 292 681 l 2,31,32
 292 430 292 430 397.5 286.5 c 128,-1,33
 503 143 503 143 688 143 c 0,34,35
 879 143 879 143 980.5 284 c 128,-1,36
 1082 425 1082 425 1082 682 c 2,37,-1
 1082 775 l 2,24,25
EndSplineSet
EndChar

StartChar: ohorn
Encoding: 417 417 149
Width: 1170
GlyphClass: 2
Flags: W
LayerCount: 2
Fore
SplineSet
91 551 m 2,0,1
 91 710 91 710 152.5 836.5 c 128,-1,2
 214 963 214 963 326.5 1032.5 c 128,-1,3
 439 1102 439 1102 582 1102 c 0,4,5
 789 1102 789 1102 925 964 c 1,6,7
 996 972 996 972 1028 1022 c 128,-1,8
 1060 1072 1060 1072 1060 1200 c 1,9,-1
 1210 1200 l 1,10,11
 1210 909 1210 909 1003 858 c 1,12,13
 1076 720 1076 720 1076 551 c 2,14,-1
 1076 529 l 2,15,16
 1076 371 1076 371 1014 244 c 128,-1,17
 952 117 952 117 840 48.5 c 128,-1,18
 728 -20 728 -20 584 -20 c 0,19,20
 362 -20 362 -20 226.5 133.5 c 128,-1,21
 91 287 91 287 91 538 c 2,22,-1
 91 551 l 2,0,1
276 529 m 0,23,24
 276 349 276 349 359.5 240 c 128,-1,25
 443 131 443 131 584 131 c 0,26,27
 723 131 723 131 806.5 240.5 c 128,-1,28
 890 350 890 350 890 535 c 2,29,-1
 890 551 l 2,30,31
 890 732 890 732 805.5 841 c 128,-1,32
 721 950 721 950 582 950 c 0,33,34
 444 950 444 950 360 841 c 128,-1,35
 276 732 276 732 276 529 c 0,23,24
EndSplineSet
EndChar

StartChar: Uhorn
Encoding: 431 431 150
Width: 1424
GlyphClass: 2
Flags: W
LayerCount: 2
Fore
SplineSet
1194 1456 m 1,0,-1
 1194 1243 l 1,1,2
 1309 1254 1309 1254 1357.5 1322.5 c 128,-1,3
 1406 1391 1406 1391 1406 1538 c 1,4,-1
 1565 1538 l 1,5,6
 1565 1328 1565 1328 1476.5 1223.5 c 128,-1,7
 1388 1119 1388 1119 1194 1107 c 1,8,-1
 1194 465 l 2,9,10
 1193 266 1193 266 1071 136 c 128,-1,11
 949 6 949 6 738 -16 c 1,12,-1
 665 -20 l 1,13,14
 426 -20 426 -20 284 109 c 128,-1,15
 142 238 142 238 140 464 c 2,16,-1
 140 1456 l 1,17,-1
 330 1456 l 1,18,-1
 330 470 l 2,19,20
 330 312 330 312 417 224.5 c 128,-1,21
 504 137 504 137 665 137 c 0,22,23
 828 137 828 137 914.5 224 c 128,-1,24
 1001 311 1001 311 1001 469 c 2,25,-1
 1001 1456 l 1,26,-1
 1194 1456 l 1,0,-1
EndSplineSet
EndChar

StartChar: uhorn
Encoding: 432 432 151
Width: 1267
GlyphClass: 2
Flags: W
LayerCount: 2
Fore
SplineSet
1295 1168 m 1,0,1
 1295 988 1295 988 1221.5 914.5 c 128,-1,2
 1148 841 1148 841 988 837 c 1,3,-1
 988 0 l 1,4,-1
 812 0 l 1,5,-1
 808 107 l 1,6,7
 700 -20 700 -20 491 -20 c 0,8,9
 318 -20 318 -20 227.5 80.5 c 128,-1,10
 137 181 137 181 136 378 c 2,11,-1
 136 1082 l 1,12,-1
 321 1082 l 1,13,-1
 321 383 l 2,14,15
 321 137 321 137 521 137 c 0,16,17
 733 137 733 137 803 295 c 1,18,-1
 803 1082 l 1,19,-1
 988 1082 l 1,20,-1
 988 951 l 1,21,22
 1056 953 1056 953 1090 970.5 c 128,-1,23
 1124 988 1124 988 1138.5 1024 c 128,-1,24
 1153 1060 1153 1060 1153 1168 c 1,25,-1
 1295 1168 l 1,0,1
EndSplineSet
EndChar

StartChar: uni0237
Encoding: 567 567 152
Width: 515
GlyphClass: 2
Flags: W
LayerCount: 2
Fore
SplineSet
357 1082 m 1,0,-1
 357 -89 l 2,1,2
 357 -259 357 -259 272 -348 c 128,-1,3
 187 -437 187 -437 35 -437 c 0,4,5
 -24 -437 -24 -437 -76 -419 c 1,6,-1
 -62 -272 l 1,7,8
 -32 -285 -32 -285 35 -285 c 0,9,10
 100 -285 100 -285 136 -233 c 128,-1,11
 172 -181 172 -181 172 -89 c 2,12,-1
 172 1082 l 1,13,-1
 357 1082 l 1,0,-1
EndSplineSet
EndChar

StartChar: uni0259
Encoding: 601 601 153
Width: 1079
GlyphClass: 2
Flags: W
LayerCount: 2
Fore
SplineSet
511 1103 m 0,0,1
 731 1103 731 1103 866 953 c 128,-1,2
 1001 803 1001 803 1001 554 c 2,3,-1
 1001 518 l 2,4,5
 1001 369 1001 369 939 245 c 128,-1,6
 877 121 877 121 769 50.5 c 128,-1,7
 661 -20 661 -20 539 -19 c 0,8,9
 331 -19 331 -19 214.5 108 c 128,-1,10
 98 235 98 235 98 468 c 2,11,-1
 98 584 l 1,12,-1
 815 584 l 1,13,14
 808 752 808 752 727.5 852 c 128,-1,15
 647 952 647 952 511 952 c 0,16,17
 325 952 325 952 202 844 c 1,18,-1
 129 969 l 1,19,20
 269 1103 269 1103 511 1103 c 0,0,1
539 132 m 0,21,22
 637 132 637 132 712.5 214 c 128,-1,23
 788 296 788 296 809 433 c 1,24,-1
 284 433 l 1,25,-1
 284 407 l 2,26,27
 284 282 284 282 352.5 207 c 128,-1,28
 421 132 421 132 539 132 c 0,21,22
EndSplineSet
EndChar

StartChar: circumflex
Encoding: 710 710 154
Width: 964
Flags: W
LayerCount: 2
Fore
SplineSet
774 1262 m 1,0,-1
 774 1252 l 1,1,-1
 621 1252 l 1,2,-1
 471 1422 l 1,3,-1
 322 1252 l 1,4,-1
 169 1252 l 1,5,-1
 169 1264 l 1,6,-1
 415 1536 l 1,7,-1
 527 1536 l 1,8,-1
 774 1262 l 1,0,-1
EndSplineSet
EndChar

StartChar: caron
Encoding: 711 711 155
Width: 909
Flags: W
LayerCount: 2
Fore
SplineSet
449 1365 m 1,0,-1
 599 1535 l 1,1,-1
 759 1535 l 1,2,-1
 759 1525 l 1,3,-1
 505 1251 l 1,4,-1
 392 1251 l 1,5,-1
 141 1525 l 1,6,-1
 141 1535 l 1,7,-1
 298 1535 l 1,8,-1
 449 1365 l 1,0,-1
EndSplineSet
EndChar

StartChar: breve
Encoding: 728 728 157
Width: 874
Flags: W
LayerCount: 2
Fore
SplineSet
728 1495 m 1,0,1
 728 1374 728 1374 645.5 1300.5 c 128,-1,2
 563 1227 563 1227 429 1227 c 128,-1,3
 295 1227 295 1227 212 1301 c 128,-1,4
 129 1375 129 1375 129 1495 c 1,5,-1
 280 1495 l 1,6,7
 280 1425 280 1425 318 1385.5 c 128,-1,8
 356 1346 356 1346 429 1346 c 0,9,10
 499 1346 499 1346 538.5 1385 c 128,-1,11
 578 1424 578 1424 578 1495 c 1,12,-1
 728 1495 l 1,0,1
EndSplineSet
EndChar

StartChar: dotaccent
Encoding: 729 729 158
Width: 497
Flags: W
LayerCount: 2
Fore
SplineSet
141 1367 m 256,0,1
 141 1412 141 1412 168.5 1443 c 128,-1,2
 196 1474 196 1474 250 1474 c 128,-1,3
 304 1474 304 1474 332 1443 c 128,-1,4
 360 1412 360 1412 360 1367 c 128,-1,5
 360 1322 360 1322 332 1292 c 128,-1,6
 304 1262 304 1262 250 1262 c 128,-1,7
 196 1262 196 1262 168.5 1292 c 128,-1,8
 141 1322 141 1322 141 1367 c 256,0,1
EndSplineSet
EndChar

StartChar: ring
Encoding: 730 730 159
Width: 685
Flags: W
LayerCount: 2
Fore
SplineSet
551 1408 m 0,0,1
 551 1321 551 1321 489 1262.5 c 128,-1,2
 427 1204 427 1204 336 1204 c 0,3,4
 244 1204 244 1204 182.5 1263 c 128,-1,5
 121 1322 121 1322 121 1408 c 128,-1,6
 121 1494 121 1494 182.5 1555 c 128,-1,7
 244 1616 244 1616 336 1616 c 128,-1,8
 428 1616 428 1616 489.5 1555 c 128,-1,9
 551 1494 551 1494 551 1408 c 0,0,1
220 1408 m 0,10,11
 220 1361 220 1361 253.5 1327 c 128,-1,12
 287 1293 287 1293 336 1293 c 0,13,14
 384 1293 384 1293 418 1326 c 128,-1,15
 452 1359 452 1359 452 1408 c 128,-1,16
 452 1457 452 1457 418.5 1491.5 c 128,-1,17
 385 1526 385 1526 336 1526 c 0,18,19
 286 1526 286 1526 253 1491 c 128,-1,20
 220 1456 220 1456 220 1408 c 0,10,11
EndSplineSet
EndChar

StartChar: ogonek
Encoding: 731 731 160
Width: 554
GlyphClass: 2
Flags: W
LayerCount: 2
Fore
SplineSet
382 0 m 1,0,-1
 324 -45 l 2,1,2
 211 -136 211 -136 211 -222 c 0,3,4
 211 -294 211 -294 289 -294 c 0,5,6
 337 -294 337 -294 389 -268 c 1,7,-1
 402 -389 l 1,8,9
 332 -433 332 -433 242 -433 c 0,10,11
 153 -433 153 -433 101.5 -381 c 128,-1,12
 50 -329 50 -329 50 -243 c 0,13,14
 50 -154 50 -154 117 -77 c 128,-1,15
 184 0 184 0 307 56 c 1,16,-1
 382 0 l 1,0,-1
EndSplineSet
EndChar

StartChar: tilde
Encoding: 732 732 161
Width: 966
Flags: W
LayerCount: 2
Fore
SplineSet
830 1500 m 1,0,1
 830 1392 830 1392 768.5 1325 c 128,-1,2
 707 1258 707 1258 615 1258 c 0,3,4
 574 1258 574 1258 544 1268 c 128,-1,5
 514 1278 514 1278 465.5 1309 c 128,-1,6
 417 1340 417 1340 395.5 1346.5 c 128,-1,7
 374 1353 374 1353 346 1353 c 0,8,9
 305 1353 305 1353 276 1321.5 c 128,-1,10
 247 1290 247 1290 247 1241 c 1,11,-1
 123 1248 l 1,12,13
 123 1355 123 1355 183.5 1425 c 128,-1,14
 244 1495 244 1495 337 1495 c 0,15,16
 372 1495 372 1495 400 1485 c 128,-1,17
 428 1475 428 1475 476 1446 c 128,-1,18
 524 1417 524 1417 549.5 1408 c 128,-1,19
 575 1399 575 1399 606 1399 c 0,20,21
 649 1399 649 1399 677.5 1433 c 128,-1,22
 706 1467 706 1467 706 1512 c 1,23,-1
 830 1500 l 1,0,1
EndSplineSet
EndChar

StartChar: hungarumlaut
Encoding: 733 733 162
Width: 764
Flags: W
LayerCount: 2
Fore
SplineSet
605 1535 m 1,0,-1
 812 1535 l 1,1,-1
 543 1232 l 1,2,-1
 374 1232 l 1,3,-1
 605 1535 l 1,0,-1
265 1535 m 1,4,-1
 462 1535 l 1,5,-1
 244 1232 l 1,6,-1
 94 1232 l 1,7,-1
 265 1535 l 1,4,-1
EndSplineSet
EndChar

StartChar: uni02F3
Encoding: 755 755 163
Width: 602
Flags: W
LayerCount: 2
Fore
SplineSet
126 -242 m 0,0,1
 126 -172 126 -172 176 -123.5 c 128,-1,2
 226 -75 226 -75 300 -75 c 0,3,4
 371 -75 371 -75 420 -123 c 128,-1,5
 469 -171 469 -171 469 -242 c 0,6,7
 469 -312 469 -312 421 -358.5 c 128,-1,8
 373 -405 373 -405 300 -405 c 0,9,10
 224 -405 224 -405 175 -358 c 128,-1,11
 126 -311 126 -311 126 -242 c 0,0,1
213 -242 m 0,12,13
 213 -277 213 -277 239 -301 c 128,-1,14
 265 -325 265 -325 300 -325 c 128,-1,15
 335 -325 335 -325 359 -301 c 128,-1,16
 383 -277 383 -277 383 -242 c 0,17,18
 383 -206 383 -206 359 -181 c 128,-1,19
 335 -156 335 -156 300 -156 c 0,20,21
 263 -156 263 -156 238 -182 c 128,-1,22
 213 -208 213 -208 213 -242 c 0,12,13
EndSplineSet
EndChar

StartChar: gravecomb
Encoding: 768 768 164
Width: 0
GlyphClass: 4
Flags: W
LayerCount: 2
Fore
SplineSet
-440 1242 m 1,0,-1
 -599 1242 l 1,1,-1
 -857 1536 l 1,2,-1
 -633 1536 l 1,3,-1
 -440 1242 l 1,0,-1
EndSplineSet
EndChar

StartChar: acutecomb
Encoding: 769 769 165
Width: 0
GlyphClass: 4
Flags: W
LayerCount: 2
Fore
SplineSet
-464 1536 m 1,0,-1
 -240 1536 l 1,1,-1
 -508 1242 l 1,2,-1
 -657 1242 l 1,3,-1
 -464 1536 l 1,0,-1
EndSplineSet
EndChar

StartChar: hookabovecomb
Encoding: 777 777 167
Width: 0
GlyphClass: 4
Flags: W
LayerCount: 2
Fore
SplineSet
-652 1241 m 1,0,-1
 -653 1394 l 1,1,2
 -578 1399 -578 1399 -543 1414 c 128,-1,3
 -508 1429 -508 1429 -508 1468 c 128,-1,4
 -508 1507 -508 1507 -553.5 1526.5 c 128,-1,5
 -599 1546 -599 1546 -674 1546 c 1,6,-1
 -667 1652 l 1,7,8
 -518 1652 -518 1652 -441 1600.5 c 128,-1,9
 -364 1549 -364 1549 -364 1464 c 0,10,11
 -364 1403 -364 1403 -403 1363 c 128,-1,12
 -442 1323 -442 1323 -519 1312 c 1,13,-1
 -520 1241 l 1,14,-1
 -652 1241 l 1,0,-1
EndSplineSet
EndChar

StartChar: uni030F
Encoding: 783 783 168
Width: 0
GlyphClass: 4
Flags: W
LayerCount: 2
Fore
SplineSet
-510 1252 m 1,0,-1
 -679 1252 l 1,1,-1
 -985 1518 l 1,2,-1
 -760 1518 l 1,3,-1
 -510 1252 l 1,0,-1
-249 1252 m 1,4,-1
 -399 1252 l 1,5,-1
 -645 1518 l 1,6,-1
 -439 1518 l 1,7,-1
 -249 1252 l 1,4,-1
EndSplineSet
EndChar

StartChar: dotbelowcomb
Encoding: 803 803 169
Width: 0
GlyphClass: 4
Flags: W
LayerCount: 2
Fore
SplineSet
-712 -245 m 256,0,1
 -712 -200 -712 -200 -684.5 -169 c 128,-1,2
 -657 -138 -657 -138 -603 -138 c 128,-1,3
 -549 -138 -549 -138 -521 -169 c 128,-1,4
 -493 -200 -493 -200 -493 -245 c 128,-1,5
 -493 -290 -493 -290 -521 -320 c 128,-1,6
 -549 -350 -549 -350 -603 -350 c 128,-1,7
 -657 -350 -657 -350 -684.5 -320 c 128,-1,8
 -712 -290 -712 -290 -712 -245 c 256,0,1
EndSplineSet
EndChar

StartChar: tonos
Encoding: 900 900 170
Width: 525
Flags: W
LayerCount: 2
Fore
SplineSet
237 1599 m 1,0,-1
 411 1599 l 1,1,-1
 295 1262 l 1,2,-1
 183 1262 l 1,3,-1
 237 1599 l 1,0,-1
EndSplineSet
EndChar

StartChar: dieresistonos
Encoding: 901 901 171
Width: 1035
Flags: W
LayerCount: 2
Fore
SplineSet
481 1672 m 1,0,-1
 669 1672 l 1,1,-1
 568 1408 l 1,2,-1
 433 1408 l 1,3,-1
 481 1672 l 1,0,-1
113 1371 m 256,4,5
 113 1416 113 1416 140.5 1446.5 c 128,-1,6
 168 1477 168 1477 222 1477 c 128,-1,7
 276 1477 276 1477 304 1446.5 c 128,-1,8
 332 1416 332 1416 332 1371 c 128,-1,9
 332 1326 332 1326 304 1296 c 128,-1,10
 276 1266 276 1266 222 1266 c 128,-1,11
 168 1266 168 1266 140.5 1296 c 128,-1,12
 113 1326 113 1326 113 1371 c 256,4,5
680 1369 m 256,13,14
 680 1414 680 1414 707.5 1445 c 128,-1,15
 735 1476 735 1476 789 1476 c 128,-1,16
 843 1476 843 1476 871 1445 c 128,-1,17
 899 1414 899 1414 899 1369 c 128,-1,18
 899 1324 899 1324 871 1294 c 128,-1,19
 843 1264 843 1264 789 1264 c 128,-1,20
 735 1264 735 1264 707.5 1294 c 128,-1,21
 680 1324 680 1324 680 1369 c 256,13,14
EndSplineSet
EndChar

StartChar: Gamma
Encoding: 915 915 173
Width: 1139
GlyphClass: 2
Flags: W
LayerCount: 2
Fore
SplineSet
1072 1298 m 1,0,-1
 370 1298 l 1,1,-1
 370 0 l 1,2,-1
 177 0 l 1,3,-1
 177 1456 l 1,4,-1
 1072 1456 l 1,5,-1
 1072 1298 l 1,0,-1
EndSplineSet
Substitution2: "'c2sc' Capitals to Small Capitals lookup 0 subtable" Gamma.c2sc
Position2: "'cpsp' Capital Spacing lookup 0 subtable" dx=36 dy=0 dh=72 dv=0
EndChar

StartChar: Delta
Encoding: 8710 8710 174
AltUni2: 000394.ffffffff.0
Width: 1444
Flags: W
LayerCount: 2
Fore
SplineSet
646 1456 m 1,0,-1
 816 1456 l 1,1,-1
 1395 0 l 1,2,-1
 31 0 l 1,3,-1
 646 1456 l 1,0,-1
293 157 m 1,4,-1
 1137 157 l 1,5,-1
 728 1221 l 1,6,-1
 293 157 l 1,4,-1
EndSplineSet
Substitution2: "'c2sc' Capitals to Small Capitals lookup 0 subtable" Delta.c2sc
Position2: "'cpsp' Capital Spacing lookup 0 subtable" dx=36 dy=0 dh=72 dv=0
EndChar

StartChar: Theta
Encoding: 920 920 175
Width: 1393
Flags: W
LayerCount: 2
Fore
SplineSet
960 659 m 1,0,-1
 443 659 l 1,1,-1
 443 811 l 1,2,-1
 960 811 l 1,3,-1
 960 659 l 1,0,-1
1274 681 m 2,4,5
 1274 468 1274 468 1202.5 309 c 128,-1,6
 1131 150 1131 150 999 65 c 128,-1,7
 867 -20 867 -20 690 -20 c 0,8,9
 518 -20 518 -20 385 64.5 c 128,-1,10
 252 149 252 149 178.5 305.5 c 128,-1,11
 105 462 105 462 103 668 c 2,12,-1
 103 773 l 2,13,14
 103 983 103 983 176 1144 c 128,-1,15
 249 1305 249 1305 382.5 1390.5 c 128,-1,16
 516 1476 516 1476 688 1476 c 0,17,18
 863 1476 863 1476 995 1392 c 128,-1,19
 1127 1308 1127 1308 1199.5 1150.5 c 128,-1,20
 1272 993 1272 993 1274 786 c 2,21,-1
 1274 681 l 2,4,5
1083 775 m 2,22,23
 1083 1034 1083 1034 979 1172.5 c 128,-1,24
 875 1311 875 1311 688 1311 c 0,25,26
 506 1311 506 1311 401.5 1172.5 c 128,-1,27
 297 1034 297 1034 294 788 c 2,28,-1
 294 681 l 2,29,30
 294 431 294 431 398.5 287 c 128,-1,31
 503 143 503 143 690 143 c 0,32,33
 876 143 876 143 978 278.5 c 128,-1,34
 1080 414 1080 414 1083 667 c 2,35,-1
 1083 775 l 2,22,23
EndSplineSet
Substitution2: "'c2sc' Capitals to Small Capitals lookup 0 subtable" Theta.c2sc
Position2: "'cpsp' Capital Spacing lookup 0 subtable" dx=36 dy=0 dh=72 dv=0
EndChar

StartChar: Lambda
Encoding: 923 923 176
Width: 1342
Flags: W
LayerCount: 2
Fore
SplineSet
666 1161 m 1,0,-1
 256 0 l 1,1,-1
 50 0 l 1,2,-1
 580 1456 l 1,3,-1
 752 1456 l 1,4,-1
 1283 0 l 1,5,-1
 1076 0 l 1,6,-1
 666 1161 l 1,0,-1
EndSplineSet
Substitution2: "'c2sc' Capitals to Small Capitals lookup 0 subtable" Lambda.c2sc
Position2: "'cpsp' Capital Spacing lookup 0 subtable" dx=36 dy=0 dh=72 dv=0
EndChar

StartChar: Xi
Encoding: 926 926 177
Width: 1169
Flags: W
LayerCount: 2
Fore
SplineSet
120 157 m 1,0,-1
 1057 157 l 1,1,-1
 1057 0 l 1,2,-1
 120 0 l 1,3,-1
 120 157 l 1,0,-1
207 831 m 1,4,-1
 961 831 l 1,5,-1
 961 674 l 1,6,-1
 207 674 l 1,7,-1
 207 831 l 1,4,-1
124 1456 m 1,8,-1
 1040 1456 l 1,9,-1
 1040 1298 l 1,10,-1
 124 1298 l 1,11,-1
 124 1456 l 1,8,-1
EndSplineSet
Substitution2: "'c2sc' Capitals to Small Capitals lookup 0 subtable" Xi.c2sc
Position2: "'cpsp' Capital Spacing lookup 0 subtable" dx=36 dy=0 dh=72 dv=0
EndChar

StartChar: Pi
Encoding: 928 928 178
Width: 1461
Flags: W
LayerCount: 2
Fore
SplineSet
1281 0 m 1,0,-1
 1088 0 l 1,1,-1
 1088 1298 l 1,2,-1
 370 1298 l 1,3,-1
 370 0 l 1,4,-1
 178 0 l 1,5,-1
 178 1456 l 1,6,-1
 1281 1456 l 1,7,-1
 1281 0 l 1,0,-1
EndSplineSet
Substitution2: "'c2sc' Capitals to Small Capitals lookup 0 subtable" Pi.c2sc
Position2: "'cpsp' Capital Spacing lookup 0 subtable" dx=36 dy=0 dh=72 dv=0
EndChar

StartChar: Sigma
Encoding: 931 931 179
Width: 1169
Flags: W
LayerCount: 2
Fore
SplineSet
754 718 m 1,0,-1
 309 157 l 1,1,-1
 1092 157 l 1,2,-1
 1092 0 l 1,3,-1
 69 0 l 1,4,-1
 69 143 l 1,5,-1
 550 729 l 1,6,-1
 69 1312 l 1,7,-1
 69 1456 l 1,8,-1
 1043 1456 l 1,9,-1
 1043 1298 l 1,10,-1
 311 1298 l 1,11,-1
 754 742 l 1,12,-1
 754 718 l 1,0,-1
EndSplineSet
Substitution2: "'c2sc' Capitals to Small Capitals lookup 0 subtable" Sigma.c2sc
Position2: "'cpsp' Capital Spacing lookup 0 subtable" dx=36 dy=0 dh=72 dv=0
EndChar

StartChar: Phi
Encoding: 934 934 180
Width: 1467
Flags: W
LayerCount: 2
Fore
SplineSet
834 1271 m 1,0,1
 995 1268 995 1268 1123.5 1199 c 128,-1,2
 1252 1130 1252 1130 1324 1005 c 128,-1,3
 1396 880 1396 880 1396 724 c 0,4,5
 1396 566 1396 566 1324.5 441 c 128,-1,6
 1253 316 1253 316 1125.5 247.5 c 128,-1,7
 998 179 998 179 834 175 c 1,8,-1
 834 0 l 1,9,-1
 640 0 l 1,10,-1
 640 175 l 1,11,12
 389 179 389 179 233 330.5 c 128,-1,13
 77 482 77 482 77 722 c 0,14,15
 77 870 77 870 139.5 989 c 128,-1,16
 202 1108 202 1108 318 1181 c 0,17,18
 457 1268 457 1268 640 1271 c 1,19,-1
 640 1456 l 1,20,-1
 834 1456 l 1,21,-1
 834 1271 l 1,0,1
268 722 m 0,22,23
 268 538 268 538 365 438 c 128,-1,24
 462 338 462 338 640 334 c 1,25,-1
 640 1111 l 1,26,27
 460 1107 460 1107 364 1006 c 128,-1,28
 268 905 268 905 268 722 c 0,22,23
1205 724 m 0,29,30
 1205 905 1205 905 1108.5 1006 c 128,-1,31
 1012 1107 1012 1107 834 1111 c 1,32,-1
 834 334 l 1,33,34
 1014 338 1014 338 1109.5 439.5 c 128,-1,35
 1205 541 1205 541 1205 724 c 0,29,30
EndSplineSet
Substitution2: "'c2sc' Capitals to Small Capitals lookup 0 subtable" Phi.c2sc
Position2: "'cpsp' Capital Spacing lookup 0 subtable" dx=36 dy=0 dh=72 dv=0
EndChar

StartChar: Psi
Encoding: 936 936 181
Width: 1417
Flags: W
LayerCount: 2
Fore
SplineSet
790 523 m 1,0,1
 946 546 946 546 1033 653.5 c 128,-1,2
 1120 761 1120 761 1120 931 c 2,3,-1
 1120 1456 l 1,4,-1
 1313 1456 l 1,5,-1
 1313 928 l 2,6,7
 1313 769 1313 769 1249.5 646.5 c 128,-1,8
 1186 524 1186 524 1067.5 450.5 c 128,-1,9
 949 377 949 377 790 362 c 1,10,-1
 790 0 l 1,11,-1
 597 0 l 1,12,-1
 597 362 l 1,13,14
 366 385 366 385 229.5 534 c 128,-1,15
 93 683 93 683 90 920 c 2,16,-1
 90 1456 l 1,17,-1
 282 1456 l 1,18,-1
 282 927 l 2,19,20
 283 764 283 764 365.5 656.5 c 128,-1,21
 448 549 448 549 597 524 c 1,22,-1
 597 1456 l 1,23,-1
 790 1456 l 1,24,-1
 790 523 l 1,0,1
EndSplineSet
Substitution2: "'c2sc' Capitals to Small Capitals lookup 0 subtable" Psi.c2sc
Position2: "'cpsp' Capital Spacing lookup 0 subtable" dx=36 dy=0 dh=72 dv=0
EndChar

StartChar: Omega
Encoding: 8486 8486 182
AltUni2: 0003a9.ffffffff.0
Width: 1362
GlyphClass: 2
Flags: W
LayerCount: 2
Fore
SplineSet
737 162 m 1,0,1
 875 189 875 189 952 331 c 128,-1,2
 1029 473 1029 473 1032 707 c 2,3,-1
 1032 841 l 2,4,5
 1032 1072 1032 1072 935 1195 c 128,-1,6
 838 1318 838 1318 669 1318 c 128,-1,7
 500 1318 500 1318 404 1193 c 128,-1,8
 308 1068 308 1068 308 839 c 2,9,-1
 308 726 l 2,10,11
 308 486 308 486 386.5 338 c 128,-1,12
 465 190 465 190 610 162 c 1,13,-1
 610 0 l 1,14,-1
 118 0 l 1,15,-1
 118 157 l 1,16,-1
 339 157 l 1,17,18
 233 259 233 259 173 412.5 c 128,-1,19
 113 566 113 566 113 728 c 2,20,-1
 113 839 l 2,21,22
 113 1025 113 1025 183.5 1171 c 128,-1,23
 254 1317 254 1317 381 1396.5 c 128,-1,24
 508 1476 508 1476 669 1476 c 0,25,26
 829 1476 829 1476 955.5 1398 c 128,-1,27
 1082 1320 1082 1320 1153 1178 c 128,-1,28
 1224 1036 1224 1036 1227 856 c 2,29,-1
 1227 726 l 2,30,31
 1227 566 1227 566 1167 412.5 c 128,-1,32
 1107 259 1107 259 1001 157 c 1,33,-1
 1221 157 l 1,34,-1
 1221 0 l 1,35,-1
 737 0 l 1,36,-1
 737 162 l 1,0,1
EndSplineSet
Substitution2: "'c2sc' Capitals to Small Capitals lookup 0 subtable" Omega.c2sc
Position2: "'cpsp' Capital Spacing lookup 0 subtable" dx=36 dy=0 dh=72 dv=0
EndChar

StartChar: alpha
Encoding: 945 945 183
Width: 1157
GlyphClass: 2
Flags: W
LayerCount: 2
Fore
SplineSet
1006 1082 m 1,0,-1
 1006 285 l 2,1,2
 1008 145 1008 145 1086 145 c 0,3,4
 1105 145 1105 145 1120 150 c 1,5,-1
 1143 13 l 1,6,7
 1095 -21 1095 -21 1021 -21 c 0,8,9
 874 -21 874 -21 836 144 c 1,10,11
 729 -21 729 -21 520 -21 c 0,12,13
 328 -21 328 -21 214 120.5 c 128,-1,14
 100 262 100 262 100 506 c 2,15,-1
 100 521 l 2,16,17
 100 785 100 785 213 943.5 c 128,-1,18
 326 1102 326 1102 522 1102 c 0,19,20
 725 1102 725 1102 832 941 c 1,21,-1
 849 1082 l 1,22,-1
 1006 1082 l 1,0,-1
285 500 m 0,23,24
 285 325 285 325 358 227.5 c 128,-1,25
 431 130 431 130 566 130 c 0,26,27
 739 130 739 130 821 316 c 1,28,-1
 821 762 l 1,29,30
 736 950 736 950 568 950 c 0,31,32
 434 950 434 950 359.5 836.5 c 128,-1,33
 285 723 285 723 285 500 c 0,23,24
EndSplineSet
Substitution2: "'ss02' Style Set 2 lookup 12 subtable" alpha.ss02
Substitution2: "'smcp' Lowercase to Small Capitals lookup 1 subtable" Alpha.c2sc
EndChar

StartChar: beta
Encoding: 946 946 184
Width: 1213
Flags: W
LayerCount: 2
Fore
SplineSet
605 1476 m 0,0,1
 798 1476 798 1476 915.5 1366.5 c 128,-1,2
 1033 1257 1033 1257 1033 1083 c 0,3,4
 1033 992 1033 992 984 916 c 128,-1,5
 935 840 935 840 847 794 c 1,6,7
 970 749 970 749 1035.5 651.5 c 128,-1,8
 1101 554 1101 554 1101 424 c 0,9,10
 1101 219 1101 219 976.5 99.5 c 128,-1,11
 852 -20 852 -20 647 -20 c 0,12,13
 466 -20 466 -20 346 75 c 1,14,-1
 346 -384 l 1,15,-1
 160 -384 l 1,16,-1
 160 1073 l 2,17,18
 160 1181 160 1181 221 1275 c 128,-1,19
 282 1369 282 1369 385.5 1422.5 c 128,-1,20
 489 1476 489 1476 605 1476 c 0,0,1
848 1087 m 0,21,22
 848 1189 848 1189 780 1256.5 c 128,-1,23
 712 1324 712 1324 605 1324 c 0,24,25
 497 1324 497 1324 422 1253 c 128,-1,26
 347 1182 347 1182 346 1075 c 2,27,-1
 346 246 l 1,28,29
 390 194 390 194 462 162.5 c 128,-1,30
 534 131 534 131 628 131 c 0,31,32
 762 131 762 131 839 211 c 128,-1,33
 916 291 916 291 916 420 c 0,34,35
 916 538 916 538 846 620.5 c 128,-1,36
 776 703 776 703 667 706 c 2,37,-1
 517 706 l 1,38,-1
 517 858 l 1,39,-1
 602 858 l 2,40,41
 722 858 722 858 785 917.5 c 128,-1,42
 848 977 848 977 848 1087 c 0,21,22
EndSplineSet
Substitution2: "'smcp' Lowercase to Small Capitals lookup 1 subtable" Beta.c2sc
EndChar

StartChar: gamma
Encoding: 947 947 185
Width: 1026
Flags: W
LayerCount: 2
Fore
SplineSet
522 276 m 1,0,-1
 802 1082 l 1,1,-1
 991 1082 l 1,2,-1
 612 57 l 1,3,-1
 612 -416 l 1,4,-1
 426 -416 l 1,5,-1
 426 64 l 1,6,-1
 46 1082 l 1,7,-1
 235 1082 l 1,8,-1
 522 276 l 1,0,-1
EndSplineSet
Substitution2: "'smcp' Lowercase to Small Capitals lookup 1 subtable" Gamma.c2sc
EndChar

StartChar: delta
Encoding: 948 948 186
Width: 1160
Flags: W
LayerCount: 2
Fore
SplineSet
221 1269 m 0,0,1
 221 1405 221 1405 322.5 1484.5 c 128,-1,2
 424 1564 424 1564 599 1564 c 0,3,4
 738 1564 738 1564 872 1509 c 1,5,-1
 870 1349 l 1,6,7
 719 1408 719 1408 595 1408 c 0,8,9
 509 1408 509 1408 458.5 1372 c 128,-1,10
 408 1336 408 1336 408 1274 c 0,11,12
 408 1166 408 1166 629.5 1089.5 c 128,-1,13
 851 1013 851 1013 954.5 878.5 c 128,-1,14
 1058 744 1058 744 1063 548 c 1,15,-1
 1063 509 l 2,16,17
 1063 356 1063 356 1004 234.5 c 128,-1,18
 945 113 945 113 835.5 46.5 c 128,-1,19
 726 -20 726 -20 581 -20 c 0,20,21
 359 -20 359 -20 227.5 127.5 c 128,-1,22
 96 275 96 275 96 517 c 2,23,-1
 96 530 l 2,24,25
 96 695 96 695 190 827 c 128,-1,26
 284 959 284 959 428 994 c 1,27,-1
 427 999 l 1,28,29
 328 1038 328 1038 274.5 1108 c 128,-1,30
 221 1178 221 1178 221 1269 c 0,0,1
283 509 m 0,31,32
 283 333 283 333 363.5 231.5 c 128,-1,33
 444 130 444 130 581 130 c 0,34,35
 717 130 717 130 797 231 c 128,-1,36
 877 332 877 332 877 530 c 0,37,38
 877 666 877 666 792.5 775.5 c 128,-1,39
 708 885 708 885 583 910 c 1,40,41
 447 910 447 910 365 807.5 c 128,-1,42
 283 705 283 705 283 509 c 0,31,32
EndSplineSet
Substitution2: "'smcp' Lowercase to Small Capitals lookup 1 subtable" Delta.c2sc
EndChar

StartChar: epsilon
Encoding: 949 949 187
Width: 1104
GlyphClass: 2
Flags: W
LayerCount: 2
Fore
SplineSet
286 304 m 0,0,1
 286 227 286 227 359.5 178 c 128,-1,2
 433 129 433 129 551 129 c 0,3,4
 664 129 664 129 741.5 184 c 128,-1,5
 819 239 819 239 819 320 c 1,6,-1
 1004 320 l 1,7,8
 1004 165 1004 165 876.5 72.5 c 128,-1,9
 749 -20 749 -20 551 -20 c 0,10,11
 347 -20 347 -20 223 68.5 c 128,-1,12
 99 157 99 157 99 304 c 0,13,14
 99 490 99 490 304 556 c 1,15,16
 216 592 216 592 167 653 c 128,-1,17
 118 714 118 714 118 787 c 0,18,19
 118 935 118 935 233.5 1018 c 128,-1,20
 349 1101 349 1101 551 1101 c 0,21,22
 737 1101 737 1101 861.5 1011.5 c 128,-1,23
 986 922 986 922 986 780 c 1,24,-1
 801 780 l 1,25,26
 801 850 801 850 729.5 900.5 c 128,-1,27
 658 951 658 951 551 951 c 0,28,29
 439 951 439 951 371.5 905.5 c 128,-1,30
 304 860 304 860 304 786 c 0,31,32
 304 626 304 626 548 626 c 2,33,-1
 744 626 l 1,34,-1
 744 478 l 1,35,-1
 520 478 l 1,36,37
 286 472 286 472 286 304 c 0,0,1
EndSplineSet
Substitution2: "'smcp' Lowercase to Small Capitals lookup 1 subtable" Epsilon.c2sc
EndChar

StartChar: zeta
Encoding: 950 950 188
Width: 1061
Flags: W
LayerCount: 2
Fore
SplineSet
963 1456 m 1,0,-1
 963 1336 l 1,1,-1
 613 909 l 1,2,3
 475 748 475 748 424 633.5 c 128,-1,4
 373 519 373 519 373 386 c 0,5,6
 373 296 373 296 406.5 247.5 c 128,-1,7
 440 199 440 199 522 174 c 2,8,-1
 769 102 l 2,9,10
 850 78 850 78 885.5 34 c 128,-1,11
 921 -10 921 -10 921 -88 c 0,12,13
 919 -157 919 -157 865 -243 c 128,-1,14
 811 -329 811 -329 744 -383 c 1,15,-1
 646 -299 l 1,16,17
 693 -246 693 -246 718.5 -203.5 c 128,-1,18
 744 -161 744 -161 744 -116 c 0,19,20
 744 -48 744 -48 590 -9 c 128,-1,21
 436 30 436 30 382 54 c 0,22,23
 279 99 279 99 233.5 175.5 c 128,-1,24
 188 252 188 252 188 381 c 0,25,26
 188 511 188 511 261 671 c 128,-1,27
 334 831 334 831 461 981 c 1,28,-1
 746 1304 l 1,29,-1
 109 1304 l 1,30,-1
 109 1456 l 1,31,-1
 963 1456 l 1,0,-1
EndSplineSet
Substitution2: "'smcp' Lowercase to Small Capitals lookup 1 subtable" Zeta.c2sc
EndChar

StartChar: eta
Encoding: 951 951 189
Width: 1160
GlyphClass: 2
Flags: W
LayerCount: 2
Fore
SplineSet
312 1082 m 1,0,-1
 323 946 l 1,1,2
 443 1102 443 1102 643 1102 c 0,3,4
 833 1102 833 1102 920 1003.5 c 128,-1,5
 1007 905 1007 905 1008 701 c 2,6,-1
 1008 -415 l 1,7,-1
 823 -415 l 1,8,-1
 823 690 l 2,9,10
 823 826 823 826 769 888 c 128,-1,11
 715 950 715 950 587 950 c 0,12,13
 495 950 495 950 430 906.5 c 128,-1,14
 365 863 365 863 331 785 c 1,15,-1
 331 0 l 1,16,-1
 145 0 l 1,17,-1
 145 1082 l 1,18,-1
 312 1082 l 1,0,-1
EndSplineSet
Substitution2: "'smcp' Lowercase to Small Capitals lookup 1 subtable" Eta.c2sc
EndChar

StartChar: theta
Encoding: 952 952 190
Width: 1166
Flags: W
LayerCount: 2
Fore
SplineSet
1042 640 m 2,0,1
 1042 319 1042 319 924 149.5 c 128,-1,2
 806 -20 806 -20 583 -20 c 0,3,4
 364 -20 364 -20 245 146 c 128,-1,5
 126 312 126 312 122 620 c 1,6,-1
 122 825 l 2,7,8
 122 1142 122 1142 240 1309 c 128,-1,9
 358 1476 358 1476 581 1476 c 0,10,11
 803 1476 803 1476 920.5 1314 c 128,-1,12
 1038 1152 1038 1152 1042 845 c 1,13,-1
 1042 640 l 2,0,1
307 801 m 1,14,-1
 856 801 l 1,15,-1
 856 856 l 2,16,17
 856 1083 856 1083 786.5 1203.5 c 128,-1,18
 717 1324 717 1324 581 1324 c 0,19,20
 447 1324 447 1324 377 1203.5 c 128,-1,21
 307 1083 307 1083 307 856 c 2,22,-1
 307 801 l 1,14,-1
856 649 m 1,23,-1
 307 649 l 1,24,-1
 307 610 l 2,25,26
 307 381 307 381 380 256 c 128,-1,27
 453 131 453 131 583 131 c 128,-1,28
 713 131 713 131 783.5 251 c 128,-1,29
 854 371 854 371 856 598 c 2,30,-1
 856 649 l 1,23,-1
EndSplineSet
Substitution2: "'smcp' Lowercase to Small Capitals lookup 1 subtable" Theta.c2sc
EndChar

StartChar: iota
Encoding: 953 953 191
Width: 663
GlyphClass: 2
Flags: W
LayerCount: 2
Fore
SplineSet
380 1082 m 1,0,-1
 380 273 l 2,1,2
 380 210 380 210 407.5 178 c 128,-1,3
 435 146 435 146 499 146 c 0,4,5
 547 146 547 146 586 158 c 1,6,-1
 587 7 l 1,7,8
 517 -12 517 -12 444 -12 c 0,9,10
 195 -12 195 -12 195 282 c 2,11,-1
 195 1082 l 1,12,-1
 380 1082 l 1,0,-1
EndSplineSet
Substitution2: "'smcp' Lowercase to Small Capitals lookup 1 subtable" Iota.c2sc
EndChar

StartChar: lambda
Encoding: 955 955 192
Width: 1134
Flags: W
LayerCount: 2
Fore
SplineSet
261 1518 m 0,0,1
 359 1518 359 1518 419 1478 c 128,-1,2
 479 1438 479 1438 512 1343 c 2,3,-1
 939 234 l 2,4,5
 959 183 959 183 981.5 163.5 c 128,-1,6
 1004 144 1004 144 1039 144 c 2,7,-1
 1077 147 l 1,8,-1
 1083 -5 l 1,9,10
 1047 -17 1047 -17 1005 -17 c 0,11,12
 928 -17 928 -17 889 1.5 c 128,-1,13
 850 20 850 20 819 63 c 128,-1,14
 788 106 788 106 759 186 c 2,15,-1
 529 779 l 1,16,-1
 243 0 l 1,17,-1
 37 0 l 1,18,-1
 431 1029 l 1,19,-1
 335 1264 l 2,20,21
 312 1320 312 1320 285.5 1343 c 128,-1,22
 259 1366 259 1366 214 1366 c 2,23,-1
 167 1364 l 1,24,-1
 166 1506 l 1,25,26
 208 1518 208 1518 261 1518 c 0,0,1
EndSplineSet
Substitution2: "'smcp' Lowercase to Small Capitals lookup 1 subtable" Lambda.c2sc
EndChar

StartChar: xi
Encoding: 958 958 193
Width: 1004
Flags: W
LayerCount: 2
Fore
SplineSet
882 1288 m 1,0,1
 750 1324 750 1324 653 1324 c 0,2,3
 512 1324 512 1324 432 1272.5 c 128,-1,4
 352 1221 352 1221 352 1136 c 0,5,6
 352 917 352 917 685 917 c 2,7,-1
 818 917 l 1,8,-1
 818 765 l 1,9,-1
 668 765 l 2,10,11
 486 763 486 763 386.5 685 c 128,-1,12
 287 607 287 607 287 444 c 0,13,14
 287 332 287 332 359 253.5 c 128,-1,15
 431 175 431 175 566.5 142.5 c 128,-1,16
 702 110 702 110 764 91.5 c 128,-1,17
 826 73 826 73 858 53 c 0,18,19
 937 4 937 4 937 -101 c 0,20,21
 937 -165 937 -165 885 -248.5 c 128,-1,22
 833 -332 833 -332 761 -393 c 1,23,-1
 654 -309 l 1,24,-1
 711 -245 l 2,25,26
 760 -185 760 -185 760 -123 c 0,27,28
 760 -84 760 -84 722 -61 c 128,-1,29
 684 -38 684 -38 569 -12.5 c 128,-1,30
 454 13 454 13 369.5 46 c 128,-1,31
 285 79 285 79 225.5 131.5 c 128,-1,32
 166 184 166 184 133.5 260.5 c 128,-1,33
 101 337 101 337 101 448 c 0,34,35
 101 593 101 593 183 694.5 c 128,-1,36
 265 796 265 796 415 842 c 1,37,38
 297 884 297 884 231.5 960 c 128,-1,39
 166 1036 166 1036 166 1132 c 0,40,41
 166 1291 166 1291 295 1383.5 c 128,-1,42
 424 1476 424 1476 652 1476 c 0,43,44
 797 1476 797 1476 909 1437 c 1,45,-1
 882 1288 l 1,0,1
EndSplineSet
Substitution2: "'smcp' Lowercase to Small Capitals lookup 1 subtable" Xi.c2sc
EndChar

StartChar: pi
Encoding: 960 960 194
Width: 1220
Flags: W
LayerCount: 2
Fore
SplineSet
1137 929 m 1,0,-1
 981 929 l 1,1,-1
 981 275 l 2,2,3
 981 211 981 211 1008 178.5 c 128,-1,4
 1035 146 1035 146 1100 146 c 0,5,6
 1148 146 1148 146 1187 158 c 1,7,-1
 1188 7 l 1,8,9
 1118 -12 1118 -12 1045 -12 c 0,10,11
 796 -12 796 -12 796 282 c 2,12,-1
 796 929 l 1,13,-1
 395 929 l 1,14,-1
 395 0 l 1,15,-1
 210 0 l 1,16,-1
 210 929 l 1,17,-1
 41 929 l 1,18,-1
 41 1082 l 1,19,-1
 1137 1082 l 1,20,-1
 1137 929 l 1,0,-1
EndSplineSet
Substitution2: "'smcp' Lowercase to Small Capitals lookup 1 subtable" Pi.c2sc
EndChar

StartChar: rho
Encoding: 961 961 195
Width: 1160
GlyphClass: 2
Flags: W
LayerCount: 2
Fore
SplineSet
592 1102 m 0,0,1
 799 1102 799 1102 921 961 c 128,-1,2
 1043 820 1043 820 1054 566 c 1,3,-1
 1055 500 l 2,4,5
 1055 260 1055 260 943 120 c 128,-1,6
 831 -20 831 -20 640 -20 c 0,7,8
 445 -20 445 -20 331 104 c 1,9,-1
 331 -416 l 1,10,-1
 145 -416 l 1,11,-1
 145 580 l 2,12,13
 145 738 145 738 201.5 856 c 128,-1,14
 258 974 258 974 360.5 1038 c 128,-1,15
 463 1102 463 1102 592 1102 c 0,0,1
331 278 m 1,16,17
 414 131 414 131 585 131 c 0,18,19
 720 131 720 131 795 228.5 c 128,-1,20
 870 326 870 326 870 521 c 0,21,22
 870 726 870 726 797.5 838 c 128,-1,23
 725 950 725 950 592 950 c 0,24,25
 475 950 475 950 403 842 c 128,-1,26
 331 734 331 734 331 565 c 2,27,-1
 331 278 l 1,16,17
EndSplineSet
Substitution2: "'smcp' Lowercase to Small Capitals lookup 1 subtable" Rho.c2sc
EndChar

StartChar: sigma1
Encoding: 962 962 196
Width: 1101
Flags: W
LayerCount: 2
Fore
SplineSet
573 1102 m 0,0,1
 762 1102 762 1102 877.5 995.5 c 128,-1,2
 993 889 993 889 993 709 c 1,3,-1
 818 709 l 1,4,5
 818 819 818 819 751 884.5 c 128,-1,6
 684 950 684 950 573 950 c 0,7,8
 441 950 441 950 363.5 840.5 c 128,-1,9
 286 731 286 731 286 552 c 2,10,-1
 286 520 l 2,11,12
 286 260 286 260 606 161 c 1,13,-1
 740 123 l 2,14,15
 838 94 838 94 878 46 c 128,-1,16
 918 -2 918 -2 918 -82 c 0,17,18
 916 -145 916 -145 866.5 -228.5 c 128,-1,19
 817 -312 817 -312 743 -374 c 1,20,-1
 645 -289 l 1,21,-1
 692 -235 l 2,22,23
 741 -175 741 -175 741 -105 c 0,24,25
 741 -62 741 -62 706 -40.5 c 128,-1,26
 671 -19 671 -19 585 0 c 0,27,28
 349 52 349 52 225 180.5 c 128,-1,29
 101 309 101 309 101 520 c 2,30,-1
 101 562 l 2,31,32
 101 714 101 714 160.5 839.5 c 128,-1,33
 220 965 220 965 327.5 1033.5 c 128,-1,34
 435 1102 435 1102 573 1102 c 0,0,1
EndSplineSet
Substitution2: "'smcp' Lowercase to Small Capitals lookup 1 subtable" Sigma.c2sc
EndChar

StartChar: sigma
Encoding: 963 963 197
Width: 1160
Flags: W
LayerCount: 2
Fore
SplineSet
1147 929 m 1,0,-1
 863 929 l 1,1,2
 1063 781 1063 781 1063 508 c 2,3,-1
 1063 491 l 2,4,5
 1063 351 1063 351 1002 233.5 c 128,-1,6
 941 116 941 116 830.5 48 c 128,-1,7
 720 -20 720 -20 580 -20 c 0,8,9
 362 -20 362 -20 229 131.5 c 128,-1,10
 96 283 96 283 96 538 c 2,11,-1
 96 551 l 2,12,13
 96 703 96 703 155 824 c 128,-1,14
 214 945 214 945 322.5 1013 c 128,-1,15
 431 1081 431 1081 571 1082 c 2,16,-1
 1147 1082 l 1,17,-1
 1147 929 l 1,0,-1
282 529 m 0,18,19
 282 346 282 346 362 238.5 c 128,-1,20
 442 131 442 131 580 131 c 0,21,22
 719 131 719 131 798.5 239.5 c 128,-1,23
 878 348 878 348 878 551 c 0,24,25
 878 723 878 723 797.5 826 c 128,-1,26
 717 929 717 929 578 929 c 0,27,28
 441 929 441 929 361.5 827 c 128,-1,29
 282 725 282 725 282 529 c 0,18,19
EndSplineSet
Substitution2: "'smcp' Lowercase to Small Capitals lookup 1 subtable" Sigma.c2sc
EndChar

StartChar: tau
Encoding: 964 964 198
Width: 1068
Flags: W
LayerCount: 2
Fore
SplineSet
985 932 m 1,0,-1
 614 932 l 1,1,-1
 614 269 l 2,2,3
 614 136 614 136 719 136 c 0,4,5
 762 136 762 136 811 162 c 1,6,-1
 853 32 l 1,7,8
 777 -20 777 -20 671 -20 c 0,9,10
 546 -20 546 -20 487.5 53.5 c 128,-1,11
 429 127 429 127 428 273 c 2,12,-1
 428 932 l 1,13,-1
 81 932 l 1,14,-1
 81 1082 l 1,15,-1
 985 1082 l 1,16,-1
 985 932 l 1,0,-1
EndSplineSet
Substitution2: "'smcp' Lowercase to Small Capitals lookup 1 subtable" Tau.c2sc
EndChar

StartChar: upsilon
Encoding: 965 965 199
Width: 1117
GlyphClass: 2
Flags: W
LayerCount: 2
Fore
SplineSet
329 1082 m 1,0,-1
 329 435 l 2,1,2
 329 130 329 130 530 130 c 0,3,4
 659 130 659 130 744 255 c 128,-1,5
 829 380 829 380 829 562 c 0,6,7
 824 793 824 793 706 1082 c 1,8,-1
 901 1082 l 1,9,10
 1014 841 1014 841 1014 562 c 0,11,12
 1014 299 1014 299 885.5 139.5 c 128,-1,13
 757 -20 757 -20 539 -20 c 0,14,15
 345 -20 345 -20 245 92 c 128,-1,16
 145 204 145 204 143 419 c 2,17,-1
 143 1082 l 1,18,-1
 329 1082 l 1,0,-1
EndSplineSet
Substitution2: "'smcp' Lowercase to Small Capitals lookup 1 subtable" Upsilon.c2sc
EndChar

StartChar: phi
Encoding: 966 966 200
Width: 1443
Flags: W
LayerCount: 2
Fore
SplineSet
620 -17 m 1,0,1
 364 6 364 6 225.5 159.5 c 128,-1,2
 87 313 87 313 87 564 c 0,3,4
 87 732 87 732 151.5 863.5 c 128,-1,5
 216 995 216 995 343 1082 c 1,6,-1
 444 949 l 1,7,8
 283 809 283 809 273 564 c 1,9,10
 273 391 273 391 363.5 276.5 c 128,-1,11
 454 162 454 162 620 136 c 1,12,-1
 620 852 l 2,13,14
 620 957 620 957 689 1019.5 c 128,-1,15
 758 1082 758 1082 871 1082 c 0,16,17
 1001 1082 1001 1082 1113.5 1011.5 c 128,-1,18
 1226 941 1226 941 1291 817 c 128,-1,19
 1356 693 1356 693 1356 544 c 0,20,21
 1356 301 1356 301 1211 152.5 c 128,-1,22
 1066 4 1066 4 805 -17 c 1,23,-1
 805 -478 l 1,24,-1
 620 -478 l 1,25,-1
 620 -17 l 1,0,1
805 136 m 1,26,27
 975 158 975 158 1073 269 c 128,-1,28
 1171 380 1171 380 1171 544 c 1,29,30
 1166 713 1166 713 1083.5 821 c 128,-1,31
 1001 929 1001 929 871 929 c 0,32,33
 805 929 805 929 805 847 c 2,34,-1
 805 136 l 1,26,27
EndSplineSet
Substitution2: "'smcp' Lowercase to Small Capitals lookup 1 subtable" Phi.c2sc
EndChar

StartChar: psi
Encoding: 968 968 201
Width: 1434
GlyphClass: 2
Flags: W
LayerCount: 2
Fore
SplineSet
796 1082 m 1,0,-1
 796 136 l 1,1,2
 967 160 967 160 1064.5 274.5 c 128,-1,3
 1162 389 1162 389 1162 567 c 0,4,5
 1157 799 1157 799 1035 1082 c 1,6,-1
 1229 1082 l 1,7,8
 1347 846 1347 846 1347 567 c 0,9,10
 1347 308 1347 308 1204.5 156 c 128,-1,11
 1062 4 1062 4 796 -17 c 1,12,-1
 796 -472 l 1,13,-1
 611 -472 l 1,14,-1
 611 -15 l 1,15,16
 356 11 356 11 225.5 166 c 128,-1,17
 95 321 95 321 95 596 c 2,18,-1
 95 1082 l 1,19,-1
 281 1082 l 1,20,-1
 281 584 l 2,21,22
 283 390 283 390 366 276 c 128,-1,23
 449 162 449 162 611 137 c 1,24,-1
 611 1082 l 1,25,-1
 796 1082 l 1,0,-1
EndSplineSet
Substitution2: "'smcp' Lowercase to Small Capitals lookup 1 subtable" Psi.c2sc
EndChar

StartChar: omega
Encoding: 969 969 202
Width: 1687
GlyphClass: 2
Flags: W
LayerCount: 2
Fore
SplineSet
452 1082 m 1,0,1
 314 799 314 799 307 560 c 1,2,3
 307 357 307 357 364 243.5 c 128,-1,4
 421 130 421 130 527 130 c 0,5,6
 635 130 635 130 691.5 216.5 c 128,-1,7
 748 303 748 303 748 469 c 2,8,-1
 748 770 l 1,9,-1
 935 770 l 1,10,-1
 935 464 l 2,11,12
 936 300 936 300 992.5 215 c 128,-1,13
 1049 130 1049 130 1156 130 c 0,14,15
 1262 130 1262 130 1319 243 c 128,-1,16
 1376 356 1376 356 1376 560 c 1,17,18
 1369 799 1369 799 1231 1082 c 1,19,-1
 1426 1082 l 1,20,21
 1561 838 1561 838 1561 560 c 0,22,23
 1561 285 1561 285 1457.5 132.5 c 128,-1,24
 1354 -20 1354 -20 1166 -20 c 0,25,26
 926 -20 926 -20 841 218 c 1,27,28
 800 101 800 101 718 40.5 c 128,-1,29
 636 -20 636 -20 517 -20 c 0,30,31
 329 -20 329 -20 225.5 132.5 c 128,-1,32
 122 285 122 285 122 560 c 0,33,34
 122 847 122 847 257 1082 c 1,35,-1
 452 1082 l 1,0,1
EndSplineSet
Substitution2: "'smcp' Lowercase to Small Capitals lookup 1 subtable" Omega.c2sc
EndChar

StartChar: theta1
Encoding: 977 977 203
Width: 1185
Flags: W
LayerCount: 2
Fore
SplineSet
1145 627 m 1,0,1
 1085 604 1085 604 1002 595 c 1,2,-1
 1002 429 l 2,3,4
 1000 218 1000 218 885.5 99 c 128,-1,5
 771 -20 771 -20 571 -20 c 0,6,7
 368 -20 368 -20 244.5 103.5 c 128,-1,8
 121 227 121 227 121 442 c 2,9,-1
 121 769 l 1,10,-1
 307 771 l 1,11,-1
 307 435 l 2,12,13
 307 292 307 292 377 214.5 c 128,-1,14
 447 137 447 137 571 137 c 0,15,16
 687 137 687 137 752 210 c 128,-1,17
 817 283 817 283 817 435 c 2,18,-1
 817 601 l 1,19,20
 600 632 600 632 465.5 773 c 128,-1,21
 331 914 331 914 331 1131 c 0,22,23
 331 1291 331 1291 423 1384.5 c 128,-1,24
 515 1478 515 1478 665 1478 c 0,25,26
 824 1478 824 1478 913 1379.5 c 128,-1,27
 1002 1281 1002 1281 1002 1103 c 2,28,-1
 1002 752 l 1,29,30
 1065 757 1065 757 1137 776 c 1,31,-1
 1145 627 l 1,0,1
517 1114 m 2,32,33
 517 981 517 981 598 886.5 c 128,-1,34
 679 792 679 792 817 762 c 1,35,-1
 817 1122 l 1,36,37
 812 1320 812 1320 665 1320 c 0,38,39
 517 1320 517 1320 517 1124 c 2,40,-1
 517 1114 l 2,32,33
EndSplineSet
EndChar

StartChar: Upsilon1
Encoding: 978 978 204
Width: 1090
GlyphClass: 2
Flags: W
LayerCount: 2
Fore
SplineSet
548 774 m 1,0,-1
 773 1281 l 2,1,2
 816 1380 816 1380 869.5 1424 c 128,-1,3
 923 1468 923 1468 1010 1468 c 0,4,5
 1082 1468 1082 1468 1134 1441 c 1,6,-1
 1098 1290 l 1,7,8
 1085 1298 1085 1298 1046 1298 c 0,9,10
 976 1298 976 1298 940 1219 c 2,11,-1
 643 570 l 1,12,-1
 643 0 l 1,13,-1
 452 0 l 1,14,-1
 452 572 l 1,15,-1
 156 1219 l 2,16,17
 117 1298 117 1298 50 1298 c 0,18,19
 11 1298 11 1298 -2 1290 c 1,20,-1
 -38 1440 l 1,21,22
 14 1468 14 1468 85 1468 c 0,23,24
 173 1468 173 1468 226.5 1426 c 128,-1,25
 280 1384 280 1384 322 1291 c 2,26,-1
 548 774 l 1,0,-1
EndSplineSet
EndChar

StartChar: omega1
Encoding: 982 982 205
Width: 1608
GlyphClass: 2
Flags: W
LayerCount: 2
Fore
SplineSet
1563 929 m 1,0,-1
 1427 929 l 1,1,2
 1491 757 1491 757 1491 560 c 0,3,4
 1491 287 1491 287 1397 133.5 c 128,-1,5
 1303 -20 1303 -20 1132 -20 c 0,6,7
 891 -20 891 -20 808 219 c 1,8,9
 725 -20 725 -20 485 -20 c 0,10,11
 315 -20 315 -20 220.5 132 c 128,-1,12
 126 284 126 284 126 560 c 0,13,14
 126 751 126 751 190 929 c 1,15,-1
 74 929 l 1,16,-1
 74 1082 l 1,17,-1
 1563 1082 l 1,18,-1
 1563 929 l 1,0,-1
1305 560 m 1,19,20
 1301 730 1301 730 1227 929 c 1,21,-1
 390 929 l 1,22,23
 315 729 315 729 311 560 c 1,24,25
 311 357 311 357 359 243.5 c 128,-1,26
 407 130 407 130 495 130 c 0,27,28
 600 130 600 130 656.5 213.5 c 128,-1,29
 713 297 713 297 715 459 c 2,30,-1
 715 722 l 1,31,-1
 902 722 l 1,32,-1
 902 459 l 2,33,34
 904 297 904 297 960.5 213.5 c 128,-1,35
 1017 130 1017 130 1123 130 c 0,36,37
 1209 130 1209 130 1257 243 c 128,-1,38
 1305 356 1305 356 1305 560 c 1,19,20
EndSplineSet
EndChar

StartChar: uni0402
Encoding: 1026 1026 206
Width: 1535
Flags: W
LayerCount: 2
Fore
SplineSet
1172 1298 m 1,0,-1
 650 1298 l 1,1,-1
 650 843 l 1,2,3
 807 891 807 891 939 891 c 0,4,5
 1183 891 1183 891 1320 770.5 c 128,-1,6
 1457 650 1457 650 1457 433 c 128,-1,7
 1457 216 1457 216 1327 102.5 c 128,-1,8
 1197 -11 1197 -11 960 -11 c 1,9,-1
 958 139 l 1,10,11
 1113 139 1113 139 1189 211.5 c 128,-1,12
 1265 284 1265 284 1265 432 c 0,13,14
 1263 574 1263 574 1181.5 649 c 128,-1,15
 1100 724 1100 724 938 724 c 0,16,17
 788 724 788 724 650 678 c 1,18,-1
 650 0 l 1,19,-1
 457 0 l 1,20,-1
 457 1298 l 1,21,-1
 42 1298 l 1,22,-1
 42 1456 l 1,23,-1
 1172 1456 l 1,24,-1
 1172 1298 l 1,0,-1
EndSplineSet
Substitution2: "'c2sc' Capitals to Small Capitals lookup 0 subtable" uni0402.c2sc
Position2: "'cpsp' Capital Spacing lookup 0 subtable" dx=36 dy=0 dh=72 dv=0
EndChar

StartChar: uni0404
Encoding: 1028 1028 207
Width: 1380
GlyphClass: 2
Flags: W
LayerCount: 2
Fore
SplineSet
1244 462 m 1,0,1
 1217 231 1217 231 1073.5 105.5 c 128,-1,2
 930 -20 930 -20 692 -20 c 0,3,4
 434 -20 434 -20 278.5 165 c 128,-1,5
 123 350 123 350 123 660 c 2,6,-1
 123 799 l 2,7,8
 123 1000 123 1000 194.5 1154.5 c 128,-1,9
 266 1309 266 1309 399.5 1392.5 c 128,-1,10
 533 1476 533 1476 709 1476 c 0,11,12
 941 1476 941 1476 1081 1346.5 c 128,-1,13
 1221 1217 1221 1217 1244 988 c 1,14,-1
 1052 988 l 1,15,16
 1027 1160 1027 1160 943.5 1239 c 128,-1,17
 860 1318 860 1318 709 1318 c 0,18,19
 524 1318 524 1318 421 1182.5 c 128,-1,20
 318 1047 318 1047 316 813 c 1,21,-1
 886 813 l 1,22,-1
 886 656 l 1,23,-1
 316 656 l 1,24,-1
 316 654 l 2,25,26
 316 417 316 417 415 277 c 128,-1,27
 514 137 514 137 692 137 c 0,28,29
 852 137 852 137 937.5 209.5 c 128,-1,30
 1023 282 1023 282 1051 462 c 1,31,-1
 1244 462 l 1,0,1
EndSplineSet
Substitution2: "'c2sc' Capitals to Small Capitals lookup 0 subtable" uni0404.c2sc
Position2: "'cpsp' Capital Spacing lookup 0 subtable" dx=36 dy=0 dh=72 dv=0
EndChar

StartChar: uni0409
Encoding: 1033 1033 208
Width: 2193
Flags: W
LayerCount: 2
Fore
SplineSet
1262 1456 m 1,0,-1
 1262 891 l 1,1,-1
 1623 891 l 2,2,3
 1845 888 1845 888 1976 768 c 128,-1,4
 2107 648 2107 648 2107 445 c 0,5,6
 2107 247 2107 247 1978 125.5 c 128,-1,7
 1849 4 1849 4 1627 0 c 1,8,-1
 1070 0 l 1,9,-1
 1070 1298 l 1,10,-1
 558 1298 l 1,11,-1
 532 721 l 2,12,13
 517 431 517 431 472.5 285 c 128,-1,14
 428 139 428 139 342 70.5 c 128,-1,15
 256 2 256 2 112 0 c 2,16,-1
 49 0 l 1,17,-1
 49 157 l 1,18,-1
 89 159 l 2,19,20
 182 166 182 166 232 219.5 c 128,-1,21
 282 273 282 273 308 390 c 128,-1,22
 334 507 334 507 345 750 c 2,23,-1
 375 1456 l 1,24,-1
 1262 1456 l 1,0,-1
1262 733 m 1,25,-1
 1262 157 l 1,26,-1
 1613 157 l 2,27,28
 1753 157 1753 157 1834 236 c 128,-1,29
 1915 315 1915 315 1915 447 c 0,30,31
 1915 575 1915 575 1836.5 653 c 128,-1,32
 1758 731 1758 731 1620 733 c 2,33,-1
 1262 733 l 1,25,-1
EndSplineSet
Substitution2: "'c2sc' Capitals to Small Capitals lookup 0 subtable" uni0409.c2sc
Position2: "'cpsp' Capital Spacing lookup 0 subtable" dx=36 dy=0 dh=72 dv=0
EndChar

StartChar: uni040A
Encoding: 1034 1034 209
Width: 2212
Flags: W
LayerCount: 2
Fore
SplineSet
370 825 m 1,0,-1
 1088 825 l 1,1,-1
 1088 1456 l 1,2,-1
 1280 1456 l 1,3,-1
 1280 846 l 1,4,-1
 1642 846 l 2,5,6
 1868 843 1868 843 1996.5 730 c 128,-1,7
 2125 617 2125 617 2125 428 c 0,8,9
 2125 237 2125 237 1996.5 120.5 c 128,-1,10
 1868 4 1868 4 1645 0 c 1,11,-1
 1088 0 l 1,12,-1
 1088 668 l 1,13,-1
 370 668 l 1,14,-1
 370 0 l 1,15,-1
 177 0 l 1,16,-1
 177 1456 l 1,17,-1
 370 1456 l 1,18,-1
 370 825 l 1,0,-1
1280 689 m 1,19,-1
 1280 166 l 1,20,-1
 1631 166 l 2,21,22
 1773 166 1773 166 1853 237 c 128,-1,23
 1933 308 1933 308 1933 430 c 0,24,25
 1933 546 1933 546 1857 616 c 128,-1,26
 1781 686 1781 686 1643 689 c 2,27,-1
 1280 689 l 1,19,-1
EndSplineSet
Substitution2: "'c2sc' Capitals to Small Capitals lookup 0 subtable" uni040A.c2sc
Position2: "'cpsp' Capital Spacing lookup 0 subtable" dx=36 dy=0 dh=72 dv=0
EndChar

StartChar: uni040B
Encoding: 1035 1035 210
Width: 1666
Flags: W
LayerCount: 2
Fore
SplineSet
1190 1298 m 1,0,-1
 662 1298 l 1,1,-1
 662 866 l 1,2,3
 822 906 822 906 997 906 c 0,4,5
 1247 906 1247 906 1368 797 c 128,-1,6
 1489 688 1489 688 1492 467 c 2,7,-1
 1492 0 l 1,8,-1
 1299 0 l 1,9,-1
 1299 462 l 2,10,11
 1298 614 1298 614 1229.5 681 c 128,-1,12
 1161 748 1161 748 997 748 c 0,13,14
 828 748 828 748 662 706 c 1,15,-1
 662 0 l 1,16,-1
 470 0 l 1,17,-1
 470 1298 l 1,18,-1
 62 1298 l 1,19,-1
 62 1456 l 1,20,-1
 1190 1456 l 1,21,-1
 1190 1298 l 1,0,-1
EndSplineSet
Substitution2: "'c2sc' Capitals to Small Capitals lookup 0 subtable" uni040B.c2sc
Position2: "'cpsp' Capital Spacing lookup 0 subtable" dx=36 dy=0 dh=72 dv=0
EndChar

StartChar: uni040F
Encoding: 1039 1039 211
Width: 1460
Flags: W
LayerCount: 2
Fore
SplineSet
176 1456 m 1,0,-1
 369 1456 l 1,1,-1
 369 157 l 1,2,-1
 1087 157 l 1,3,-1
 1087 1456 l 1,4,-1
 1279 1456 l 1,5,-1
 1279 0 l 1,6,-1
 831 0 l 1,7,-1
 831 -359 l 1,8,-1
 638 -359 l 1,9,-1
 638 0 l 1,10,-1
 176 0 l 1,11,-1
 176 1456 l 1,0,-1
EndSplineSet
Substitution2: "'c2sc' Capitals to Small Capitals lookup 0 subtable" uni040F.c2sc
Position2: "'cpsp' Capital Spacing lookup 0 subtable" dx=36 dy=0 dh=72 dv=0
EndChar

StartChar: uni0411
Encoding: 1041 1041 212
Width: 1291
Flags: W
LayerCount: 2
Fore
SplineSet
1057 1298 m 1,0,-1
 355 1298 l 1,1,-1
 355 862 l 1,2,-1
 717 862 l 2,3,4
 945 859 945 859 1073 745 c 128,-1,5
 1201 631 1201 631 1201 435 c 0,6,7
 1201 238 1201 238 1072 121 c 128,-1,8
 943 4 943 4 720 0 c 1,9,-1
 162 0 l 1,10,-1
 162 1456 l 1,11,-1
 1057 1456 l 1,12,-1
 1057 1298 l 1,0,-1
355 704 m 1,13,-1
 355 157 l 1,14,-1
 706 157 l 2,15,16
 849 157 849 157 928.5 233 c 128,-1,17
 1008 309 1008 309 1008 437 c 0,18,19
 1008 560 1008 560 931.5 631 c 128,-1,20
 855 702 855 702 714 704 c 2,21,-1
 355 704 l 1,13,-1
EndSplineSet
Substitution2: "'c2sc' Capitals to Small Capitals lookup 0 subtable" uni0411.c2sc
Position2: "'cpsp' Capital Spacing lookup 0 subtable" dx=36 dy=0 dh=72 dv=0
EndChar

StartChar: uni0414
Encoding: 1044 1044 213
Width: 1540
Flags: W
LayerCount: 2
Fore
SplineSet
1479 -357 m 1,0,-1
 1288 -357 l 1,1,-1
 1288 0 l 1,2,-1
 243 0 l 1,3,-1
 243 -358 l 1,4,-1
 51 -358 l 1,5,-1
 50 157 l 1,6,-1
 169 157 l 1,7,8
 263 263 263 263 318.5 441.5 c 128,-1,9
 374 620 374 620 388 833 c 2,10,-1
 420 1456 l 1,11,-1
 1291 1456 l 1,12,-1
 1291 157 l 1,13,-1
 1481 157 l 1,14,-1
 1479 -357 l 1,0,-1
388 157 m 1,15,-1
 1098 157 l 1,16,-1
 1098 1298 l 1,17,-1
 605 1298 l 1,18,-1
 584 870 l 2,19,20
 571 619 571 619 517.5 442 c 128,-1,21
 464 265 464 265 388 157 c 1,15,-1
EndSplineSet
Substitution2: "'c2sc' Capitals to Small Capitals lookup 0 subtable" uni0414.c2sc
Position2: "'cpsp' Capital Spacing lookup 0 subtable" dx=36 dy=0 dh=72 dv=0
EndChar

StartChar: uni0416
Encoding: 1046 1046 214
Width: 1859
GlyphClass: 2
Flags: W
LayerCount: 2
Fore
SplineSet
1192 664 m 1,0,-1
 1036 664 l 1,1,-1
 1036 0 l 1,2,-1
 844 0 l 1,3,-1
 844 664 l 1,4,-1
 679 664 l 1,5,-1
 267 0 l 1,6,-1
 27 0 l 1,7,-1
 517 768 l 1,8,-1
 65 1456 l 1,9,-1
 292 1456 l 1,10,-1
 679 824 l 1,11,-1
 844 824 l 1,12,-1
 844 1456 l 1,13,-1
 1036 1456 l 1,14,-1
 1036 824 l 1,15,-1
 1194 824 l 1,16,-1
 1581 1456 l 1,17,-1
 1807 1456 l 1,18,-1
 1355 769 l 1,19,-1
 1845 0 l 1,20,-1
 1606 0 l 1,21,-1
 1192 664 l 1,0,-1
EndSplineSet
Substitution2: "'c2sc' Capitals to Small Capitals lookup 0 subtable" uni0416.c2sc
Position2: "'cpsp' Capital Spacing lookup 0 subtable" dx=36 dy=0 dh=72 dv=0
EndChar

StartChar: uni0417
Encoding: 1047 1047 215
Width: 1215
GlyphClass: 2
Flags: W
LayerCount: 2
Fore
SplineSet
916 1065 m 0,0,1
 916 1181 916 1181 831.5 1249.5 c 128,-1,2
 747 1318 747 1318 594 1318 c 0,3,4
 466 1318 466 1318 379.5 1247.5 c 128,-1,5
 293 1177 293 1177 293 1073 c 1,6,-1
 101 1073 l 1,7,8
 101 1189 101 1189 164.5 1281 c 128,-1,9
 228 1373 228 1373 342 1424.5 c 128,-1,10
 456 1476 456 1476 594 1476 c 0,11,12
 838 1476 838 1476 973 1366.5 c 128,-1,13
 1108 1257 1108 1257 1108 1062 c 0,14,15
 1108 961 1108 961 1046 878 c 128,-1,16
 984 795 984 795 873 747 c 1,17,18
 1130 661 1130 661 1130 406 c 0,19,20
 1130 210 1130 210 984 95 c 128,-1,21
 838 -20 838 -20 594 -20 c 0,22,23
 449 -20 449 -20 330.5 31.5 c 128,-1,24
 212 83 212 83 146 178 c 128,-1,25
 80 273 80 273 80 404 c 1,26,-1
 272 404 l 1,27,28
 272 289 272 289 363 212.5 c 128,-1,29
 454 136 454 136 594 136 c 0,30,31
 751 136 751 136 844.5 209 c 128,-1,32
 938 282 938 282 938 402 c 0,33,34
 938 658 938 658 621 663 c 1,35,-1
 441 663 l 1,36,-1
 441 821 l 1,37,-1
 620 821 l 2,38,39
 766 824 766 824 841 887 c 128,-1,40
 916 950 916 950 916 1065 c 0,0,1
EndSplineSet
Substitution2: "'c2sc' Capitals to Small Capitals lookup 0 subtable" uni0417.c2sc
Position2: "'cpsp' Capital Spacing lookup 0 subtable" dx=36 dy=0 dh=72 dv=0
EndChar

StartChar: uni0418
Encoding: 1048 1048 216
Width: 1460
GlyphClass: 2
Flags: W
LayerCount: 2
Fore
SplineSet
1087 1456 m 1,0,-1
 1279 1456 l 1,1,-1
 1279 0 l 1,2,-1
 1087 0 l 1,3,-1
 1087 1122 l 1,4,-1
 370 0 l 1,5,-1
 177 0 l 1,6,-1
 177 1456 l 1,7,-1
 370 1456 l 1,8,-1
 370 334 l 1,9,-1
 1087 1456 l 1,0,-1
EndSplineSet
Substitution2: "'c2sc' Capitals to Small Capitals lookup 0 subtable" uni0418.c2sc
Position2: "'cpsp' Capital Spacing lookup 0 subtable" dx=36 dy=0 dh=72 dv=0
EndChar

StartChar: uni041B
Encoding: 1051 1051 217
Width: 1449
GlyphClass: 2
Flags: W
LayerCount: 2
Fore
SplineSet
1270 1456 m 1,0,-1
 1270 0 l 1,1,-1
 1078 0 l 1,2,-1
 1078 1298 l 1,3,-1
 556 1298 l 1,4,-1
 530 721 l 2,5,6
 515 431 515 431 470.5 285 c 128,-1,7
 426 139 426 139 340 70.5 c 128,-1,8
 254 2 254 2 110 0 c 2,9,-1
 47 0 l 1,10,-1
 47 157 l 1,11,-1
 87 159 l 2,12,13
 180 166 180 166 230 219.5 c 128,-1,14
 280 273 280 273 306 390 c 128,-1,15
 332 507 332 507 343 750 c 2,16,-1
 373 1456 l 1,17,-1
 1270 1456 l 1,0,-1
EndSplineSet
Substitution2: "'c2sc' Capitals to Small Capitals lookup 0 subtable" uni041B.c2sc
Position2: "'cpsp' Capital Spacing lookup 0 subtable" dx=36 dy=0 dh=72 dv=0
EndChar

StartChar: uni0423
Encoding: 1059 1059 218
Width: 1287
GlyphClass: 2
Flags: W
LayerCount: 2
Fore
SplineSet
669 611 m 1,0,-1
 1004 1456 l 1,1,-1
 1227 1456 l 1,2,-1
 712 243 l 2,3,4
 660 127 660 127 615 78.5 c 128,-1,5
 570 30 570 30 509.5 4.5 c 128,-1,6
 449 -21 449 -21 358 -21 c 0,7,8
 279 -21 279 -21 257 -12 c 1,9,-1
 263 140 l 1,10,-1
 354 136 l 1,11,12
 459 136 459 136 510 237 c 2,13,-1
 535 289 l 1,14,-1
 573 378 l 1,15,-1
 77 1456 l 1,16,-1
 292 1456 l 1,17,-1
 669 611 l 1,0,-1
EndSplineSet
Substitution2: "'c2sc' Capitals to Small Capitals lookup 0 subtable" uni0423.c2sc
Position2: "'cpsp' Capital Spacing lookup 0 subtable" dx=36 dy=0 dh=72 dv=0
EndChar

StartChar: uni0424
Encoding: 1060 1060 219
Width: 1580
Flags: W
LayerCount: 2
Fore
SplineSet
888 1310 m 1,0,-1
 919 1310 l 2,1,2
 1084 1309 1084 1309 1220 1233 c 128,-1,3
 1356 1157 1356 1157 1431.5 1023.5 c 128,-1,4
 1507 890 1507 890 1507 725 c 0,5,6
 1507 559 1507 559 1431 424 c 128,-1,7
 1355 289 1355 289 1221 213.5 c 128,-1,8
 1087 138 1087 138 923 136 c 2,9,-1
 888 136 l 1,10,-1
 888 -60 l 1,11,-1
 702 -60 l 1,12,-1
 702 136 l 1,13,-1
 674 136 l 2,14,15
 507 136 507 136 370.5 212 c 128,-1,16
 234 288 234 288 158.5 422 c 128,-1,17
 83 556 83 556 83 723 c 128,-1,18
 83 890 83 890 158.5 1024 c 128,-1,19
 234 1158 234 1158 370.5 1234 c 128,-1,20
 507 1310 507 1310 674 1310 c 2,21,-1
 702 1310 l 1,22,-1
 702 1516 l 1,23,-1
 888 1516 l 1,24,-1
 888 1310 l 1,0,-1
674 1159 m 2,25,26
 486 1159 486 1159 376.5 1043.5 c 128,-1,27
 267 928 267 928 267 723 c 0,28,29
 267 517 267 517 376 402.5 c 128,-1,30
 485 288 485 288 676 288 c 2,31,-1
 702 288 l 1,32,-1
 702 1159 l 1,33,-1
 674 1159 l 2,25,26
888 1159 m 1,34,-1
 888 288 l 1,35,-1
 916 288 l 2,36,37
 1107 288 1107 288 1214.5 405.5 c 128,-1,38
 1322 523 1322 523 1322 725 c 0,39,40
 1322 925 1322 925 1214.5 1042 c 128,-1,41
 1107 1159 1107 1159 912 1159 c 2,42,-1
 888 1159 l 1,34,-1
EndSplineSet
Substitution2: "'c2sc' Capitals to Small Capitals lookup 0 subtable" uni0424.c2sc
Position2: "'cpsp' Capital Spacing lookup 0 subtable" dx=36 dy=0 dh=72 dv=0
EndChar

StartChar: uni0426
Encoding: 1062 1062 220
Width: 1497
Flags: W
LayerCount: 2
Fore
SplineSet
175 1456 m 1,0,-1
 368 1456 l 1,1,-1
 368 157 l 1,2,-1
 1086 157 l 1,3,-1
 1086 1456 l 1,4,-1
 1278 1456 l 1,5,-1
 1278 161 l 1,6,-1
 1431 161 l 1,7,-1
 1413 -351 l 1,8,-1
 1240 -351 l 1,9,-1
 1240 0 l 1,10,-1
 175 0 l 1,11,-1
 175 1456 l 1,0,-1
EndSplineSet
Substitution2: "'c2sc' Capitals to Small Capitals lookup 0 subtable" uni0426.c2sc
Position2: "'cpsp' Capital Spacing lookup 0 subtable" dx=36 dy=0 dh=72 dv=0
EndChar

StartChar: uni0427
Encoding: 1063 1063 221
Width: 1402
GlyphClass: 2
Flags: W
LayerCount: 2
Fore
SplineSet
1224 1456 m 1,0,-1
 1224 0 l 1,1,-1
 1031 0 l 1,2,-1
 1031 603 l 1,3,4
 926 573 926 573 840 561.5 c 128,-1,5
 754 550 754 550 644 550 c 0,6,7
 395 550 395 550 274 658 c 128,-1,8
 153 766 153 766 150 989 c 2,9,-1
 150 1456 l 1,10,-1
 343 1456 l 1,11,-1
 343 994 l 2,12,13
 344 842 344 842 412.5 775 c 128,-1,14
 481 708 481 708 644 708 c 0,15,16
 834 708 834 708 1031 762 c 1,17,-1
 1031 1456 l 1,18,-1
 1224 1456 l 1,0,-1
EndSplineSet
Substitution2: "'c2sc' Capitals to Small Capitals lookup 0 subtable" uni0427.c2sc
Position2: "'cpsp' Capital Spacing lookup 0 subtable" dx=36 dy=0 dh=72 dv=0
EndChar

StartChar: uni0428
Encoding: 1064 1064 222
Width: 1927
Flags: W
LayerCount: 2
Fore
SplineSet
369 1456 m 1,0,-1
 369 157 l 1,1,-1
 870 157 l 1,2,-1
 870 1456 l 1,3,-1
 1061 1456 l 1,4,-1
 1061 157 l 1,5,-1
 1559 157 l 1,6,-1
 1559 1456 l 1,7,-1
 1751 1456 l 1,8,-1
 1751 0 l 1,9,-1
 176 0 l 1,10,-1
 176 1456 l 1,11,-1
 369 1456 l 1,0,-1
EndSplineSet
Substitution2: "'c2sc' Capitals to Small Capitals lookup 0 subtable" uni0428.c2sc
Position2: "'cpsp' Capital Spacing lookup 0 subtable" dx=36 dy=0 dh=72 dv=0
EndChar

StartChar: uni0429
Encoding: 1065 1065 223
Width: 1984
Flags: W
LayerCount: 2
Fore
SplineSet
369 1456 m 1,0,-1
 369 157 l 1,1,-1
 870 157 l 1,2,-1
 870 1456 l 1,3,-1
 1061 1456 l 1,4,-1
 1061 157 l 1,5,-1
 1559 157 l 1,6,-1
 1559 1456 l 1,7,-1
 1751 1456 l 1,8,-1
 1751 151 l 1,9,-1
 1898 151 l 1,10,-1
 1880 -351 l 1,11,-1
 1715 -351 l 1,12,-1
 1715 0 l 1,13,-1
 176 0 l 1,14,-1
 176 1456 l 1,15,-1
 369 1456 l 1,0,-1
EndSplineSet
Substitution2: "'c2sc' Capitals to Small Capitals lookup 0 subtable" uni0429.c2sc
Position2: "'cpsp' Capital Spacing lookup 0 subtable" dx=36 dy=0 dh=72 dv=0
EndChar

StartChar: uni042A
Encoding: 1066 1066 224
Width: 1554
Flags: W
LayerCount: 2
Fore
SplineSet
16 1456 m 1,0,-1
 619 1456 l 1,1,-1
 619 862 l 1,2,-1
 965 862 l 2,3,4
 1204 862 1204 862 1334 747.5 c 128,-1,5
 1464 633 1464 633 1464 435 c 0,6,7
 1464 238 1464 238 1335 120.5 c 128,-1,8
 1206 3 1206 3 980 0 c 2,9,-1
 426 0 l 1,10,-1
 426 1304 l 1,11,-1
 16 1304 l 1,12,-1
 16 1456 l 1,0,-1
619 704 m 1,13,-1
 619 157 l 1,14,-1
 970 157 l 2,15,16
 1112 157 1112 157 1191.5 233 c 128,-1,17
 1271 309 1271 309 1271 437 c 0,18,19
 1271 560 1271 560 1194.5 631 c 128,-1,20
 1118 702 1118 702 978 704 c 2,21,-1
 619 704 l 1,13,-1
EndSplineSet
Substitution2: "'c2sc' Capitals to Small Capitals lookup 0 subtable" uni042A.c2sc
Position2: "'cpsp' Capital Spacing lookup 0 subtable" dx=36 dy=0 dh=72 dv=0
EndChar

StartChar: uni042B
Encoding: 1067 1067 225
Width: 1771
GlyphClass: 2
Flags: W
LayerCount: 2
Fore
SplineSet
370 862 m 1,0,-1
 732 862 l 2,1,2
 960 859 960 859 1088 745 c 128,-1,3
 1216 631 1216 631 1216 435 c 0,4,5
 1216 238 1216 238 1087 121 c 128,-1,6
 958 4 958 4 735 0 c 1,7,-1
 178 0 l 1,8,-1
 178 1456 l 1,9,-1
 370 1456 l 1,10,-1
 370 862 l 1,0,-1
370 704 m 1,11,-1
 370 157 l 1,12,-1
 721 157 l 2,13,14
 864 157 864 157 943.5 233 c 128,-1,15
 1023 309 1023 309 1023 437 c 0,16,17
 1023 560 1023 560 946.5 631 c 128,-1,18
 870 702 870 702 729 704 c 2,19,-1
 370 704 l 1,11,-1
1584 0 m 1,20,-1
 1392 0 l 1,21,-1
 1392 1456 l 1,22,-1
 1584 1456 l 1,23,-1
 1584 0 l 1,20,-1
EndSplineSet
Substitution2: "'c2sc' Capitals to Small Capitals lookup 0 subtable" uni042B.c2sc
Position2: "'cpsp' Capital Spacing lookup 0 subtable" dx=36 dy=0 dh=72 dv=0
EndChar

StartChar: uni042C
Encoding: 1068 1068 226
Width: 1285
Flags: W
LayerCount: 2
Fore
SplineSet
355 862 m 1,0,-1
 717 862 l 2,1,2
 945 859 945 859 1073 745 c 128,-1,3
 1201 631 1201 631 1201 435 c 0,4,5
 1201 238 1201 238 1072 121 c 128,-1,6
 943 4 943 4 720 0 c 1,7,-1
 163 0 l 1,8,-1
 163 1456 l 1,9,-1
 355 1456 l 1,10,-1
 355 862 l 1,0,-1
355 704 m 1,11,-1
 355 157 l 1,12,-1
 706 157 l 2,13,14
 849 157 849 157 928.5 233 c 128,-1,15
 1008 309 1008 309 1008 437 c 0,16,17
 1008 560 1008 560 931.5 631 c 128,-1,18
 855 702 855 702 714 704 c 2,19,-1
 355 704 l 1,11,-1
EndSplineSet
Substitution2: "'c2sc' Capitals to Small Capitals lookup 0 subtable" uni042C.c2sc
Position2: "'cpsp' Capital Spacing lookup 0 subtable" dx=36 dy=0 dh=72 dv=0
EndChar

StartChar: uni042D
Encoding: 1069 1069 227
Width: 1380
GlyphClass: 2
Flags: W
LayerCount: 2
Fore
SplineSet
340 462 m 1,0,1
 368 282 368 282 453.5 209.5 c 128,-1,2
 539 137 539 137 699 137 c 0,3,4
 872 137 872 137 972.5 272 c 128,-1,5
 1073 407 1073 407 1075 647 c 1,6,-1
 502 647 l 1,7,-1
 502 805 l 1,8,-1
 1075 805 l 1,9,10
 1075 1042 1075 1042 971.5 1180 c 128,-1,11
 868 1318 868 1318 682 1318 c 0,12,13
 532 1318 532 1318 448.5 1240 c 128,-1,14
 365 1162 365 1162 340 988 c 1,15,-1
 147 988 l 1,16,17
 170 1217 170 1217 310 1346.5 c 128,-1,18
 450 1476 450 1476 682 1476 c 0,19,20
 858 1476 858 1476 991.5 1392.5 c 128,-1,21
 1125 1309 1125 1309 1196.5 1154.5 c 128,-1,22
 1268 1000 1268 1000 1268 799 c 2,23,-1
 1268 654 l 2,24,25
 1268 453 1268 453 1197 299 c 128,-1,26
 1126 145 1126 145 996.5 62.5 c 128,-1,27
 867 -20 867 -20 699 -20 c 0,28,29
 461 -20 461 -20 317.5 105.5 c 128,-1,30
 174 231 174 231 147 462 c 1,31,-1
 340 462 l 1,0,1
EndSplineSet
Substitution2: "'c2sc' Capitals to Small Capitals lookup 0 subtable" uni042D.c2sc
Position2: "'cpsp' Capital Spacing lookup 0 subtable" dx=36 dy=0 dh=72 dv=0
EndChar

StartChar: uni042E
Encoding: 1070 1070 228
Width: 1831
GlyphClass: 2
Flags: W
LayerCount: 2
Fore
SplineSet
1754 681 m 2,0,1
 1754 467 1754 467 1682 307.5 c 128,-1,2
 1610 148 1610 148 1478 64 c 128,-1,3
 1346 -20 1346 -20 1170 -20 c 0,4,5
 1004 -20 1004 -20 872.5 60 c 128,-1,6
 741 140 741 140 666.5 289 c 128,-1,7
 592 438 592 438 584 637 c 1,8,-1
 375 637 l 1,9,-1
 375 0 l 1,10,-1
 183 0 l 1,11,-1
 183 1456 l 1,12,-1
 375 1456 l 1,13,-1
 375 788 l 1,14,-1
 583 788 l 1,15,16
 586 994 586 994 658 1149.5 c 128,-1,17
 730 1305 730 1305 863 1390.5 c 128,-1,18
 996 1476 996 1476 1168 1476 c 0,19,20
 1343 1476 1343 1476 1476.5 1391.5 c 128,-1,21
 1610 1307 1610 1307 1682 1146.5 c 128,-1,22
 1754 986 1754 986 1754 773 c 2,23,-1
 1754 681 l 2,0,1
1563 775 m 2,24,25
 1563 1034 1563 1034 1459 1172.5 c 128,-1,26
 1355 1311 1355 1311 1168 1311 c 0,27,28
 986 1311 986 1311 881.5 1172.5 c 128,-1,29
 777 1034 777 1034 774 788 c 2,30,-1
 774 681 l 2,31,32
 774 430 774 430 879.5 286.5 c 128,-1,33
 985 143 985 143 1170 143 c 0,34,35
 1356 143 1356 143 1458 278.5 c 128,-1,36
 1560 414 1560 414 1563 667 c 2,37,-1
 1563 775 l 2,24,25
EndSplineSet
Substitution2: "'c2sc' Capitals to Small Capitals lookup 0 subtable" uni042E.c2sc
Position2: "'cpsp' Capital Spacing lookup 0 subtable" dx=36 dy=0 dh=72 dv=0
EndChar

StartChar: uni042F
Encoding: 1071 1071 229
Width: 1304
GlyphClass: 2
Flags: W
LayerCount: 2
Fore
SplineSet
931 0 m 1,0,-1
 931 567 l 1,1,-1
 595 567 l 1,2,-1
 294 0 l 1,3,-1
 89 0 l 1,4,-1
 427 620 l 1,5,6
 145 731 145 731 145 1017 c 0,7,8
 145 1225 145 1225 281.5 1340.5 c 128,-1,9
 418 1456 418 1456 661 1456 c 2,10,-1
 1124 1456 l 1,11,-1
 1124 0 l 1,12,-1
 931 0 l 1,0,-1
337 1017 m 0,13,14
 337 885 337 885 419.5 805 c 128,-1,15
 502 725 502 725 649 724 c 2,16,-1
 931 724 l 1,17,-1
 931 1298 l 1,18,-1
 658 1298 l 2,19,20
 502 1298 502 1298 419.5 1224 c 128,-1,21
 337 1150 337 1150 337 1017 c 0,13,14
EndSplineSet
Substitution2: "'c2sc' Capitals to Small Capitals lookup 0 subtable" uni042F.c2sc
Position2: "'cpsp' Capital Spacing lookup 0 subtable" dx=36 dy=0 dh=72 dv=0
EndChar

StartChar: uni0431
Encoding: 1073 1073 230
Width: 1132
Flags: W
LayerCount: 2
Fore
SplineSet
615 1020 m 0,0,1
 819 1020 819 1020 941.5 883.5 c 128,-1,2
 1064 747 1064 747 1064 524 c 2,3,-1
 1064 507 l 2,4,5
 1064 354 1064 354 1005 233.5 c 128,-1,6
 946 113 946 113 835.5 46.5 c 128,-1,7
 725 -20 725 -20 581 -20 c 0,8,9
 363 -20 363 -20 230 125.5 c 128,-1,10
 97 271 97 271 97 516 c 2,11,-1
 97 606 l 2,12,13
 97 947 97 947 223.5 1148 c 128,-1,14
 350 1349 350 1349 597 1393 c 0,15,16
 737 1418 737 1418 786 1454 c 128,-1,17
 835 1490 835 1490 835 1553 c 1,18,-1
 987 1553 l 1,19,20
 987 1428 987 1428 930.5 1358 c 128,-1,21
 874 1288 874 1288 750 1259 c 2,22,-1
 612 1228 l 2,23,24
 447 1189 447 1189 364.5 1096.5 c 128,-1,25
 282 1004 282 1004 257 850 c 1,26,27
 404 1020 404 1020 615 1020 c 0,0,1
579 868 m 0,28,29
 443 868 443 868 363 776.5 c 128,-1,30
 283 685 283 685 283 523 c 2,31,-1
 283 507 l 2,32,33
 283 333 283 333 363.5 231.5 c 128,-1,34
 444 130 444 130 581 130 c 0,35,36
 719 130 719 130 799 232 c 128,-1,37
 879 334 879 334 879 530 c 0,38,39
 879 683 879 683 798.5 775.5 c 128,-1,40
 718 868 718 868 579 868 c 0,28,29
EndSplineSet
Substitution2: "'smcp' Lowercase to Small Capitals lookup 1 subtable" uni0411.c2sc
EndChar

StartChar: uni0432
Encoding: 1074 1074 231
Width: 1170
GlyphClass: 2
Flags: W
LayerCount: 2
Fore
SplineSet
157 0 m 1,0,-1
 157 1082 l 1,1,-1
 579 1082 l 2,2,3
 795 1082 795 1082 910.5 1006.5 c 128,-1,4
 1026 931 1026 931 1026 785 c 0,5,6
 1026 710 1026 710 981 649.5 c 128,-1,7
 936 589 936 589 848 557 c 1,8,9
 946 534 946 534 1005.5 467 c 128,-1,10
 1065 400 1065 400 1065 307 c 0,11,12
 1065 158 1065 158 955.5 79 c 128,-1,13
 846 0 846 0 646 0 c 2,14,-1
 157 0 l 1,0,-1
342 475 m 1,15,-1
 342 149 l 1,16,-1
 648 149 l 2,17,18
 764 149 764 149 821.5 192 c 128,-1,19
 879 235 879 235 879 313 c 0,20,21
 879 475 879 475 641 475 c 2,22,-1
 342 475 l 1,15,-1
342 623 m 1,23,-1
 581 623 l 2,24,25
 841 623 841 623 841 775 c 128,-1,26
 841 927 841 927 595 932 c 1,27,-1
 342 932 l 1,28,-1
 342 623 l 1,23,-1
EndSplineSet
Substitution2: "'smcp' Lowercase to Small Capitals lookup 1 subtable" uni0412.c2sc
EndChar

StartChar: uni0433
Encoding: 1075 1075 232
Width: 859
GlyphClass: 2
Flags: W
LayerCount: 2
Fore
SplineSet
839 929 m 1,0,-1
 340 929 l 1,1,-1
 340 0 l 1,2,-1
 154 0 l 1,3,-1
 154 1082 l 1,4,-1
 839 1082 l 1,5,-1
 839 929 l 1,0,-1
EndSplineSet
Substitution2: "'smcp' Lowercase to Small Capitals lookup 1 subtable" uni0413.c2sc
EndChar

StartChar: uni0434
Encoding: 1076 1076 233
Width: 1236
GlyphClass: 2
Flags: W
LayerCount: 2
Fore
SplineSet
131 151 m 1,0,-1
 195 230 l 1,1,2
 303 370 303 370 318 650 c 2,3,-1
 335 1082 l 1,4,-1
 1032 1082 l 1,5,-1
 1032 151 l 1,6,-1
 1171 151 l 1,7,-1
 1171 -318 l 1,8,-1
 986 -318 l 1,9,-1
 986 0 l 1,10,-1
 231 0 l 1,11,-1
 231 -318 l 1,12,-1
 46 -318 l 1,13,-1
 47 151 l 1,14,-1
 131 151 l 1,0,-1
350 151 m 1,15,-1
 847 151 l 1,16,-1
 847 911 l 1,17,-1
 514 911 l 1,18,-1
 503 653 l 2,19,20
 486 330 486 330 350 151 c 1,15,-1
EndSplineSet
Substitution2: "'smcp' Lowercase to Small Capitals lookup 1 subtable" uni0414.c2sc
EndChar

StartChar: uni0436
Encoding: 1078 1078 234
Width: 1568
GlyphClass: 2
Flags: W
LayerCount: 2
Fore
SplineSet
1003 470 m 1,0,-1
 873 470 l 1,1,-1
 873 0 l 1,2,-1
 688 0 l 1,3,-1
 688 470 l 1,4,-1
 558 470 l 1,5,-1
 255 0 l 1,6,-1
 21 0 l 1,7,-1
 408 560 l 1,8,-1
 58 1082 l 1,9,-1
 282 1082 l 1,10,-1
 561 634 l 1,11,-1
 688 634 l 1,12,-1
 688 1082 l 1,13,-1
 873 1082 l 1,14,-1
 873 634 l 1,15,-1
 999 634 l 1,16,-1
 1280 1082 l 1,17,-1
 1504 1082 l 1,18,-1
 1153 559 l 1,19,-1
 1540 0 l 1,20,-1
 1306 0 l 1,21,-1
 1003 470 l 1,0,-1
EndSplineSet
Substitution2: "'smcp' Lowercase to Small Capitals lookup 1 subtable" uni0416.c2sc
EndChar

StartChar: uni0437
Encoding: 1079 1079 235
Width: 1040
GlyphClass: 2
Flags: W
LayerCount: 2
Fore
SplineSet
735 786 m 0,0,1
 735 862 735 862 677 906.5 c 128,-1,2
 619 951 619 951 518 951 c 0,3,4
 420 951 420 951 354.5 900 c 128,-1,5
 289 849 289 849 289 780 c 1,6,-1
 105 780 l 1,7,8
 105 921 105 921 223 1011 c 128,-1,9
 341 1101 341 1101 518 1101 c 0,10,11
 708 1101 708 1101 814 1019.5 c 128,-1,12
 920 938 920 938 920 787 c 0,13,14
 920 714 920 714 876 653 c 128,-1,15
 832 592 832 592 751 556 c 1,16,17
 940 492 940 492 940 304 c 0,18,19
 940 155 940 155 825 68 c 128,-1,20
 710 -19 710 -19 518 -19 c 0,21,22
 331 -19 331 -19 209.5 72.5 c 128,-1,23
 88 164 88 164 88 320 c 1,24,-1
 272 320 l 1,25,26
 272 241 272 241 342.5 184.5 c 128,-1,27
 413 128 413 128 518 128 c 0,28,29
 624 128 624 128 689 177 c 128,-1,30
 754 226 754 226 754 304 c 0,31,32
 754 395 754 395 699.5 434.5 c 128,-1,33
 645 474 645 474 530 474 c 2,34,-1
 345 474 l 1,35,-1
 345 630 l 1,36,-1
 546 630 l 1,37,38
 735 635 735 635 735 786 c 0,0,1
EndSplineSet
Substitution2: "'smcp' Lowercase to Small Capitals lookup 1 subtable" uni0417.c2sc
EndChar

StartChar: uni0438
Encoding: 1080 1080 236
Width: 1182
GlyphClass: 2
Flags: W
LayerCount: 2
Fore
SplineSet
840 1082 m 1,0,-1
 1025 1082 l 1,1,-1
 1025 0 l 1,2,-1
 840 0 l 1,3,-1
 840 789 l 1,4,-1
 341 0 l 1,5,-1
 156 0 l 1,6,-1
 156 1082 l 1,7,-1
 341 1082 l 1,8,-1
 341 292 l 1,9,-1
 840 1082 l 1,0,-1
EndSplineSet
Substitution2: "'smcp' Lowercase to Small Capitals lookup 1 subtable" uni0418.c2sc
EndChar

StartChar: uni043A
Encoding: 1082 1082 237
Width: 1106
GlyphClass: 2
Flags: W
LayerCount: 2
Fore
SplineSet
477 461 m 1,0,-1
 342 461 l 1,1,-1
 342 0 l 1,2,-1
 156 0 l 1,3,-1
 156 1082 l 1,4,-1
 342 1082 l 1,5,-1
 342 624 l 1,6,-1
 463 624 l 1,7,-1
 827 1082 l 1,8,-1
 1051 1082 l 1,9,-1
 623 562 l 1,10,-1
 1087 0 l 1,11,-1
 852 0 l 1,12,-1
 477 461 l 1,0,-1
EndSplineSet
Substitution2: "'smcp' Lowercase to Small Capitals lookup 1 subtable" uni041A.c2sc
EndChar

StartChar: uni043B
Encoding: 1083 1083 238
Width: 1184
GlyphClass: 2
Flags: W
LayerCount: 2
Fore
SplineSet
1027 1082 m 1,0,-1
 1027 0 l 1,1,-1
 841 0 l 1,2,-1
 841 929 l 1,3,-1
 473 929 l 1,4,-1
 451 524 l 2,5,6
 433 245 433 245 357.5 125 c 128,-1,7
 282 5 282 5 118 0 c 1,8,-1
 44 0 l 1,9,-1
 44 163 l 1,10,-1
 97 167 l 2,11,12
 187 177 187 177 226 271 c 128,-1,13
 265 365 265 365 276 619 c 2,14,-1
 296 1082 l 1,15,-1
 1027 1082 l 1,0,-1
EndSplineSet
Substitution2: "'smcp' Lowercase to Small Capitals lookup 1 subtable" uni041B.c2sc
EndChar

StartChar: uni043C
Encoding: 1084 1084 239
Width: 1519
GlyphClass: 2
Flags: W
LayerCount: 2
Fore
SplineSet
763 245 m 1,0,-1
 1131 1082 l 1,1,-1
 1362 1082 l 1,2,-1
 1362 0 l 1,3,-1
 1177 0 l 1,4,-1
 1177 787 l 1,5,-1
 827 0 l 1,6,-1
 699 0 l 1,7,-1
 342 804 l 1,8,-1
 342 0 l 1,9,-1
 157 0 l 1,10,-1
 157 1082 l 1,11,-1
 397 1082 l 1,12,-1
 763 245 l 1,0,-1
EndSplineSet
Substitution2: "'smcp' Lowercase to Small Capitals lookup 1 subtable" uni041C.c2sc
EndChar

StartChar: uni043D
Encoding: 1085 1085 240
Width: 1181
GlyphClass: 2
Flags: W
LayerCount: 2
Fore
SplineSet
1024 0 m 1,0,-1
 839 0 l 1,1,-1
 839 462 l 1,2,-1
 342 462 l 1,3,-1
 342 0 l 1,4,-1
 156 0 l 1,5,-1
 156 1082 l 1,6,-1
 342 1082 l 1,7,-1
 342 613 l 1,8,-1
 839 613 l 1,9,-1
 839 1082 l 1,10,-1
 1024 1082 l 1,11,-1
 1024 0 l 1,0,-1
EndSplineSet
Substitution2: "'smcp' Lowercase to Small Capitals lookup 1 subtable" uni041D.c2sc
EndChar

StartChar: uni043F
Encoding: 1087 1087 241
Width: 1182
GlyphClass: 2
Flags: W
LayerCount: 2
Fore
SplineSet
1025 0 m 1,0,-1
 840 0 l 1,1,-1
 840 929 l 1,2,-1
 342 929 l 1,3,-1
 342 0 l 1,4,-1
 156 0 l 1,5,-1
 156 1082 l 1,6,-1
 1025 1082 l 1,7,-1
 1025 0 l 1,0,-1
EndSplineSet
Substitution2: "'smcp' Lowercase to Small Capitals lookup 1 subtable" uni041F.c2sc
EndChar

StartChar: uni0442
Encoding: 1090 1090 242
Width: 984
GlyphClass: 2
Flags: W
LayerCount: 2
Fore
SplineSet
944 932 m 1,0,-1
 581 932 l 1,1,-1
 581 0 l 1,2,-1
 396 0 l 1,3,-1
 396 932 l 1,4,-1
 40 932 l 1,5,-1
 40 1082 l 1,6,-1
 944 1082 l 1,7,-1
 944 932 l 1,0,-1
EndSplineSet
Substitution2: "'smcp' Lowercase to Small Capitals lookup 1 subtable" uni0422.c2sc
EndChar

StartChar: uni0444
Encoding: 1092 1092 243
Width: 1485
GlyphClass: 2
Flags: W
LayerCount: 2
Fore
SplineSet
100 521 m 2,0,1
 100 792 100 792 205 947 c 128,-1,2
 310 1102 310 1102 493 1102 c 0,3,4
 578 1102 578 1102 642 1073 c 1,5,-1
 642 1536 l 1,6,-1
 827 1536 l 1,7,-1
 827 1067 l 1,8,9
 897 1102 897 1102 991 1102 c 0,10,11
 1175 1102 1175 1102 1280 947 c 128,-1,12
 1385 792 1385 792 1385 500 c 0,13,14
 1385 261 1385 261 1280.5 120 c 128,-1,15
 1176 -21 1176 -21 993 -21 c 0,16,17
 896 -21 896 -21 827 11 c 1,18,-1
 827 -416 l 1,19,-1
 642 -416 l 1,20,-1
 642 8 l 1,21,22
 576 -21 576 -21 491 -21 c 0,23,24
 309 -21 309 -21 204.5 120 c 128,-1,25
 100 261 100 261 100 506 c 2,26,-1
 100 521 l 2,0,1
1200 521 m 0,27,28
 1200 725 1200 725 1130 837.5 c 128,-1,29
 1060 950 1060 950 937 950 c 0,30,31
 874 950 874 950 827 930 c 1,32,-1
 827 147 l 1,33,34
 872 130 872 130 939 130 c 0,35,36
 1063 130 1063 130 1131.5 226 c 128,-1,37
 1200 322 1200 322 1200 521 c 0,27,28
285 500 m 0,38,39
 285 318 285 318 350 224 c 128,-1,40
 415 130 415 130 537 130 c 0,41,42
 595 130 595 130 642 148 c 1,43,-1
 642 933 l 1,44,45
 600 950 600 950 539 950 c 0,46,47
 417 950 417 950 351 841 c 128,-1,48
 285 732 285 732 285 500 c 0,38,39
EndSplineSet
Substitution2: "'smcp' Lowercase to Small Capitals lookup 1 subtable" uni0424.c2sc
EndChar

StartChar: uni0446
Encoding: 1094 1094 244
Width: 1213
GlyphClass: 2
Flags: W
LayerCount: 2
Fore
SplineSet
156 1082 m 1,0,-1
 342 1082 l 1,1,-1
 342 151 l 1,2,-1
 840 151 l 1,3,-1
 840 1082 l 1,4,-1
 1025 1082 l 1,5,-1
 1025 151 l 1,6,-1
 1154 151 l 1,7,-1
 1136 -321 l 1,8,-1
 970 -321 l 1,9,-1
 970 0 l 1,10,-1
 156 0 l 1,11,-1
 156 1082 l 1,0,-1
EndSplineSet
Substitution2: "'smcp' Lowercase to Small Capitals lookup 1 subtable" uni0426.c2sc
EndChar

StartChar: uni0447
Encoding: 1095 1095 245
Width: 1113
GlyphClass: 2
Flags: W
LayerCount: 2
Fore
SplineSet
957 0 m 1,0,-1
 771 0 l 1,1,-1
 771 392 l 1,2,3
 649 360 649 360 521 360 c 0,4,5
 318 360 318 360 211.5 464 c 128,-1,6
 105 568 105 568 103 760 c 2,7,-1
 103 1083 l 1,8,-1
 288 1083 l 1,9,-1
 288 754 l 1,10,11
 293 512 293 512 521 512 c 0,12,13
 649 512 649 512 771 544 c 1,14,-1
 771 1082 l 1,15,-1
 957 1082 l 1,16,-1
 957 0 l 1,0,-1
EndSplineSet
Substitution2: "'smcp' Lowercase to Small Capitals lookup 1 subtable" uni0427.c2sc
EndChar

StartChar: uni0448
Encoding: 1096 1096 246
Width: 1656
GlyphClass: 2
Flags: W
LayerCount: 2
Fore
SplineSet
342 1082 m 1,0,-1
 342 151 l 1,1,-1
 738 151 l 1,2,-1
 738 1082 l 1,3,-1
 923 1082 l 1,4,-1
 923 151 l 1,5,-1
 1318 151 l 1,6,-1
 1318 1082 l 1,7,-1
 1504 1082 l 1,8,-1
 1504 0 l 1,9,-1
 156 0 l 1,10,-1
 156 1082 l 1,11,-1
 342 1082 l 1,0,-1
EndSplineSet
Substitution2: "'smcp' Lowercase to Small Capitals lookup 1 subtable" uni0428.c2sc
EndChar

StartChar: uni0449
Encoding: 1097 1097 247
Width: 1694
GlyphClass: 2
Flags: W
LayerCount: 2
Fore
SplineSet
331 1082 m 1,0,-1
 331 151 l 1,1,-1
 727 151 l 1,2,-1
 727 1082 l 1,3,-1
 912 1082 l 1,4,-1
 912 151 l 1,5,-1
 1307 151 l 1,6,-1
 1307 1082 l 1,7,-1
 1493 1082 l 1,8,-1
 1493 151 l 1,9,-1
 1645 151 l 1,10,-1
 1627 -321 l 1,11,-1
 1461 -321 l 1,12,-1
 1461 0 l 1,13,-1
 145 0 l 1,14,-1
 145 1082 l 1,15,-1
 331 1082 l 1,0,-1
EndSplineSet
Substitution2: "'smcp' Lowercase to Small Capitals lookup 1 subtable" uni0429.c2sc
EndChar

StartChar: uni044A
Encoding: 1098 1098 248
Width: 1271
Flags: W
LayerCount: 2
Fore
SplineSet
30 1082 m 1,0,-1
 536 1082 l 1,1,-1
 536 709 l 1,2,-1
 817 709 l 2,3,4
 1001 707 1001 707 1108 613 c 128,-1,5
 1215 519 1215 519 1215 358 c 0,6,7
 1215 196 1215 196 1105 98 c 128,-1,8
 995 0 995 0 809 0 c 2,9,-1
 351 0 l 1,10,-1
 351 930 l 1,11,-1
 30 930 l 1,12,-1
 30 1082 l 1,0,-1
536 558 m 1,13,-1
 536 151 l 1,14,-1
 811 151 l 2,15,16
 915 151 915 151 972 204.5 c 128,-1,17
 1029 258 1029 258 1029 351 c 0,18,19
 1029 441 1029 441 973.5 498.5 c 128,-1,20
 918 556 918 556 818 558 c 2,21,-1
 536 558 l 1,13,-1
EndSplineSet
Substitution2: "'smcp' Lowercase to Small Capitals lookup 1 subtable" uni042A.c2sc
EndChar

StartChar: uni044B
Encoding: 1099 1099 249
Width: 1590
GlyphClass: 2
Flags: W
LayerCount: 2
Fore
SplineSet
342 709 m 1,0,-1
 623 709 l 2,1,2
 807 707 807 707 914 613 c 128,-1,3
 1021 519 1021 519 1021 358 c 0,4,5
 1021 196 1021 196 911 98 c 128,-1,6
 801 0 801 0 615 0 c 2,7,-1
 157 0 l 1,8,-1
 157 1082 l 1,9,-1
 342 1082 l 1,10,-1
 342 709 l 1,0,-1
1407 0 m 1,11,-1
 1221 0 l 1,12,-1
 1221 1082 l 1,13,-1
 1407 1082 l 1,14,-1
 1407 0 l 1,11,-1
342 558 m 1,15,-1
 342 151 l 1,16,-1
 617 151 l 2,17,18
 721 151 721 151 778 204.5 c 128,-1,19
 835 258 835 258 835 351 c 0,20,21
 835 441 835 441 779.5 498.5 c 128,-1,22
 724 556 724 556 624 558 c 2,23,-1
 342 558 l 1,15,-1
EndSplineSet
Substitution2: "'smcp' Lowercase to Small Capitals lookup 1 subtable" uni042B.c2sc
EndChar

StartChar: uni044C
Encoding: 1100 1100 250
Width: 1112
Flags: W
LayerCount: 2
Fore
SplineSet
342 709 m 1,0,-1
 623 709 l 2,1,2
 807 707 807 707 914 613 c 128,-1,3
 1021 519 1021 519 1021 358 c 0,4,5
 1021 196 1021 196 911 98 c 128,-1,6
 801 0 801 0 615 0 c 2,7,-1
 157 0 l 1,8,-1
 157 1082 l 1,9,-1
 342 1082 l 1,10,-1
 342 709 l 1,0,-1
342 558 m 1,11,-1
 342 151 l 1,12,-1
 617 151 l 2,13,14
 721 151 721 151 778 204.5 c 128,-1,15
 835 258 835 258 835 351 c 0,16,17
 835 441 835 441 779.5 498.5 c 128,-1,18
 724 556 724 556 624 558 c 2,19,-1
 342 558 l 1,11,-1
EndSplineSet
Substitution2: "'smcp' Lowercase to Small Capitals lookup 1 subtable" uni042C.c2sc
EndChar

StartChar: uni044D
Encoding: 1101 1101 251
Width: 1101
GlyphClass: 2
Flags: W
LayerCount: 2
Fore
SplineSet
520 950 m 0,0,1
 421 950 421 950 348.5 887 c 128,-1,2
 276 824 276 824 276 738 c 1,3,-1
 100 738 l 1,4,5
 100 831 100 831 159 916 c 128,-1,6
 218 1001 218 1001 316 1051.5 c 128,-1,7
 414 1102 414 1102 520 1102 c 0,8,9
 731 1102 731 1102 861.5 949.5 c 128,-1,10
 992 797 992 797 992 551 c 2,11,-1
 992 520 l 2,12,13
 992 368 992 368 932.5 242.5 c 128,-1,14
 873 117 873 117 765.5 48.5 c 128,-1,15
 658 -20 658 -20 520 -20 c 0,16,17
 340 -20 340 -20 220 92 c 128,-1,18
 100 204 100 204 100 371 c 1,19,-1
 276 371 l 1,20,21
 276 269 276 269 347 199.5 c 128,-1,22
 418 130 418 130 520 130 c 0,23,24
 639 130 639 130 716 222 c 128,-1,25
 793 314 793 314 805 475 c 1,26,-1
 399 475 l 1,27,-1
 399 627 l 1,28,-1
 803 627 l 1,29,30
 789 773 789 773 714 861.5 c 128,-1,31
 639 950 639 950 520 950 c 0,0,1
EndSplineSet
Substitution2: "'smcp' Lowercase to Small Capitals lookup 1 subtable" uni042D.c2sc
EndChar

StartChar: uni044E
Encoding: 1102 1102 252
Width: 1671
GlyphClass: 2
Flags: W
LayerCount: 2
Fore
SplineSet
342 623 m 1,0,-1
 602 623 l 1,1,2
 623 839 623 839 755.5 970.5 c 128,-1,3
 888 1102 888 1102 1090 1102 c 0,4,5
 1302 1102 1302 1102 1437 959 c 128,-1,6
 1572 816 1572 816 1583 587 c 1,7,-1
 1584 529 l 2,8,9
 1584 371 1584 371 1522 244 c 128,-1,10
 1460 117 1460 117 1348 48.5 c 128,-1,11
 1236 -20 1236 -20 1092 -20 c 0,12,13
 883 -20 883 -20 750 116.5 c 128,-1,14
 617 253 617 253 601 471 c 1,15,-1
 342 471 l 1,16,-1
 342 0 l 1,17,-1
 157 0 l 1,18,-1
 157 1082 l 1,19,-1
 342 1082 l 1,20,-1
 342 623 l 1,0,-1
784 529 m 0,21,22
 784 349 784 349 867.5 240 c 128,-1,23
 951 131 951 131 1092 131 c 128,-1,24
 1233 131 1233 131 1315.5 242 c 128,-1,25
 1398 353 1398 353 1398 551 c 0,26,27
 1398 728 1398 728 1314 839 c 128,-1,28
 1230 950 1230 950 1090 950 c 0,29,30
 952 950 952 950 868 841 c 128,-1,31
 784 732 784 732 784 529 c 0,21,22
EndSplineSet
Substitution2: "'smcp' Lowercase to Small Capitals lookup 1 subtable" uni042E.c2sc
EndChar

StartChar: uni044F
Encoding: 1103 1103 253
Width: 1124
GlyphClass: 2
Flags: W
LayerCount: 2
Fore
SplineSet
967 1082 m 1,0,-1
 967 0 l 1,1,-1
 781 0 l 1,2,-1
 781 421 l 1,3,-1
 502 421 l 1,4,-1
 247 0 l 1,5,-1
 47 0 l 1,6,-1
 319 449 l 1,7,8
 215 487 215 487 159.5 566.5 c 128,-1,9
 104 646 104 646 104 752 c 0,10,11
 104 900 104 900 215 990.5 c 128,-1,12
 326 1081 326 1081 512 1082 c 2,13,-1
 967 1082 l 1,0,-1
290 750 m 0,14,15
 290 671 290 671 344 622.5 c 128,-1,16
 398 574 398 574 487 573 c 2,17,-1
 781 573 l 1,18,-1
 781 932 l 1,19,-1
 515 932 l 2,20,21
 412 932 412 932 351 881.5 c 128,-1,22
 290 831 290 831 290 750 c 0,14,15
EndSplineSet
Substitution2: "'smcp' Lowercase to Small Capitals lookup 1 subtable" uni042F.c2sc
EndChar

StartChar: uni0452
Encoding: 1106 1106 254
Width: 1128
Flags: W
LayerCount: 2
Fore
SplineSet
611 1209 m 1,0,-1
 325 1209 l 1,1,-1
 325 951 l 1,2,3
 448 1102 448 1102 645 1102 c 0,4,5
 988 1102 988 1102 991 715 c 2,6,-1
 991 -89 l 2,7,8
 991 -259 991 -259 906 -348 c 128,-1,9
 821 -437 821 -437 669 -437 c 0,10,11
 608 -437 608 -437 554 -419 c 1,12,-1
 569 -272 l 1,13,14
 604 -285 604 -285 669 -285 c 128,-1,15
 734 -285 734 -285 770 -233 c 128,-1,16
 806 -181 806 -181 806 -89 c 2,17,-1
 806 711 l 2,18,19
 806 831 806 831 753.5 888 c 128,-1,20
 701 945 701 945 589 945 c 0,21,22
 499 945 499 945 431 897 c 128,-1,23
 363 849 363 849 325 771 c 1,24,-1
 325 0 l 1,25,-1
 140 0 l 1,26,-1
 140 1209 l 1,27,-1
 -24 1209 l 1,28,-1
 -24 1361 l 1,29,-1
 140 1361 l 1,30,-1
 140 1536 l 1,31,-1
 325 1536 l 1,32,-1
 325 1361 l 1,33,-1
 611 1361 l 1,34,-1
 611 1209 l 1,0,-1
EndSplineSet
Substitution2: "'smcp' Lowercase to Small Capitals lookup 1 subtable" uni0402.c2sc
EndChar

StartChar: uni0454
Encoding: 1108 1108 255
Width: 1101
GlyphClass: 2
Flags: W
LayerCount: 2
Fore
SplineSet
584 131 m 0,0,1
 683 131 683 131 757 191 c 128,-1,2
 831 251 831 251 839 341 c 1,3,-1
 1015 341 l 1,4,5
 1010 247 1010 247 950 163 c 128,-1,6
 890 79 890 79 792 29.5 c 128,-1,7
 694 -20 694 -20 584 -20 c 0,8,9
 362 -20 362 -20 232.5 128 c 128,-1,10
 103 276 103 276 103 532 c 2,11,-1
 103 562 l 2,12,13
 103 721 103 721 161.5 844.5 c 128,-1,14
 220 968 220 968 328 1035 c 128,-1,15
 436 1102 436 1102 584 1102 c 0,16,17
 766 1102 766 1102 886.5 993 c 128,-1,18
 1007 884 1007 884 1015 710 c 1,19,-1
 839 710 l 1,20,21
 831 815 831 815 759.5 882.5 c 128,-1,22
 688 950 688 950 584 950 c 0,23,24
 454 950 454 950 377 861.5 c 128,-1,25
 300 773 300 773 290 616 c 1,26,-1
 694 616 l 1,27,-1
 694 464 l 1,28,-1
 290 464 l 1,29,30
 300 304 300 304 376.5 217.5 c 128,-1,31
 453 131 453 131 584 131 c 0,0,1
EndSplineSet
Substitution2: "'smcp' Lowercase to Small Capitals lookup 1 subtable" uni0404.c2sc
EndChar

StartChar: uni0459
Encoding: 1113 1113 256
Width: 1737
Flags: W
LayerCount: 2
Fore
SplineSet
991 1082 m 1,0,-1
 991 670 l 1,1,-1
 1277 670 l 2,2,3
 1459 667 1459 667 1564.5 576.5 c 128,-1,4
 1670 486 1670 486 1670 338 c 0,5,6
 1670 191 1670 191 1564.5 97 c 128,-1,7
 1459 3 1459 3 1276 0 c 2,8,-1
 805 0 l 1,9,-1
 805 929 l 1,10,-1
 468 929 l 1,11,-1
 445 507 l 1,12,13
 425 230 425 230 347 116 c 128,-1,14
 269 2 269 2 104 0 c 2,15,-1
 39 0 l 1,16,-1
 39 163 l 1,17,-1
 93 167 l 2,18,19
 178 177 178 177 216.5 260.5 c 128,-1,20
 255 344 255 344 268 555 c 2,21,-1
 291 1082 l 1,22,-1
 991 1082 l 1,0,-1
991 518 m 1,23,-1
 991 149 l 1,24,-1
 1266 149 l 2,25,26
 1367 149 1367 149 1425.5 201.5 c 128,-1,27
 1484 254 1484 254 1484 340 c 0,28,29
 1484 421 1484 421 1427 469 c 128,-1,30
 1370 517 1370 517 1271 518 c 2,31,-1
 991 518 l 1,23,-1
EndSplineSet
Substitution2: "'smcp' Lowercase to Small Capitals lookup 1 subtable" uni0409.c2sc
EndChar

StartChar: uni045A
Encoding: 1114 1114 257
Width: 1764
Flags: W
LayerCount: 2
Fore
SplineSet
342 673 m 1,0,-1
 839 673 l 1,1,-1
 839 1082 l 1,2,-1
 1024 1082 l 1,3,-1
 1024 669 l 1,4,-1
 1314 669 l 1,5,6
 1494 665 1494 665 1598.5 576.5 c 128,-1,7
 1703 488 1703 488 1703 338 c 0,8,9
 1703 187 1703 187 1594.5 93.5 c 128,-1,10
 1486 0 1486 0 1297 0 c 2,11,-1
 839 0 l 1,12,-1
 839 522 l 1,13,-1
 342 522 l 1,14,-1
 342 0 l 1,15,-1
 156 0 l 1,16,-1
 156 1082 l 1,17,-1
 342 1082 l 1,18,-1
 342 673 l 1,0,-1
1024 518 m 1,19,-1
 1024 149 l 1,20,-1
 1299 149 l 2,21,22
 1400 149 1400 149 1458.5 201.5 c 128,-1,23
 1517 254 1517 254 1517 340 c 0,24,25
 1517 421 1517 421 1460 469 c 128,-1,26
 1403 517 1403 517 1304 518 c 2,27,-1
 1024 518 l 1,19,-1
EndSplineSet
Substitution2: "'smcp' Lowercase to Small Capitals lookup 1 subtable" uni040A.c2sc
EndChar

StartChar: uni045B
Encoding: 1115 1115 258
Width: 1161
Flags: W
LayerCount: 2
Fore
SplineSet
633 1214 m 1,0,-1
 325 1214 l 1,1,-1
 325 951 l 1,2,3
 448 1102 448 1102 645 1102 c 0,4,5
 988 1102 988 1102 991 715 c 2,6,-1
 991 0 l 1,7,-1
 806 0 l 1,8,-1
 806 716 l 2,9,10
 805 833 805 833 752.5 889 c 128,-1,11
 700 945 700 945 589 945 c 0,12,13
 499 945 499 945 431 897 c 128,-1,14
 363 849 363 849 325 771 c 1,15,-1
 325 0 l 1,16,-1
 140 0 l 1,17,-1
 140 1214 l 1,18,-1
 -3 1214 l 1,19,-1
 -3 1365 l 1,20,-1
 140 1365 l 1,21,-1
 140 1536 l 1,22,-1
 325 1536 l 1,23,-1
 325 1365 l 1,24,-1
 633 1365 l 1,25,-1
 633 1214 l 1,0,-1
EndSplineSet
Substitution2: "'smcp' Lowercase to Small Capitals lookup 1 subtable" uni040B.c2sc
EndChar

StartChar: uni045F
Encoding: 1119 1119 259
Width: 1182
Flags: W
LayerCount: 2
Fore
SplineSet
342 1082 m 1,0,-1
 342 151 l 1,1,-1
 840 151 l 1,2,-1
 840 1082 l 1,3,-1
 1025 1082 l 1,4,-1
 1025 0 l 1,5,-1
 686 0 l 1,6,-1
 686 -356 l 1,7,-1
 501 -356 l 1,8,-1
 501 0 l 1,9,-1
 156 0 l 1,10,-1
 156 1082 l 1,11,-1
 342 1082 l 1,0,-1
EndSplineSet
Substitution2: "'smcp' Lowercase to Small Capitals lookup 1 subtable" uni040F.c2sc
EndChar

StartChar: uni0460
Encoding: 1120 1120 260
Width: 1800
GlyphClass: 2
Flags: W
LayerCount: 2
Fore
SplineSet
1653 1456 m 1,0,-1
 1653 398 l 2,1,2
 1653 200 1653 200 1540.5 90 c 128,-1,3
 1428 -20 1428 -20 1233 -20 c 0,4,5
 1124 -20 1124 -20 1038.5 23.5 c 128,-1,6
 953 67 953 67 904 156 c 1,7,8
 852 67 852 67 763 23.5 c 128,-1,9
 674 -20 674 -20 561 -20 c 0,10,11
 372 -20 372 -20 264.5 89.5 c 128,-1,12
 157 199 157 199 156 394 c 2,13,-1
 156 1456 l 1,14,-1
 349 1456 l 1,15,-1
 349 397 l 2,16,17
 349 274 349 274 406 205 c 128,-1,18
 463 136 463 136 561 136 c 0,19,20
 675 136 675 136 740 204.5 c 128,-1,21
 805 273 805 273 805 397 c 2,22,-1
 805 1456 l 1,23,-1
 1004 1456 l 1,24,-1
 1004 397 l 2,25,26
 1004 272 1004 272 1066 204 c 128,-1,27
 1128 136 1128 136 1233 136 c 0,28,29
 1339 136 1339 136 1400 204.5 c 128,-1,30
 1461 273 1461 273 1461 398 c 2,31,-1
 1461 1456 l 1,32,-1
 1653 1456 l 1,0,-1
EndSplineSet
EndChar

StartChar: uni0461
Encoding: 1121 1121 261
Width: 1579
GlyphClass: 2
Flags: W
LayerCount: 2
Fore
SplineSet
1453 1082 m 1,0,-1
 1453 353 l 2,1,2
 1453 177 1453 177 1352 78 c 128,-1,3
 1251 -21 1251 -21 1077 -21 c 0,4,5
 879 -21 879 -21 790 127 c 1,6,7
 695 -21 695 -21 489 -21 c 0,8,9
 322 -21 322 -21 226 76.5 c 128,-1,10
 130 174 130 174 129 350 c 2,11,-1
 129 1082 l 1,12,-1
 314 1082 l 1,13,-1
 314 349 l 2,14,15
 315 247 315 247 360.5 188.5 c 128,-1,16
 406 130 406 130 489 130 c 0,17,18
 587 130 587 130 642.5 190 c 128,-1,19
 698 250 698 250 698 353 c 2,20,-1
 698 1082 l 1,21,-1
 884 1082 l 1,22,-1
 884 353 l 2,23,24
 884 250 884 250 934.5 190 c 128,-1,25
 985 130 985 130 1077 130 c 0,26,27
 1166 130 1166 130 1216.5 188.5 c 128,-1,28
 1267 247 1267 247 1268 349 c 2,29,-1
 1268 1082 l 1,30,-1
 1453 1082 l 1,0,-1
EndSplineSet
EndChar

StartChar: uni0463
Encoding: 1123 1123 262
Width: 1110
Flags: W
LayerCount: 2
Fore
SplineSet
662 1082 m 1,0,-1
 341 1082 l 1,1,-1
 341 746 l 1,2,-1
 621 746 l 2,3,4
 808 744 808 744 914 643 c 128,-1,5
 1020 542 1020 542 1020 377 c 128,-1,6
 1020 212 1020 212 914 107.5 c 128,-1,7
 808 3 808 3 625 0 c 2,8,-1
 155 0 l 1,9,-1
 155 1082 l 1,10,-1
 -36 1082 l 1,11,-1
 -36 1233 l 1,12,-1
 155 1233 l 1,13,-1
 155 1558 l 1,14,-1
 341 1558 l 1,15,-1
 341 1233 l 1,16,-1
 662 1233 l 1,17,-1
 662 1082 l 1,0,-1
341 594 m 1,18,-1
 341 151 l 1,19,-1
 615 151 l 2,20,21
 720 151 720 151 776.5 210.5 c 128,-1,22
 833 270 833 270 833 370 c 0,23,24
 833 467 833 467 777.5 529.5 c 128,-1,25
 722 592 722 592 622 594 c 2,26,-1
 341 594 l 1,18,-1
EndSplineSet
EndChar

StartChar: uni0464
Encoding: 1124 1124 263
Width: 1835
Flags: W
LayerCount: 2
Fore
SplineSet
376 832 m 1,0,-1
 575 832 l 1,1,2
 580 1025 580 1025 653.5 1172 c 128,-1,3
 727 1319 727 1319 858 1398 c 128,-1,4
 989 1477 989 1477 1161 1477 c 0,5,6
 1391 1477 1391 1477 1531.5 1349 c 128,-1,7
 1672 1221 1672 1221 1696 989 c 1,8,-1
 1504 989 l 1,9,10
 1479 1161 1479 1161 1395.5 1240 c 128,-1,11
 1312 1319 1312 1319 1161 1319 c 0,12,13
 981 1319 981 1319 877.5 1188.5 c 128,-1,14
 774 1058 774 1058 768 832 c 1,15,-1
 1310 832 l 1,16,-1
 1310 681 l 1,17,-1
 768 681 l 1,18,-1
 768 655 l 2,19,20
 768 418 768 418 867 278 c 128,-1,21
 966 138 966 138 1144 138 c 0,22,23
 1307 138 1307 138 1391.5 211.5 c 128,-1,24
 1476 285 1476 285 1504 463 c 1,25,-1
 1696 463 l 1,26,27
 1669 232 1669 232 1525.5 106.5 c 128,-1,28
 1382 -19 1382 -19 1144 -19 c 0,29,30
 886 -19 886 -19 730.5 166 c 128,-1,31
 575 351 575 351 575 661 c 2,32,-1
 575 681 l 1,33,-1
 376 681 l 1,34,-1
 376 0 l 1,35,-1
 183 0 l 1,36,-1
 183 1456 l 1,37,-1
 376 1456 l 1,38,-1
 376 832 l 1,0,-1
EndSplineSet
EndChar

StartChar: uni0465
Encoding: 1125 1125 264
Width: 1528
Flags: W
LayerCount: 2
Fore
SplineSet
339 615 m 1,0,-1
 530 615 l 1,1,2
 546 838 546 838 673.5 970 c 128,-1,3
 801 1102 801 1102 1010 1102 c 0,4,5
 1192 1102 1192 1102 1312.5 993 c 128,-1,6
 1433 884 1433 884 1441 710 c 1,7,-1
 1265 710 l 1,8,9
 1257 815 1257 815 1185.5 882.5 c 128,-1,10
 1114 950 1114 950 1010 950 c 0,11,12
 878 950 878 950 802 861.5 c 128,-1,13
 726 773 726 773 716 615 c 1,14,-1
 1153 615 l 1,15,-1
 1153 464 l 1,16,-1
 716 464 l 1,17,18
 726 304 726 304 802.5 217.5 c 128,-1,19
 879 131 879 131 1010 131 c 0,20,21
 1109 131 1109 131 1183 191 c 128,-1,22
 1257 251 1257 251 1265 341 c 1,23,-1
 1441 341 l 1,24,25
 1436 247 1436 247 1376 163 c 128,-1,26
 1316 79 1316 79 1218 29.5 c 128,-1,27
 1120 -20 1120 -20 1010 -20 c 0,28,29
 801 -20 801 -20 674 111 c 128,-1,30
 547 242 547 242 531 464 c 1,31,-1
 339 464 l 1,32,-1
 339 0 l 1,33,-1
 153 0 l 1,34,-1
 153 1082 l 1,35,-1
 339 1082 l 1,36,-1
 339 615 l 1,0,-1
EndSplineSet
EndChar

StartChar: uni0466
Encoding: 1126 1126 265
Width: 1234
Flags: W
LayerCount: 2
Fore
SplineSet
905 438 m 1,0,-1
 735 438 l 1,1,-1
 735 0 l 1,2,-1
 547 0 l 1,3,-1
 547 438 l 1,4,-1
 389 438 l 1,5,-1
 237 0 l 1,6,-1
 40 0 l 1,7,-1
 565 1456 l 1,8,-1
 736 1456 l 1,9,-1
 1252 0 l 1,10,-1
 1055 0 l 1,11,-1
 905 438 l 1,0,-1
446 602 m 1,12,-1
 849 602 l 1,13,-1
 650 1187 l 1,14,-1
 446 602 l 1,12,-1
EndSplineSet
EndChar

StartChar: uni0467
Encoding: 1127 1127 266
Width: 1094
Flags: W
LayerCount: 2
Fore
SplineSet
749 297 m 1,0,-1
 632 297 l 1,1,-1
 632 0 l 1,2,-1
 447 0 l 1,3,-1
 447 297 l 1,4,-1
 323 297 l 1,5,-1
 204 0 l 1,6,-1
 15 0 l 1,7,-1
 457 1082 l 1,8,-1
 616 1082 l 1,9,-1
 1061 0 l 1,10,-1
 871 0 l 1,11,-1
 749 297 l 1,0,-1
384 449 m 1,12,-1
 687 449 l 1,13,-1
 559 764 l 1,14,-1
 535 853 l 1,15,-1
 511 764 l 1,16,-1
 384 449 l 1,12,-1
EndSplineSet
EndChar

StartChar: uni0468
Encoding: 1128 1128 267
Width: 1803
Flags: W
LayerCount: 2
Fore
SplineSet
394 601 m 1,0,-1
 785 601 l 1,1,-1
 1094 1456 l 1,2,-1
 1265 1456 l 1,3,-1
 1781 0 l 1,4,-1
 1584 0 l 1,5,-1
 1434 438 l 1,6,-1
 1264 438 l 1,7,-1
 1264 0 l 1,8,-1
 1076 0 l 1,9,-1
 1076 438 l 1,10,-1
 918 438 l 1,11,-1
 766 0 l 1,12,-1
 569 0 l 1,13,-1
 727 440 l 1,14,-1
 394 440 l 1,15,-1
 394 0 l 1,16,-1
 201 0 l 1,17,-1
 201 1456 l 1,18,-1
 394 1456 l 1,19,-1
 394 601 l 1,0,-1
975 602 m 1,20,-1
 1378 602 l 1,21,-1
 1179 1187 l 1,22,-1
 975 602 l 1,20,-1
EndSplineSet
EndChar

StartChar: uni0469
Encoding: 1129 1129 268
Width: 1547
Flags: W
LayerCount: 2
Fore
SplineSet
374 449 m 1,0,-1
 645 449 l 1,1,-1
 904 1082 l 1,2,-1
 1063 1082 l 1,3,-1
 1508 0 l 1,4,-1
 1318 0 l 1,5,-1
 1196 297 l 1,6,-1
 1079 297 l 1,7,-1
 1079 0 l 1,8,-1
 894 0 l 1,9,-1
 894 297 l 1,10,-1
 770 297 l 1,11,-1
 651 0 l 1,12,-1
 462 0 l 1,13,-1
 583 296 l 1,14,-1
 374 296 l 1,15,-1
 374 0 l 1,16,-1
 188 0 l 1,17,-1
 188 1082 l 1,18,-1
 374 1082 l 1,19,-1
 374 449 l 1,0,-1
831 449 m 1,20,-1
 1134 449 l 1,21,-1
 1006 764 l 1,22,-1
 982 853 l 1,23,-1
 958 764 l 1,24,-1
 831 449 l 1,20,-1
EndSplineSet
EndChar

StartChar: uni046A
Encoding: 1130 1130 269
Width: 1745
Flags: W
LayerCount: 2
Fore
SplineSet
1089 810 m 1,0,-1
 1116 810 l 2,1,2
 1360 810 1360 810 1478 704 c 128,-1,3
 1596 598 1596 598 1599 382 c 2,4,-1
 1599 0 l 1,5,-1
 1406 0 l 1,6,-1
 1406 376 l 2,7,8
 1405 520 1405 520 1343 585 c 128,-1,9
 1281 650 1281 650 1127 652 c 2,10,-1
 994 652 l 1,11,-1
 973 617 l 1,12,-1
 973 0 l 1,13,-1
 780 0 l 1,14,-1
 780 630 l 1,15,-1
 767 652 l 1,16,-1
 631 652 l 2,17,18
 473 652 473 652 408 590.5 c 128,-1,19
 343 529 343 529 339 388 c 1,20,-1
 339 0 l 1,21,-1
 147 0 l 1,22,-1
 147 382 l 2,23,24
 150 598 150 598 268 704 c 128,-1,25
 386 810 386 810 629 810 c 2,26,-1
 671 810 l 1,27,-1
 279 1456 l 1,28,-1
 1481 1456 l 1,29,-1
 1089 810 l 1,0,-1
872 810 m 1,30,-1
 888 810 l 1,31,-1
 1170 1298 l 1,32,-1
 589 1298 l 1,33,-1
 872 810 l 1,30,-1
EndSplineSet
EndChar

StartChar: uni046B
Encoding: 1131 1131 270
Width: 1505
Flags: W
LayerCount: 2
Fore
SplineSet
150 0 m 1,0,-1
 150 182 l 1,1,2
 154 387 154 387 255 492 c 128,-1,3
 356 597 356 597 566 603 c 1,4,-1
 279 1082 l 1,5,-1
 1238 1082 l 1,6,-1
 950 603 l 1,7,8
 1156 592 1156 592 1254.5 486.5 c 128,-1,9
 1353 381 1353 381 1355 173 c 2,10,-1
 1355 0 l 1,11,-1
 1169 0 l 1,12,-1
 1169 177 l 2,13,14
 1167 323 1167 323 1109.5 387.5 c 128,-1,15
 1052 452 1052 452 912 452 c 2,16,-1
 859 452 l 1,17,-1
 848 433 l 1,18,-1
 848 0 l 1,19,-1
 663 0 l 1,20,-1
 663 443 l 1,21,-1
 657 452 l 1,22,-1
 595 452 l 2,23,24
 455 452 455 452 396.5 389 c 128,-1,25
 338 326 338 326 336 177 c 2,26,-1
 336 0 l 1,27,-1
 150 0 l 1,0,-1
754 604 m 1,28,-1
 762 604 l 1,29,-1
 945 930 l 1,30,-1
 572 930 l 1,31,-1
 754 604 l 1,28,-1
EndSplineSet
EndChar

StartChar: uni046C
Encoding: 1132 1132 271
Width: 2308
Flags: W
LayerCount: 2
Fore
SplineSet
709 0 m 1,0,-1
 709 376 l 2,1,2
 710 555 710 555 789 660 c 1,3,-1
 375 660 l 1,4,-1
 375 0 l 1,5,-1
 182 0 l 1,6,-1
 182 1456 l 1,7,-1
 375 1456 l 1,8,-1
 375 812 l 1,9,-1
 1232 812 l 1,10,-1
 841 1456 l 1,11,-1
 2044 1456 l 1,12,-1
 1652 810 l 1,13,-1
 1679 810 l 2,14,15
 1923 810 1923 810 2041 704 c 128,-1,16
 2159 598 2159 598 2162 382 c 2,17,-1
 2162 0 l 1,18,-1
 1969 0 l 1,19,-1
 1969 376 l 2,20,21
 1968 520 1968 520 1906 585 c 128,-1,22
 1844 650 1844 650 1690 652 c 2,23,-1
 1557 652 l 1,24,-1
 1535 615 l 1,25,-1
 1535 0 l 1,26,-1
 1343 0 l 1,27,-1
 1343 629 l 1,28,-1
 1329 652 l 1,29,-1
 1194 652 l 2,30,31
 1036 652 1036 652 971 590.5 c 128,-1,32
 906 529 906 529 902 388 c 1,33,-1
 902 0 l 1,34,-1
 709 0 l 1,0,-1
1435 810 m 1,35,-1
 1451 810 l 1,36,-1
 1733 1298 l 1,37,-1
 1152 1298 l 1,38,-1
 1435 810 l 1,35,-1
EndSplineSet
EndChar

StartChar: uni046D
Encoding: 1133 1133 272
Width: 2001
Flags: W
LayerCount: 2
Fore
SplineSet
646 0 m 1,0,-1
 646 175 l 2,1,2
 648 348 648 348 718 452 c 1,3,-1
 341 452 l 1,4,-1
 341 0 l 1,5,-1
 155 0 l 1,6,-1
 155 1082 l 1,7,-1
 341 1082 l 1,8,-1
 341 604 l 1,9,-1
 1062 604 l 1,10,-1
 775 1082 l 1,11,-1
 1734 1082 l 1,12,-1
 1446 603 l 1,13,14
 1652 592 1652 592 1750.5 486.5 c 128,-1,15
 1849 381 1849 381 1851 173 c 2,16,-1
 1851 0 l 1,17,-1
 1665 0 l 1,18,-1
 1665 177 l 2,19,20
 1663 323 1663 323 1605.5 387.5 c 128,-1,21
 1548 452 1548 452 1408 452 c 2,22,-1
 1355 452 l 1,23,-1
 1344 433 l 1,24,-1
 1344 0 l 1,25,-1
 1159 0 l 1,26,-1
 1159 443 l 1,27,-1
 1153 452 l 1,28,-1
 1078 452 l 2,29,30
 945 450 945 450 889.5 386 c 128,-1,31
 834 322 834 322 832 175 c 2,32,-1
 832 0 l 1,33,-1
 646 0 l 1,0,-1
1250 604 m 1,34,-1
 1258 604 l 1,35,-1
 1441 930 l 1,36,-1
 1068 930 l 1,37,-1
 1250 604 l 1,34,-1
EndSplineSet
EndChar

StartChar: uni046E
Encoding: 1134 1134 273
Width: 1059
Flags: W
LayerCount: 2
Fore
SplineSet
730 1066 m 0,0,1
 730 1176 730 1176 651.5 1240 c 128,-1,2
 573 1304 573 1304 438 1304 c 2,3,-1
 132 1304 l 1,4,-1
 132 1456 l 1,5,-1
 431 1456 l 2,6,7
 653 1456 653 1456 784 1348 c 128,-1,8
 915 1240 915 1240 915 1062 c 0,9,10
 915 959 915 959 850.5 877 c 128,-1,11
 786 795 786 795 671 750 c 1,12,13
 801 709 801 709 869.5 622.5 c 128,-1,14
 938 536 938 536 938 406 c 0,15,16
 938 210 938 210 805.5 95.5 c 128,-1,17
 673 -19 673 -19 449 -19 c 2,18,-1
 397 -19 l 2,19,20
 256 -22 256 -22 256 -131 c 0,21,22
 256 -236 256 -236 386 -302 c 2,23,-1
 417 -317 l 1,24,-1
 343 -442 l 1,25,26
 221 -389 221 -389 150.5 -305 c 128,-1,27
 80 -221 80 -221 80 -122 c 0,28,29
 80 0 80 0 162.5 65.5 c 128,-1,30
 245 131 245 131 407 132 c 2,31,-1
 459 132 l 2,32,33
 593 133 593 133 672.5 207 c 128,-1,34
 752 281 752 281 752 402 c 0,35,36
 752 666 752 666 430 671 c 1,37,-1
 277 671 l 1,38,-1
 277 823 l 1,39,-1
 411 823 l 2,40,41
 730 823 730 823 730 1066 c 0,0,1
543 1756 m 1,42,-1
 694 1926 l 1,43,-1
 854 1926 l 1,44,-1
 854 1916 l 1,45,-1
 600 1642 l 1,46,-1
 486 1642 l 1,47,-1
 236 1916 l 1,48,-1
 236 1926 l 1,49,-1
 393 1926 l 1,50,-1
 543 1756 l 1,42,-1
EndSplineSet
EndChar

StartChar: uni046F
Encoding: 1135 1135 274
Width: 987
GlyphClass: 2
Flags: W
LayerCount: 2
Fore
SplineSet
679 777 m 0,0,1
 679 844 679 844 615.5 885.5 c 128,-1,2
 552 927 552 927 440 929 c 2,3,-1
 129 929 l 1,4,-1
 129 1082 l 1,5,-1
 424 1082 l 2,6,7
 626 1082 626 1082 745 997 c 128,-1,8
 864 912 864 912 864 773 c 0,9,10
 864 700 864 700 813 640.5 c 128,-1,11
 762 581 762 581 671 545 c 1,12,13
 886 479 886 479 886 304 c 0,14,15
 886 156 886 156 764.5 68.5 c 128,-1,16
 643 -19 643 -19 443 -19 c 2,17,-1
 393 -19 l 2,18,19
 252 -22 252 -22 252 -131 c 0,20,21
 252 -236 252 -236 382 -302 c 2,22,-1
 413 -317 l 1,23,-1
 338 -442 l 1,24,25
 214 -387 214 -387 145 -303 c 128,-1,26
 76 -219 76 -219 76 -122 c 0,27,28
 76 0 76 0 158.5 65.5 c 128,-1,29
 241 131 241 131 403 132 c 2,30,-1
 457 132 l 2,31,32
 571 134 571 134 638 182 c 0,33,34
 701 228 701 228 701 300 c 0,35,36
 701 462 701 462 421 465 c 2,37,-1
 268 465 l 1,38,-1
 268 617 l 1,39,-1
 404 617 l 2,40,41
 679 617 679 617 679 777 c 0,0,1
462 1414 m 1,42,-1
 613 1584 l 1,43,-1
 773 1584 l 1,44,-1
 773 1574 l 1,45,-1
 519 1300 l 1,46,-1
 405 1300 l 1,47,-1
 155 1574 l 1,48,-1
 155 1584 l 1,49,-1
 312 1584 l 1,50,-1
 462 1414 l 1,42,-1
EndSplineSet
EndChar

StartChar: uni0472
Encoding: 1138 1138 275
Width: 1393
GlyphClass: 2
Flags: W
LayerCount: 2
Fore
SplineSet
1274 681 m 2,0,1
 1274 468 1274 468 1202.5 309 c 128,-1,2
 1131 150 1131 150 999 65 c 128,-1,3
 867 -20 867 -20 690 -20 c 0,4,5
 518 -20 518 -20 385 64.5 c 128,-1,6
 252 149 252 149 178.5 305.5 c 128,-1,7
 105 462 105 462 103 668 c 2,8,-1
 103 773 l 2,9,10
 103 983 103 983 176 1144 c 128,-1,11
 249 1305 249 1305 382.5 1390.5 c 128,-1,12
 516 1476 516 1476 688 1476 c 0,13,14
 863 1476 863 1476 995 1392 c 128,-1,15
 1127 1308 1127 1308 1199.5 1150.5 c 128,-1,16
 1272 993 1272 993 1274 786 c 2,17,-1
 1274 681 l 2,0,1
688 1311 m 0,18,19
 506 1311 506 1311 402 1173.5 c 128,-1,20
 298 1036 298 1036 294 794 c 1,21,-1
 1082 794 l 1,22,23
 1078 1042 1078 1042 975 1176.5 c 128,-1,24
 872 1311 872 1311 688 1311 c 0,18,19
690 143 m 0,25,26
 872 143 872 143 973 271 c 128,-1,27
 1074 399 1074 399 1082 643 c 1,28,-1
 294 643 l 1,29,30
 302 407 302 407 407.5 275 c 128,-1,31
 513 143 513 143 690 143 c 0,25,26
EndSplineSet
EndChar

StartChar: uni0473
Encoding: 1139 1139 276
Width: 1163
GlyphClass: 2
Flags: W
LayerCount: 2
Fore
SplineSet
91 551 m 2,0,1
 91 710 91 710 152.5 836.5 c 128,-1,2
 214 963 214 963 326.5 1032.5 c 128,-1,3
 439 1102 439 1102 582 1102 c 0,4,5
 794 1102 794 1102 929 959 c 128,-1,6
 1064 816 1064 816 1075 587 c 1,7,-1
 1076 529 l 2,8,9
 1076 371 1076 371 1014 244 c 128,-1,10
 952 117 952 117 840 48.5 c 128,-1,11
 728 -20 728 -20 584 -20 c 0,12,13
 362 -20 362 -20 226.5 133.5 c 128,-1,14
 91 287 91 287 91 538 c 2,15,-1
 91 551 l 2,0,1
887 470 m 1,16,-1
 278 470 l 1,17,18
 291 315 291 315 373 223 c 128,-1,19
 455 131 455 131 584 131 c 128,-1,20
 713 131 713 131 793.5 224 c 128,-1,21
 874 317 874 317 887 470 c 1,16,-1
582 950 m 0,22,23
 457 950 457 950 376 859.5 c 128,-1,24
 295 769 295 769 280 622 c 1,25,-1
 886 622 l 1,26,27
 868 773 868 773 786.5 861.5 c 128,-1,28
 705 950 705 950 582 950 c 0,22,23
EndSplineSet
EndChar

StartChar: uni0474
Encoding: 1140 1140 277
Width: 1290
GlyphClass: 2
Flags: W
LayerCount: 2
Fore
SplineSet
579 374 m 1,0,-1
 612 244 l 1,1,-1
 647 373 l 1,2,-1
 911 1204 l 2,3,4
 962 1355 962 1355 1029 1415 c 128,-1,5
 1096 1475 1096 1475 1199 1475 c 2,6,-1
 1245 1474 l 1,7,-1
 1244 1303 l 1,8,9
 1180 1303 1180 1303 1148 1273 c 128,-1,10
 1116 1243 1116 1243 1085 1159 c 2,11,-1
 697 0 l 1,12,-1
 527 0 l 1,13,-1
 22 1456 l 1,14,-1
 230 1456 l 1,15,-1
 579 374 l 1,0,-1
EndSplineSet
EndChar

StartChar: uni0475
Encoding: 1141 1141 278
Width: 1027
GlyphClass: 2
Flags: W
LayerCount: 2
Fore
SplineSet
475 316 m 1,0,-1
 498 216 l 1,1,-1
 523 316 l 1,2,-1
 680 859 l 1,3,4
 757 1101 757 1101 929 1101 c 0,5,6
 1000 1101 1000 1101 1035 1077 c 1,7,-1
 1014 929 l 1,8,9
 1001 937 1001 937 972 937 c 0,10,11
 941 937 941 937 911 913 c 128,-1,12
 881 889 881 889 865 844 c 2,13,-1
 568 0 l 1,14,-1
 427 0 l 1,15,-1
 46 1082 l 1,16,-1
 235 1082 l 1,17,-1
 475 316 l 1,0,-1
EndSplineSet
EndChar

StartChar: uni047A
Encoding: 1146 1146 279
Width: 1393
Flags: W
LayerCount: 2
Fore
SplineSet
1274 681 m 2,0,1
 1274 390 1274 390 1145 206.5 c 128,-1,2
 1016 23 1016 23 789 -12 c 1,3,-1
 789 -141 l 1,4,-1
 604 -141 l 1,5,-1
 604 -14 l 1,6,7
 375 17 375 17 239.5 201.5 c 128,-1,8
 104 386 104 386 103 677 c 2,9,-1
 103 773 l 2,10,11
 103 1065 103 1065 238 1252 c 128,-1,12
 373 1439 373 1439 604 1470 c 1,13,-1
 604 1588 l 1,14,-1
 789 1588 l 1,15,-1
 789 1468 l 1,16,17
 1015 1431 1015 1431 1144.5 1247 c 128,-1,18
 1274 1063 1274 1063 1274 768 c 2,19,-1
 1274 681 l 2,0,1
1083 775 m 2,20,21
 1083 999 1083 999 1006.5 1131.5 c 128,-1,22
 930 1264 930 1264 789 1299 c 1,23,-1
 789 1202 l 1,24,-1
 604 1202 l 1,25,-1
 604 1302 l 1,26,27
 457 1271 457 1271 375.5 1134 c 128,-1,28
 294 997 294 997 294 774 c 2,29,-1
 294 681 l 2,30,31
 294 459 294 459 376 321 c 128,-1,32
 458 183 458 183 604 152 c 1,33,-1
 604 254 l 1,34,-1
 789 254 l 1,35,-1
 789 154 l 1,36,37
 932 188 932 188 1007.5 321.5 c 128,-1,38
 1083 455 1083 455 1083 681 c 2,39,-1
 1083 775 l 2,20,21
EndSplineSet
EndChar

